<?xml version="1.0" encoding="UTF-8" standalone="no"?>
<!DOCTYPE svg PUBLIC "-//W3C//DTD SVG 1.1//EN" "http://www.w3.org/Graphics/SVG/1.1/DTD/svg11.dtd">
<svg width="100%" height="100%" viewBox="0 0 25 23" version="1.1" xmlns="http://www.w3.org/2000/svg" xmlns:xlink="http://www.w3.org/1999/xlink" xml:space="preserve" xmlns:serif="http://www.serif.com/" style="fill-rule:evenodd;clip-rule:evenodd;stroke-miterlimit:10;">
    <g transform="matrix(1,0,0,-1,5344,65)">
        <path d="M-5326.54,44.599C-5327.65,45.28 -5328.34,46.265 -5328.58,47.553C-5328.61,47.714 -5328.62,47.878 -5328.65,48.041L-5328.65,48.544C-5328.64,48.604 -5328.63,48.665 -5328.63,48.725C-5328.52,49.65 -5328.17,50.466 -5327.55,51.158C-5326.89,51.892 -5326.07,52.351 -5325.09,52.523C-5324.93,52.552 -5324.76,52.568 -5324.6,52.59L-5324.1,52.59C-5323.95,52.572 -5323.81,52.559 -5323.67,52.535C-5322.77,52.385 -5321.99,51.999 -5321.34,51.356C-5320.48,50.496 -5320.05,49.472 -5320.05,48.299C-5320.06,48.155 -5320.06,48.009 -5320.08,47.86C-5320.16,46.949 -5320.52,46.143 -5321.12,45.458C-5321.94,44.549 -5322.95,44.06 -5324.17,44C-5324.24,43.997 -5324.31,43.995 -5324.39,43.995C-5325.15,43.995 -5325.88,44.195 -5326.54,44.599ZM-5324.35,44.662C-5322.35,44.657 -5320.72,46.291 -5320.72,48.295C-5320.72,50.299 -5322.35,51.923 -5324.35,51.923C-5326.35,51.923 -5327.98,50.299 -5327.98,48.294C-5327.98,46.294 -5326.36,44.668 -5324.35,44.662ZM-5324.68,46.689C-5324.68,46.839 -5324.68,46.989 -5324.68,47.139C-5324.68,47.389 -5324.68,47.639 -5324.68,47.889L-5324.68,47.99L-5325.73,47.99C-5325.83,47.99 -5325.93,47.987 -5326.03,47.991C-5326.2,47.999 -5326.34,48.138 -5326.35,48.311L-5326.35,48.327C-5326.34,48.489 -5326.23,48.625 -5326.06,48.649C-5326.02,48.654 -5325.98,48.656 -5325.94,48.656C-5325.56,48.657 -5325.18,48.657 -5324.79,48.657L-5324.68,48.657L-5324.68,48.753C-5324.68,49.003 -5324.68,49.253 -5324.68,49.503C-5324.68,49.653 -5324.68,49.803 -5324.68,49.953C-5324.68,50.132 -5324.59,50.263 -5324.44,50.305C-5324.22,50.367 -5324.02,50.208 -5324.02,49.964C-5324.01,49.79 -5324.01,49.616 -5324.01,49.443C-5324.01,49.219 -5324.02,48.996 -5324.02,48.772L-5324.02,48.657L-5323.91,48.657C-5323.51,48.657 -5323.12,48.657 -5322.72,48.656C-5322.55,48.656 -5322.42,48.577 -5322.37,48.437C-5322.36,48.397 -5322.35,48.357 -5322.35,48.319C-5322.35,48.143 -5322.49,47.992 -5322.69,47.991C-5323.09,47.988 -5323.49,47.99 -5323.88,47.99L-5324.02,47.99L-5324.02,47.899C-5324.02,47.671 -5324.01,47.443 -5324.01,47.215C-5324.01,47.038 -5324.01,46.86 -5324.02,46.683C-5324.02,46.48 -5324.15,46.335 -5324.33,46.328C-5324.34,46.327 -5324.34,46.327 -5324.35,46.327C-5324.54,46.327 -5324.68,46.473 -5324.68,46.689ZM-5343,48.618C-5343,50.33 -5343,52.043 -5343,53.755C-5343,55.468 -5343,57.18 -5343,58.893C-5342.98,59.73 -5342.28,60.39 -5341.44,60.367L-5341.42,60.366C-5340.29,60.369 -5339.15,60.369 -5338.02,60.366L-5336.6,60.366C-5335.18,60.366 -5333.76,60.366 -5332.34,60.363L-5333.15,59.438L-5339.39,59.438L-5339.39,48.08L-5329.03,48.08C-5329.02,47.765 -5328.97,47.457 -5328.89,47.161L-5333.34,47.161L-5341.45,47.161C-5341.47,47.16 -5341.48,47.16 -5341.49,47.16C-5342.3,47.16 -5342.97,47.804 -5343,48.618ZM-5341.54,48.096C-5341.52,48.094 -5341.51,48.093 -5341.5,48.092C-5341.13,48.068 -5340.77,48.087 -5340.39,48.087L-5340.39,53.297L-5342.02,53.297L-5342.02,51.92L-5342.02,48.715C-5342.02,48.691 -5342.02,48.668 -5342.02,48.644C-5342.02,48.369 -5341.82,48.13 -5341.54,48.096ZM-5340.4,54.234L-5340.4,59.451L-5341.28,59.451L-5341.28,59.451C-5341.8,59.451 -5342.02,59.247 -5342.02,58.765L-5342.02,54.234L-5340.4,54.234ZM-5324.35,53.009C-5324.46,53.009 -5324.57,53.004 -5324.68,52.997C-5324.68,54.215 -5324.67,55.433 -5324.67,56.651C-5324.67,57.382 -5324.67,58.113 -5324.68,58.844C-5324.67,58.854 -5324.67,58.864 -5324.67,58.874C-5324.67,59.181 -5324.91,59.438 -5325.22,59.455C-5325.26,59.456 -5325.29,59.455 -5325.33,59.451L-5325.81,59.451C-5326.04,59.451 -5326.27,59.451 -5326.49,59.454L-5325.68,60.392C-5325.41,60.385 -5325.15,60.363 -5324.88,60.324C-5324.21,60.196 -5323.72,59.62 -5323.69,58.936C-5323.69,58.19 -5323.69,57.443 -5323.69,56.696C-5323.69,55.452 -5323.69,54.207 -5323.69,52.962C-5323.91,52.993 -5324.13,53.009 -5324.35,53.009ZM-5330.99,53.298C-5330.99,53.481 -5330.84,53.603 -5330.61,53.605C-5330.38,53.607 -5330.16,53.605 -5329.93,53.605L-5329.24,53.605C-5329.02,53.605 -5328.87,53.481 -5328.87,53.298C-5328.87,53.117 -5329.02,52.993 -5329.24,52.992L-5329.93,52.992L-5330.61,52.991C-5330.84,52.991 -5330.99,53.117 -5330.99,53.298ZM-5337.39,52.991C-5337.67,52.991 -5337.83,53.098 -5337.83,53.295L-5337.83,53.304C-5337.83,53.495 -5337.67,53.605 -5337.39,53.605L-5332.37,53.605C-5332.15,53.605 -5332.01,53.511 -5331.98,53.348C-5331.98,53.33 -5331.98,53.313 -5331.98,53.296C-5331.98,53.158 -5332.08,53.034 -5332.22,53.008C-5332.23,53.007 -5332.23,53.006 -5332.24,53.006C-5332.3,52.995 -5332.36,52.991 -5332.41,52.992L-5337.39,52.992L-5337.39,52.991ZM-5335.02,54.517L-5335.02,54.535C-5335.02,54.552 -5335.02,54.569 -5335.02,54.586L-5335.02,54.586C-5334.99,54.668 -5334.95,54.744 -5334.89,54.807C-5333.98,55.91 -5333.07,57.011 -5332.15,58.109C-5331.77,58.57 -5331.38,59.029 -5331,59.488C-5330.96,59.526 -5330.92,59.56 -5330.88,59.592C-5331.1,59.757 -5331.3,59.896 -5331.49,60.039C-5331.62,60.134 -5331.68,60.225 -5331.68,60.324C-5331.68,60.404 -5331.64,60.49 -5331.56,60.588C-5330.97,61.3 -5330.38,62.011 -5329.78,62.721C-5329.75,62.766 -5329.71,62.806 -5329.66,62.84C-5329.54,62.923 -5329.38,62.92 -5329.27,62.831C-5329.19,62.776 -5329.15,62.69 -5329.15,62.602C-5329.15,62.562 -5329.16,62.522 -5329.18,62.483C-5329.21,62.429 -5329.24,62.378 -5329.28,62.332C-5329.79,61.722 -5330.29,61.113 -5330.8,60.504C-5330.83,60.471 -5330.87,60.442 -5330.9,60.415L-5328.57,58.7L-5326.18,61.568C-5326.23,61.599 -5326.3,61.638 -5326.37,61.684C-5327.14,62.252 -5327.92,62.819 -5328.69,63.395C-5328.78,63.457 -5328.85,63.546 -5328.88,63.648C-5328.88,63.664 -5328.88,63.679 -5328.88,63.695C-5328.88,63.842 -5328.77,63.971 -5328.62,63.992C-5328.56,64 -5328.5,63.992 -5328.45,63.967C-5328.39,63.941 -5328.33,63.906 -5328.28,63.865C-5327.38,63.21 -5326.49,62.554 -5325.6,61.897C-5325.52,61.834 -5325.45,61.766 -5325.39,61.693L-5325.38,61.565C-5325.42,61.476 -5325.47,61.391 -5325.53,61.311C-5326.41,60.252 -5327.28,59.196 -5328.17,58.14C-5328.38,57.885 -5328.52,57.868 -5328.8,58.069L-5330.26,59.14C-5330.3,59.168 -5330.34,59.195 -5330.37,59.216L-5333.56,55.374L-5332.36,55.896C-5331.64,56.213 -5330.92,56.53 -5330.19,56.844C-5330.12,56.866 -5330.07,56.926 -5330.06,57C-5330.01,57.261 -5329.95,57.521 -5329.89,57.78C-5329.87,57.912 -5329.76,58.014 -5329.63,58.032C-5329.51,58.066 -5329.39,58.022 -5329.32,57.922C-5329.28,57.855 -5329.25,57.778 -5329.25,57.7C-5329.25,57.686 -5329.26,57.671 -5329.26,57.657C-5329.32,57.315 -5329.4,56.976 -5329.47,56.635C-5329.51,56.505 -5329.61,56.403 -5329.74,56.366C-5330.93,55.848 -5332.12,55.328 -5333.32,54.807C-5333.73,54.627 -5334.14,54.443 -5334.56,54.269C-5334.61,54.248 -5334.66,54.237 -5334.71,54.237C-5334.72,54.237 -5334.72,54.237 -5334.73,54.237C-5334.88,54.237 -5335.01,54.36 -5335.02,54.517Z" style="fill:rgb(37,168,224);fill-rule:nonzero;stroke:rgb(37,168,224);stroke-width:0.2px;"/>
    </g>
</svg>
