<?xml version="1.0" encoding="UTF-8" standalone="no"?>
<!DOCTYPE svg PUBLIC "-//W3C//DTD SVG 1.1//EN" "http://www.w3.org/Graphics/SVG/1.1/DTD/svg11.dtd">
<svg width="100%" height="100%" viewBox="0 0 19 20" version="1.1" xmlns="http://www.w3.org/2000/svg" xmlns:xlink="http://www.w3.org/1999/xlink" xml:space="preserve" xmlns:serif="http://www.serif.com/" style="fill-rule:evenodd;clip-rule:evenodd;stroke-linejoin:round;stroke-miterlimit:2;">
    <g transform="matrix(1,0,0,-1,-214.675,37.2691)">
        <path d="M230.707,32.592C230.674,31.997 230.64,31.434 230.612,30.87C230.51,28.792 230.411,26.715 230.308,24.637C230.232,23.108 230.16,21.58 230.07,20.052C229.982,18.574 228.664,17.307 227.146,17.289C224.954,17.263 222.76,17.262 220.568,17.289C218.991,17.308 217.71,18.616 217.633,20.194C217.484,23.219 217.326,26.243 217.173,29.268C217.12,30.303 217.07,31.338 217.019,32.373C217.016,32.435 217.01,32.497 217.003,32.591L215.808,32.591C215.68,32.591 215.553,32.587 215.425,32.593C215.005,32.612 214.68,32.939 214.675,33.343C214.67,33.759 214.997,34.103 215.432,34.108C216.189,34.117 216.946,34.111 217.704,34.111L220.084,34.111C220.084,34.236 220.082,34.343 220.084,34.451C220.096,34.992 220.057,35.541 220.135,36.072C220.237,36.765 220.854,37.255 221.555,37.26C223.118,37.271 224.681,37.274 226.244,37.258C227.081,37.25 227.696,36.571 227.711,35.684C227.719,35.254 227.713,34.823 227.713,34.393C227.713,34.307 227.713,34.222 227.713,34.111L228.02,34.111C229.424,34.111 230.827,34.113 232.23,34.109C232.806,34.108 233.177,33.599 232.988,33.088C232.876,32.786 232.596,32.595 232.241,32.593C231.739,32.589 231.238,32.592 230.707,32.592M218.54,32.584C218.54,32.485 218.537,32.408 218.54,32.33C218.577,31.558 218.614,30.785 218.653,30.013C218.758,27.912 218.864,25.811 218.971,23.71C219.03,22.54 219.081,21.369 219.157,20.2C219.209,19.411 219.862,18.805 220.649,18.802C222.786,18.795 224.922,18.796 227.059,18.802C227.848,18.805 228.498,19.409 228.555,20.196C228.616,21.054 228.651,21.915 228.694,22.774C228.765,24.183 228.833,25.592 228.904,27.001C228.993,28.776 229.083,30.551 229.172,32.326C229.176,32.409 229.173,32.493 229.173,32.584L218.54,32.584ZM226.199,35.737L221.605,35.737L221.605,34.224L226.199,34.224L226.199,35.737Z" style="fill:rgb(37,168,224);fill-rule:nonzero;"/>
    </g>
</svg>
