<?xml version="1.0" encoding="UTF-8"?>
<svg id="Calque_1" data-name="Calque 1" xmlns="http://www.w3.org/2000/svg" viewBox="0 0 930.44 185.33">
  <defs>
    <style>
      .cls-1 {
        fill: #00040a;
      }

      .cls-2 {
        fill: #27aae1;
      }
    </style>
  </defs>
  <polygon class="cls-1" points="69.57 81.39 35.59 38.29 35.59 113.25 13.73 113.25 13.73 4 36.49 4 83.23 63.78 81.71 65.91 69.57 81.39"/>
  <polygon class="cls-2" points="90.21 72.59 143.93 4 166.69 4 166.69 36.78 146.05 36.78 94.76 102.33 85.66 102.33 76.25 90.19 90.21 72.59"/>
  <rect class="cls-1" x="144.84" y="47.7" width="21.85" height="65.55"/>
  <path class="cls-1" d="M266.23,4l53.42,109.25h-24.28l-41.27-84.37-41.27,84.37h-24.28L241.95,4h24.28Z"/>
  <path class="cls-1" d="M368.16,113.25V25.85h-54.63V4h131.11v21.85h-54.63v87.4h-21.85Z"/>
  <polygon class="cls-1" points="522.32 81.39 488.33 38.29 488.33 113.25 466.48 113.25 466.48 4 489.24 4 535.98 63.78 534.46 65.91 522.32 81.39"/>
  <polygon class="cls-2" points="542.96 72.59 596.68 4 619.44 4 619.44 36.78 598.8 36.78 547.51 102.33 538.41 102.33 529 90.19 542.96 72.59"/>
  <rect class="cls-1" x="597.59" y="47.7" width="21.85" height="65.55"/>
  <path class="cls-1" d="M718.97,4l53.42,109.25h-24.28l-41.27-84.37-41.27,84.37h-24.28l53.41-109.25h24.28Z"/>
  <path class="cls-1" d="M883.77,4h41.57l-88.31,54.63,88.31,54.63h-41.57l-67.68-41.88v41.88h-21.85V4h21.85v41.88l67.68-41.88Z"/>
  <g>
    <path class="cls-2" d="M47.59,169.85h-7.89l-3.14-8.12h-14.36l-2.97,8.12h-7.7l14-35.73h7.67l14.39,35.73ZM34.23,155.71l-4.95-13.26-4.85,13.26h9.8Z"/>
    <path class="cls-2" d="M55.93,134.12h13.26c2.99,0,5.27.23,6.84.68,2.11.62,3.91,1.71,5.42,3.29,1.5,1.58,2.65,3.51,3.43,5.79.78,2.28,1.18,5.1,1.18,8.44,0,2.94-.37,5.48-1.1,7.6-.9,2.6-2.18,4.7-3.85,6.31-1.26,1.22-2.96,2.17-5.1,2.85-1.6.5-3.74.76-6.42.76h-13.65v-35.73ZM63.19,140.16v23.66h5.42c2.03,0,3.49-.11,4.39-.34,1.18-.29,2.15-.79,2.93-1.49.78-.7,1.41-1.85,1.9-3.45.49-1.6.74-3.78.74-6.54s-.25-4.88-.74-6.36c-.49-1.48-1.18-2.63-2.06-3.46-.88-.83-2-1.39-3.36-1.68-1.01-.23-3-.34-5.96-.34h-3.26Z"/>
    <path class="cls-2" d="M105.89,169.85l-12.84-35.73h7.87l9.09,26.44,8.8-26.44h7.7l-12.87,35.73h-7.75Z"/>
    <path class="cls-2" d="M163.4,169.85h-7.89l-3.14-8.12h-14.36l-2.97,8.12h-7.7l14-35.73h7.67l14.39,35.73ZM150.04,155.71l-4.95-13.26-4.85,13.26h9.8Z"/>
    <path class="cls-2" d="M171.84,169.85v-35.73h7.06l14.71,23.86v-23.86h6.74v35.73h-7.28l-14.49-23.3v23.3h-6.74Z"/>
    <path class="cls-2" d="M235.53,156.71l7.03,2.22c-1.08,3.9-2.87,6.8-5.38,8.69-2.51,1.89-5.69,2.84-9.55,2.84-4.77,0-8.69-1.62-11.77-4.86s-4.61-7.67-4.61-13.29c0-5.95,1.54-10.56,4.63-13.85,3.09-3.29,7.15-4.93,12.18-4.93,4.4,0,7.97,1.29,10.71,3.87,1.63,1.53,2.86,3.72,3.68,6.58l-7.18,1.71c-.43-1.85-1.31-3.31-2.66-4.39-1.35-1.07-2.99-1.61-4.91-1.61-2.66,0-4.82.95-6.48,2.85-1.66,1.9-2.49,4.98-2.49,9.24,0,4.52.82,7.73,2.45,9.65,1.63,1.92,3.76,2.88,6.37,2.88,1.93,0,3.59-.61,4.98-1.83,1.39-1.22,2.39-3.14,2.99-5.75Z"/>
    <path class="cls-2" d="M253.3,169.85v-35.73h26.64v6.04h-19.39v7.92h18.04v6.02h-18.04v9.72h20.07v6.02h-27.33Z"/>
    <path class="cls-2" d="M291.28,134.12h13.26c2.99,0,5.27.23,6.84.68,2.11.62,3.91,1.71,5.42,3.29,1.5,1.58,2.65,3.51,3.43,5.79.78,2.28,1.18,5.1,1.18,8.44,0,2.94-.37,5.48-1.1,7.6-.9,2.6-2.18,4.7-3.85,6.31-1.26,1.22-2.96,2.17-5.1,2.85-1.6.5-3.74.76-6.42.76h-13.65v-35.73ZM298.53,140.16v23.66h5.42c2.03,0,3.49-.11,4.39-.34,1.18-.29,2.15-.79,2.93-1.49.78-.7,1.41-1.85,1.9-3.45.49-1.6.74-3.78.74-6.54s-.25-4.88-.74-6.36c-.49-1.48-1.18-2.63-2.06-3.46-.88-.83-2-1.39-3.36-1.68-1.01-.23-3-.34-5.96-.34h-3.26Z"/>
    <path class="cls-2" d="M350.54,169.85v-35.73h11.64c4.41,0,7.29.18,8.63.54,2.06.54,3.78,1.7,5.17,3.5,1.39,1.8,2.08,4.11,2.08,6.96,0,2.19-.4,4.04-1.2,5.53-.8,1.49-1.82,2.67-3.05,3.52-1.23.85-2.49,1.42-3.76,1.69-1.73.34-4.24.51-7.52.51h-4.73v13.48h-7.26ZM357.79,140.16v10.14h3.97c2.86,0,4.77-.19,5.74-.56.96-.37,1.72-.96,2.27-1.75.55-.8.82-1.72.82-2.78,0-1.3-.38-2.37-1.15-3.22-.77-.84-1.74-1.37-2.92-1.58-.87-.16-2.61-.24-5.22-.24h-3.5Z"/>
    <path class="cls-2" d="M388.56,169.85v-35.73h15.27c3.84,0,6.63.32,8.37.96,1.74.64,3.13,1.78,4.18,3.42,1.05,1.64,1.57,3.52,1.57,5.63,0,2.68-.79,4.89-2.38,6.64-1.59,1.75-3.95,2.85-7.11,3.3,1.57.91,2.86,1.91,3.88,3s2.4,3.02,4.13,5.8l4.39,6.97h-8.68l-5.25-7.77c-1.86-2.78-3.14-4.53-3.82-5.25s-1.41-1.22-2.18-1.49c-.77-.27-1.99-.4-3.65-.4h-1.47v14.91h-7.26ZM395.81,149.23h5.37c3.48,0,5.65-.15,6.52-.44.87-.29,1.54-.8,2.03-1.51.49-.71.74-1.61.74-2.68,0-1.2-.32-2.17-.97-2.91-.65-.74-1.56-1.21-2.73-1.4-.59-.08-2.35-.12-5.29-.12h-5.66v9.07Z"/>
    <path class="cls-2" d="M429.3,169.85v-35.73h26.64v6.04h-19.39v7.92h18.04v6.02h-18.04v9.72h20.07v6.02h-27.33Z"/>
    <path class="cls-2" d="M490.29,156.71l7.03,2.22c-1.08,3.9-2.87,6.8-5.38,8.69-2.51,1.89-5.69,2.84-9.55,2.84-4.77,0-8.69-1.62-11.76-4.86-3.07-3.24-4.61-7.67-4.61-13.29,0-5.95,1.54-10.56,4.63-13.85,3.09-3.29,7.15-4.93,12.18-4.93,4.4,0,7.97,1.29,10.71,3.87,1.63,1.53,2.86,3.72,3.68,6.58l-7.18,1.71c-.43-1.85-1.31-3.31-2.66-4.39-1.35-1.07-2.99-1.61-4.91-1.61-2.67,0-4.82.95-6.48,2.85-1.66,1.9-2.49,4.98-2.49,9.24,0,4.52.82,7.73,2.45,9.65,1.64,1.92,3.76,2.88,6.37,2.88,1.93,0,3.59-.61,4.98-1.83,1.39-1.22,2.39-3.14,2.99-5.75Z"/>
    <path class="cls-2" d="M508.02,134.12h7.26v19.35c0,3.07.09,5.06.27,5.97.31,1.46,1.05,2.64,2.22,3.52,1.17.89,2.77,1.33,4.79,1.33s3.61-.42,4.66-1.26,1.67-1.86,1.89-3.08c.21-1.22.32-3.24.32-6.07v-19.76h7.25v18.77c0,4.29-.2,7.32-.59,9.09-.39,1.77-1.12,3.27-2.17,4.48s-2.46,2.19-4.23,2.91c-1.76.72-4.07,1.08-6.91,1.08-3.43,0-6.03-.39-7.81-1.18-1.77-.79-3.17-1.81-4.2-3.07-1.03-1.26-1.71-2.58-2.03-3.96-.47-2.05-.71-5.07-.71-9.07v-19.06Z"/>
    <path class="cls-2" d="M556.93,169.85v-29.68h-10.66v-6.04h28.55v6.04h-10.64v29.68h-7.25Z"/>
    <path class="cls-2" d="M600.64,158.22l7.06-.68c.42,2.36,1.29,4.09,2.59,5.19s3.05,1.66,5.26,1.66c2.34,0,4.1-.49,5.28-1.47,1.18-.98,1.78-2.13,1.78-3.45,0-.84-.25-1.56-.75-2.16s-1.37-1.11-2.61-1.55c-.85-.29-2.79-.81-5.81-1.56-3.89-.96-6.62-2.14-8.19-3.53-2.21-1.97-3.31-4.36-3.31-7.19,0-1.82.52-3.52,1.56-5.11,1.04-1.58,2.53-2.79,4.48-3.62s4.31-1.24,7.07-1.24c4.51,0,7.91.98,10.18,2.95,2.28,1.97,3.48,4.59,3.59,7.87l-7.25.32c-.31-1.84-.98-3.16-2-3.96s-2.55-1.21-4.6-1.21-3.76.43-4.95,1.29c-.77.55-1.15,1.29-1.15,2.22,0,.85.36,1.57,1.08,2.17.91.76,3.14,1.56,6.67,2.39s6.14,1.69,7.83,2.57c1.69.89,3.01,2.1,3.97,3.63.96,1.54,1.43,3.43,1.43,5.69,0,2.05-.57,3.96-1.72,5.75-1.14,1.79-2.76,3.12-4.85,3.98-2.09.87-4.7,1.3-7.82,1.3-4.54,0-8.03-1.04-10.47-3.13-2.44-2.09-3.89-5.13-4.36-9.13Z"/>
    <path class="cls-2" d="M639.01,152.2c0-3.64.55-6.69,1.64-9.16.82-1.82,1.93-3.45,3.35-4.9,1.41-1.45,2.96-2.52,4.64-3.22,2.24-.94,4.82-1.41,7.75-1.41,5.29,0,9.53,1.63,12.71,4.9,3.18,3.27,4.77,7.81,4.77,13.62s-1.58,10.28-4.73,13.54c-3.15,3.26-7.37,4.89-12.65,4.89s-9.59-1.62-12.75-4.86-4.73-7.7-4.73-13.39ZM646.49,151.96c0,4.05.94,7.11,2.82,9.2,1.88,2.09,4.26,3.13,7.16,3.13s5.27-1.04,7.12-3.11c1.85-2.07,2.78-5.18,2.78-9.32s-.9-7.15-2.71-9.16c-1.81-2.01-4.2-3.02-7.19-3.02s-5.4,1.02-7.23,3.06c-1.83,2.04-2.75,5.11-2.75,9.22Z"/>
    <path class="cls-2" d="M684.24,169.85v-35.43h7.26v29.42h18.04v6.02h-25.3Z"/>
    <path class="cls-2" d="M719.17,134.12h7.26v19.35c0,3.07.09,5.06.27,5.97.31,1.46,1.05,2.64,2.22,3.52,1.17.89,2.77,1.33,4.79,1.33s3.61-.42,4.66-1.26,1.67-1.86,1.89-3.08c.21-1.22.32-3.24.32-6.07v-19.76h7.25v18.77c0,4.29-.2,7.32-.59,9.09s-1.12,3.27-2.17,4.48c-1.05,1.22-2.46,2.19-4.23,2.91-1.76.72-4.07,1.08-6.91,1.08-3.43,0-6.03-.39-7.81-1.18-1.77-.79-3.17-1.81-4.2-3.07-1.03-1.26-1.71-2.58-2.03-3.96-.47-2.05-.71-5.07-.71-9.07v-19.06Z"/>
    <path class="cls-2" d="M768.08,169.85v-29.68h-10.66v-6.04h28.55v6.04h-10.64v29.68h-7.25Z"/>
    <path class="cls-2" d="M794.95,169.85v-35.73h7.25v35.73h-7.25Z"/>
    <path class="cls-2" d="M812.17,152.2c0-3.64.55-6.69,1.64-9.16.82-1.82,1.93-3.45,3.35-4.9,1.41-1.45,2.96-2.52,4.64-3.22,2.24-.94,4.82-1.41,7.75-1.41,5.29,0,9.53,1.63,12.71,4.9,3.18,3.27,4.77,7.81,4.77,13.62s-1.58,10.28-4.73,13.54c-3.15,3.26-7.37,4.89-12.65,4.89s-9.59-1.62-12.75-4.86c-3.15-3.24-4.73-7.7-4.73-13.39ZM819.64,151.96c0,4.05.94,7.11,2.82,9.2,1.88,2.09,4.26,3.13,7.16,3.13s5.27-1.04,7.12-3.11c1.85-2.07,2.78-5.18,2.78-9.32s-.9-7.15-2.71-9.16c-1.81-2.01-4.2-3.02-7.19-3.02s-5.4,1.02-7.23,3.06c-1.83,2.04-2.75,5.11-2.75,9.22Z"/>
    <path class="cls-2" d="M857.27,169.85v-35.73h7.06l14.71,23.86v-23.86h6.74v35.73h-7.28l-14.49-23.3v23.3h-6.74Z"/>
    <path class="cls-2" d="M896.13,158.22l7.06-.68c.42,2.36,1.29,4.09,2.59,5.19s3.05,1.66,5.26,1.66c2.34,0,4.1-.49,5.28-1.47,1.18-.98,1.78-2.13,1.78-3.45,0-.84-.25-1.56-.75-2.16s-1.37-1.11-2.61-1.55c-.85-.29-2.79-.81-5.81-1.56-3.89-.96-6.62-2.14-8.19-3.53-2.21-1.97-3.31-4.36-3.31-7.19,0-1.82.52-3.52,1.56-5.11,1.04-1.58,2.53-2.79,4.48-3.62s4.31-1.24,7.07-1.24c4.51,0,7.91.98,10.18,2.95,2.28,1.97,3.48,4.59,3.59,7.87l-7.25.32c-.31-1.84-.98-3.16-2-3.96s-2.55-1.21-4.6-1.21-3.76.43-4.95,1.29c-.77.55-1.15,1.29-1.15,2.22,0,.85.36,1.57,1.08,2.17.91.76,3.14,1.56,6.67,2.39s6.14,1.69,7.83,2.57c1.69.89,3.01,2.1,3.97,3.63.96,1.54,1.43,3.43,1.43,5.69,0,2.05-.57,3.96-1.72,5.75-1.14,1.79-2.76,3.12-4.85,3.98-2.09.87-4.7,1.3-7.82,1.3-4.54,0-8.03-1.04-10.47-3.13-2.44-2.09-3.89-5.13-4.36-9.13Z"/>
  </g>
</svg>