<?xml version="1.0" encoding="UTF-8" standalone="no"?>
<!DOCTYPE svg PUBLIC "-//W3C//DTD SVG 1.1//EN" "http://www.w3.org/Graphics/SVG/1.1/DTD/svg11.dtd">
<svg width="100%" height="100%" viewBox="0 0 95 11" version="1.1" xmlns="http://www.w3.org/2000/svg" xmlns:xlink="http://www.w3.org/1999/xlink" xml:space="preserve" xmlns:serif="http://www.serif.com/" style="fill-rule:evenodd;clip-rule:evenodd;stroke-linejoin:round;stroke-miterlimit:2;">
    <g transform="matrix(1,0,0,-1,-12.946,13.2055)">
        <path d="M96.193,9.07C96.365,9.069 96.453,9.169 96.554,9.23C98.613,10.498 100.671,11.767 102.726,13.041C102.895,13.146 103.062,13.194 103.263,13.193C104.522,13.185 105.781,13.189 107.062,13.133C104.16,11.342 101.258,9.553 98.301,7.73C101.242,5.915 104.152,4.119 107.071,2.319C106.973,2.216 106.868,2.264 106.777,2.263C105.615,2.259 104.454,2.265 103.292,2.257C103.081,2.256 102.904,2.306 102.724,2.418C100.67,3.692 98.611,4.96 96.553,6.23C96.45,6.293 96.343,6.351 96.193,6.436L96.193,4.625C96.193,3.916 96.187,3.207 96.197,2.499C96.2,2.307 96.143,2.252 95.952,2.257C95.388,2.268 94.825,2.266 94.26,2.258C94.086,2.255 94.003,2.281 94.003,2.488C94.01,5.985 94.01,9.483 94.003,12.981C94.003,13.181 94.088,13.193 94.243,13.191C94.795,13.186 95.348,13.177 95.9,13.194C96.133,13.202 96.202,13.147 96.199,12.904C96.186,11.633 96.193,10.363 96.193,9.07" style="fill:white;fill-rule:nonzero;"/>
    </g>
    <g transform="matrix(1,0,0,-1,-4.64461,13.1747)">
        <path d="M22.168,2.229C22.982,3.892 23.77,5.503 24.559,7.114C25.502,9.038 26.45,10.959 27.386,12.887C27.48,13.079 27.575,13.172 27.811,13.164C28.453,13.143 29.096,13.154 29.739,13.16C29.886,13.162 29.981,13.136 30.055,12.984C31.789,9.436 33.529,5.891 35.267,2.345C35.28,2.318 35.278,2.283 35.287,2.229C34.535,2.229 33.793,2.238 33.053,2.224C32.824,2.219 32.808,2.388 32.744,2.516C31.654,4.73 30.569,6.947 29.482,9.162C29.247,9.642 29.011,10.12 28.77,10.608C28.631,10.513 28.604,10.372 28.547,10.257C27.279,7.68 26.013,5.103 24.757,2.52C24.648,2.297 24.529,2.215 24.277,2.222C23.589,2.242 22.902,2.229 22.168,2.229" style="fill:white;fill-rule:nonzero;"/>
    </g>
    <g transform="matrix(1,0,0,-1,-10.9503,13.1405)">
        <path d="M89.757,2.195C89.029,2.195 88.287,2.203 87.546,2.19C87.338,2.186 87.318,2.335 87.259,2.457C85.982,5.053 84.707,7.649 83.432,10.246C83.379,10.355 83.322,10.463 83.265,10.576C83.13,10.475 83.098,10.325 83.035,10.198C81.767,7.622 80.501,5.046 79.244,2.465C79.148,2.267 79.049,2.181 78.818,2.189C78.209,2.208 77.6,2.211 76.991,2.188C76.671,2.177 76.7,2.277 76.81,2.501C78.463,5.862 80.119,9.221 81.75,12.593C81.947,13 82.16,13.175 82.623,13.135C83.159,13.087 83.704,13.12 84.246,13.126C84.394,13.128 84.487,13.097 84.56,12.947C86.282,9.42 88.009,5.897 89.736,2.372C89.76,2.322 89.801,2.278 89.757,2.195" style="fill:white;fill-rule:nonzero;"/>
    </g>
    <g transform="matrix(1,0,0,-1,-6.64797,13.1948)">
        <path d="M46.104,13.178C48.179,13.178 50.253,13.171 52.327,13.186C52.619,13.188 52.682,13.105 52.67,12.832C52.646,12.339 52.639,11.842 52.671,11.349C52.693,11.03 52.573,10.989 52.295,10.992C50.694,11.004 49.092,10.992 47.491,11.004C47.233,11.007 47.177,10.936 47.178,10.687C47.188,7.988 47.179,5.289 47.191,2.591C47.192,2.31 47.125,2.228 46.842,2.243C46.347,2.269 45.849,2.275 45.355,2.241C45.021,2.219 44.98,2.35 44.98,2.637C44.99,5.291 44.98,7.944 44.994,10.598C44.995,10.921 44.92,11.011 44.589,11.006C42.999,10.988 41.409,11.004 39.82,10.991C39.56,10.989 39.497,11.064 39.506,11.312C39.525,11.829 39.53,12.347 39.505,12.863C39.491,13.146 39.598,13.184 39.845,13.184C41.932,13.175 44.017,13.178 46.104,13.178" style="fill:white;fill-rule:nonzero;"/>
    </g>
    <g transform="matrix(1,0,0,-1,-8.65133,13.1828)">
        <path d="M59.094,9.666C59.015,9.513 59.047,9.39 59.046,9.272C59.044,7.035 59.04,4.8 59.051,2.563C59.052,2.295 58.98,2.221 58.715,2.231C58.175,2.252 57.633,2.244 57.093,2.234C56.91,2.23 56.84,2.273 56.84,2.473C56.846,5.956 56.846,9.44 56.84,12.924C56.84,13.112 56.884,13.174 57.081,13.171C57.701,13.158 58.321,13.16 58.941,13.171C59.098,13.173 59.186,13.107 59.274,12.995C60.742,11.118 62.211,9.241 63.687,7.37C63.799,7.228 63.8,7.137 63.688,7C63.334,6.564 62.981,6.125 62.65,5.672C62.495,5.461 62.422,5.444 62.249,5.665C61.214,6.996 60.163,8.314 59.094,9.666" style="fill:white;fill-rule:nonzero;"/>
    </g>
    <g transform="matrix(1,0,0,-1,-2.355,13.1819)">
        <path d="M4.551,9.718L4.551,9.286C4.551,7.039 4.547,4.791 4.557,2.543C4.559,2.287 4.49,2.221 4.239,2.231C3.688,2.251 3.135,2.244 2.583,2.233C2.406,2.229 2.355,2.277 2.355,2.457C2.36,5.952 2.359,9.447 2.355,12.943C2.355,13.113 2.394,13.173 2.576,13.17C3.196,13.158 3.816,13.16 4.436,13.169C4.586,13.171 4.684,13.124 4.775,13.007C6.243,11.13 7.711,9.252 9.188,7.381C9.311,7.226 9.302,7.127 9.187,6.984C8.841,6.556 8.492,6.128 8.168,5.684C8.008,5.464 7.928,5.449 7.751,5.676C6.806,6.892 5.844,8.096 4.888,9.303C4.799,9.416 4.706,9.528 4.551,9.718" style="fill:white;fill-rule:nonzero;"/>
    </g>
    <g transform="matrix(1,0,0,-1,-3.18172,12.2064)">
        <path d="M18.531,10.56C18.531,10.11 18.52,9.66 18.536,9.21C18.544,8.977 18.472,8.893 18.231,8.9C17.735,8.916 17.238,8.894 16.743,8.91C16.526,8.918 16.394,8.841 16.263,8.674C14.685,6.652 13.097,4.635 11.514,2.616C11.216,2.236 10.507,2.221 10.211,2.593C10.009,2.849 9.822,3.117 9.606,3.362C9.465,3.523 9.486,3.629 9.613,3.79C11.291,5.907 12.962,8.029 14.633,10.15C15.115,10.761 15.597,11.369 16.07,11.985C16.183,12.132 16.301,12.199 16.492,12.194C17.089,12.182 17.687,12.183 18.285,12.193C18.479,12.197 18.539,12.133 18.535,11.943C18.523,11.482 18.531,11.021 18.531,10.56" style="fill:rgb(47,170,225);fill-rule:nonzero;"/>
    </g>
    <g transform="matrix(1,0,0,-1,-9.47744,12.2204)">
        <path d="M73.018,10.56C73.018,10.133 73.002,9.705 73.023,9.278C73.038,9.004 72.964,8.899 72.672,8.913C72.199,8.936 71.725,8.907 71.252,8.924C71.024,8.932 70.88,8.853 70.742,8.677C69.178,6.672 67.605,4.672 66.037,2.671C65.684,2.22 64.998,2.22 64.647,2.674C64.455,2.924 64.27,3.18 64.065,3.419C63.952,3.551 63.973,3.638 64.071,3.763C66.24,6.51 68.405,9.26 70.567,12.011C70.674,12.146 70.783,12.212 70.963,12.208C71.561,12.198 72.159,12.196 72.756,12.209C72.963,12.214 73.03,12.152 73.023,11.943C73.008,11.482 73.018,11.021 73.018,10.56" style="fill:rgb(47,170,225);fill-rule:nonzero;"/>
    </g>
    <g transform="matrix(1,0,0,-1,-4.07094,18.1149)">
        <path d="M17.21,10.458C17.21,11.447 17.216,12.436 17.205,13.425C17.202,13.648 17.24,13.742 17.493,13.733C18.045,13.713 18.598,13.719 19.15,13.731C19.35,13.736 19.422,13.689 19.421,13.472C19.412,11.46 19.413,9.448 19.42,7.437C19.42,7.24 19.385,7.157 19.163,7.164C18.612,7.18 18.058,7.181 17.507,7.164C17.276,7.157 17.2,7.214 17.204,7.457C17.219,8.457 17.21,9.458 17.21,10.458" style="fill:white;fill-rule:nonzero;"/>
    </g>
    <g transform="matrix(1,0,0,-1,-10.3684,18.1213)">
        <path d="M73.907,10.444C73.907,9.455 73.901,8.465 73.913,7.477C73.915,7.253 73.874,7.162 73.623,7.171C73.06,7.19 72.497,7.182 71.933,7.173C71.762,7.171 71.697,7.214 71.698,7.397C71.703,9.431 71.703,11.466 71.699,13.5C71.698,13.668 71.736,13.74 71.922,13.737C72.507,13.728 73.094,13.724 73.679,13.738C73.891,13.744 73.912,13.652 73.91,13.478C73.904,12.467 73.907,11.456 73.907,10.444" style="fill:white;fill-rule:nonzero;"/>
    </g>
</svg>
