<?xml version="1.0" encoding="UTF-8"?>
<svg id="Layer_1" data-name="Layer 1" xmlns="http://www.w3.org/2000/svg" width="477.95" height="97.565" viewBox="0 0 477.95 97.565">
  <defs>
    <style>
      .cls-1 {
        fill: #21b0dc;
      }

      .cls-2 {
        fill: #010101;
      }
    </style>
  </defs>
  <g>
    <path class="cls-2" d="M123.03,6.918h17.983l13.387,39.434,13.064-39.434h17.58v57.417h-11.854V23.531l-14.112,40.805h-9.758l-14.274-40.402v40.402h-12.016V6.918Z"/>
    <path class="cls-2" d="M246.572,64.336h-13.225l-4.516-12.822h-21.37l-4.677,12.822h-12.903l21.854-57.498h12.983l21.854,57.498ZM218.186,20.95l-7.661,21.37h15.241l-7.581-21.37Z"/>
    <path class="cls-2" d="M289.231,17.644h-17.257v46.692h-12.661V17.644h-17.258V6.918h47.176v10.726Z"/>
    <path class="cls-2" d="M295.842,6.918h17.983l13.387,39.434,13.063-39.434h17.58v57.417h-11.854V23.531l-14.112,40.805h-9.758l-14.273-40.402v40.402h-12.016V6.918Z"/>
    <path class="cls-2" d="M419.385,64.336h-13.226l-4.516-12.822h-21.37l-4.678,12.822h-12.902l21.854-57.498h12.984l21.854,57.498ZM390.999,20.95l-7.661,21.37h15.241l-7.58-21.37Z"/>
    <path class="cls-2" d="M452.77,29.579l24.596,34.757h-15.806l-17.419-25.806-7.339,7.258v18.548h-12.419V6.918h12.419v23.87l22.58-23.87h15.887l-22.499,22.661Z"/>
  </g>
  <g>
    <polygon class="cls-1" points="52.62 46.53 39.808 67.437 23.959 41.971 23.959 76.098 0 97.565 0 .334 23.866 .334 23.959 .484 52.62 46.53"/>
    <polygon class="cls-2" points="89.225 0 42.949 73.252 56.437 94.371 113.583 5.457 113.583 .334 89.225 0"/>
    <polygon class="cls-2" points="112.917 16.727 89.092 53.73 89.092 76.091 112.917 97.565 112.917 16.727"/>
  </g>
  <g>
    <path class="cls-2" d="M135.73,92.241h-2.033l-1.53-4.178h-5.79l-1.569,4.178h-1.936l5.421-13.646h2.053l5.383,13.646ZM129.283,80.32l-2.382,6.306h4.725l-2.343-6.306Z"/>
    <path class="cls-2" d="M143.917,78.596c2.336,0,4.06.537,5.17,1.609,1.11,1.074,1.666,2.773,1.666,5.099,0,2.287-.517,4.015-1.549,5.184s-2.685,1.754-4.957,1.754h-4.821v-13.646h4.492ZM141.246,90.688h2.769c1.73,0,2.985-.418,3.766-1.255.781-.837,1.172-2.144,1.172-3.919,0-1.866-.381-3.227-1.143-4.083-.762-.855-2.053-1.283-3.873-1.283h-2.692v10.54Z"/>
    <path class="cls-2" d="M155.822,78.596l3.969,11.883,4.008-11.883h1.917l-4.918,13.646h-2.091l-4.899-13.646h2.014Z"/>
    <path class="cls-2" d="M179.811,92.241h-2.033l-1.53-4.178h-5.79l-1.569,4.178h-1.936l5.422-13.646h2.052l5.383,13.646ZM173.362,80.32l-2.382,6.306h4.725l-2.343-6.306Z"/>
    <path class="cls-2" d="M185.422,78.596l7.281,11.077v-11.077h1.762v13.646h-2.052l-7.242-10.943v10.943h-1.743v-13.646h1.995Z"/>
    <path class="cls-2" d="M209.67,91.12c-1.052.965-2.437,1.447-4.154,1.447-1.962,0-3.518-.643-4.667-1.927s-1.723-3.019-1.723-5.203c0-2.044.578-3.747,1.733-5.107s2.753-2.041,4.792-2.041c1.458,0,2.743.39,3.854,1.169,1.11.779,1.729,1.859,1.859,3.239h-1.82c-.207-.895-.658-1.594-1.355-2.099s-1.556-.757-2.575-.757c-1.536,0-2.695.536-3.476,1.609-.781,1.073-1.171,2.396-1.171,3.967,0,1.738.413,3.105,1.239,4.102.826.997,1.956,1.495,3.389,1.495,1.175,0,2.111-.335,2.808-1.006.697-.671,1.117-1.646,1.259-2.923h1.82c-.155,1.725-.759,3.069-1.811,4.034Z"/>
    <path class="cls-2" d="M225.65,80.167h-7.726v4.274h7.222v1.514h-7.222v4.715h7.823v1.571h-9.643v-13.646h9.546v1.571Z"/>
    <path class="cls-2" d="M234.748,78.596c2.336,0,4.06.537,5.17,1.609,1.11,1.074,1.666,2.773,1.666,5.099,0,2.287-.517,4.015-1.549,5.184s-2.685,1.754-4.957,1.754h-4.821v-13.646h4.492ZM232.076,90.688h2.769c1.73,0,2.985-.418,3.766-1.255.781-.837,1.172-2.144,1.172-3.919,0-1.866-.381-3.227-1.143-4.083-.762-.855-2.053-1.283-3.873-1.283h-2.691v10.54Z"/>
    <path class="cls-2" d="M259.663,78.596c1.407,0,2.523.316,3.35.948.826.633,1.239,1.626,1.239,2.98,0,2.747-1.568,4.12-4.705,4.12h-3.737v5.597h-1.82v-13.646h5.674ZM255.809,85.131h3.505c.981,0,1.746-.182,2.295-.546s.823-1.013.823-1.945c0-.524-.088-.958-.262-1.304-.175-.345-.43-.601-.765-.767-.336-.166-.685-.277-1.046-.335s-.794-.086-1.298-.086h-3.253v4.982Z"/>
    <path class="cls-2" d="M274.839,78.596c3.086,0,4.628,1.259,4.628,3.775,0,.792-.216,1.492-.648,2.099-.433.607-1.004,1.013-1.714,1.217.465.103.839.249,1.123.441.284.191.491.46.62.805s.213.651.252.92c.038.269.07.664.097,1.188,0,.051.006.176.02.373.013.198.019.332.019.402s.01.195.029.374.035.313.049.402c.013.09.032.211.058.364.026.153.059.278.097.374.039.096.084.204.136.325.052.122.109.23.175.326.064.096.135.182.213.259h-2.092c-.09-.128-.164-.287-.223-.479-.058-.191-.1-.418-.126-.68-.025-.263-.045-.473-.058-.633-.013-.159-.026-.393-.039-.699s-.02-.479-.02-.518c-.064-1.163-.307-1.936-.726-2.319-.42-.383-1.249-.575-2.488-.575h-3.621v5.903h-1.82v-13.646h6.061ZM270.599,84.901h3.428c.426,0,.784-.013,1.074-.039.29-.025.61-.083.959-.172.348-.09.629-.218.842-.384s.391-.402.532-.709c.143-.307.213-.677.213-1.111,0-.92-.28-1.543-.842-1.869-.562-.325-1.326-.488-2.295-.488h-3.911v4.772Z"/>
    <path class="cls-2" d="M293.909,80.167h-7.726v4.274h7.222v1.514h-7.222v4.715h7.822v1.571h-9.643v-13.646h9.546v1.571Z"/>
    <path class="cls-2" d="M308.379,91.12c-1.052.965-2.437,1.447-4.153,1.447-1.963,0-3.518-.643-4.667-1.927-1.148-1.284-1.723-3.019-1.723-5.203,0-2.044.577-3.747,1.732-5.107s2.753-2.041,4.793-2.041c1.458,0,2.742.39,3.853,1.169s1.73,1.859,1.859,3.239h-1.82c-.207-.895-.658-1.594-1.355-2.099s-1.556-.757-2.575-.757c-1.536,0-2.694.536-3.476,1.609s-1.172,2.396-1.172,3.967c0,1.738.413,3.105,1.239,4.102.826.997,1.956,1.495,3.389,1.495,1.175,0,2.11-.335,2.808-1.006s1.117-1.646,1.259-2.923h1.82c-.155,1.725-.759,3.069-1.811,4.034Z"/>
    <path class="cls-2" d="M316.556,78.596v8.605c0,1.328.29,2.3.871,2.913s1.53.92,2.847.92c1.355,0,2.313-.313,2.875-.939s.843-1.591.843-2.894v-8.605h1.84v8.126c0,1.993-.42,3.459-1.259,4.398s-2.272,1.408-4.299,1.408c-1.962,0-3.379-.456-4.25-1.37-.872-.913-1.308-2.328-1.308-4.245v-8.317h1.84Z"/>
    <path class="cls-2" d="M340.679,80.167h-4.628v12.074h-1.82v-12.074h-4.628v-1.571h11.076v1.571Z"/>
    <path class="cls-2" d="M360.249,82.602c-.193-1.853-1.336-2.779-3.427-2.779-.994,0-1.763.198-2.305.594-.542.396-.813.952-.813,1.668,0,.255.039.479.116.671.078.191.21.36.397.508.188.146.364.271.532.373.168.103.433.205.794.307.361.103.652.176.871.221.22.045.562.118,1.026.221.568.114,1.039.22,1.414.316.374.096.819.252,1.336.469.517.218.926.457,1.229.719s.568.61.794,1.045.339.926.339,1.476c0,.958-.271,1.76-.813,2.405s-1.2,1.096-1.975,1.351c-.774.256-1.633.384-2.575.384-1.73,0-3.114-.405-4.154-1.217-1.039-.812-1.559-2.01-1.559-3.594h1.763c.038,1.163.432,2.009,1.181,2.539s1.724.796,2.924.796c.942,0,1.749-.195,2.421-.585.671-.39,1.007-1.025,1.007-1.906,0-.409-.091-.758-.271-1.045s-.465-.523-.852-.709c-.388-.186-.774-.335-1.162-.45-.387-.115-.897-.243-1.529-.384-.091-.013-.155-.025-.194-.038-1.42-.319-2.349-.575-2.788-.767-1.343-.575-2.014-1.565-2.014-2.971,0-1.303.487-2.277,1.462-2.923.975-.645,2.152-.968,3.534-.968,1.51,0,2.717.358,3.621,1.073.903.716,1.381,1.782,1.433,3.201h-1.763Z"/>
    <path class="cls-2" d="M377.809,80.215c1.161,1.297,1.742,2.993,1.742,5.089,0,2.107-.574,3.846-1.724,5.213-1.148,1.367-2.775,2.051-4.879,2.051-1.071,0-2.033-.192-2.886-.575-.852-.384-1.546-.914-2.081-1.591-.536-.677-.942-1.45-1.22-2.319-.278-.868-.417-1.808-.417-2.816,0-2.134.598-3.834,1.791-5.099,1.194-1.265,2.792-1.897,4.793-1.897,2.091,0,3.718.648,4.88,1.945ZM369.395,81.441c-.819,1.067-1.229,2.387-1.229,3.958,0,1.712.436,3.076,1.308,4.092.871,1.016,2.036,1.523,3.495,1.523,1.445,0,2.601-.511,3.466-1.533.864-1.022,1.297-2.383,1.297-4.082,0-1.687-.436-3.034-1.307-4.044s-2.036-1.514-3.495-1.514c-1.536,0-2.714.533-3.534,1.6Z"/>
    <path class="cls-2" d="M393.314,92.241h-9.14v-13.646h1.82v12.074h7.319v1.571Z"/>
    <path class="cls-2" d="M398.985,78.596v8.605c0,1.328.29,2.3.871,2.913s1.53.92,2.847.92c1.355,0,2.313-.313,2.875-.939s.843-1.591.843-2.894v-8.605h1.84v8.126c0,1.993-.42,3.459-1.259,4.398s-2.272,1.408-4.299,1.408c-1.962,0-3.379-.456-4.25-1.37-.872-.913-1.308-2.328-1.308-4.245v-8.317h1.84Z"/>
    <path class="cls-2" d="M423.108,80.167h-4.628v12.074h-1.82v-12.074h-4.628v-1.571h11.076v1.571Z"/>
    <path class="cls-2" d="M428.874,92.241h-1.82v-13.646h1.82v13.646Z"/>
    <path class="cls-2" d="M445.002,80.215c1.161,1.297,1.742,2.993,1.742,5.089,0,2.107-.574,3.846-1.724,5.213-1.148,1.367-2.775,2.051-4.879,2.051-1.071,0-2.033-.192-2.886-.575-.852-.384-1.546-.914-2.081-1.591-.536-.677-.942-1.45-1.22-2.319-.278-.868-.417-1.808-.417-2.816,0-2.134.598-3.834,1.791-5.099,1.194-1.265,2.792-1.897,4.793-1.897,2.091,0,3.718.648,4.88,1.945ZM436.588,81.441c-.819,1.067-1.229,2.387-1.229,3.958,0,1.712.436,3.076,1.308,4.092.871,1.016,2.036,1.523,3.495,1.523,1.445,0,2.601-.511,3.466-1.533.864-1.022,1.297-2.383,1.297-4.082,0-1.687-.436-3.034-1.307-4.044s-2.036-1.514-3.495-1.514c-1.536,0-2.714.533-3.534,1.6Z"/>
    <path class="cls-2" d="M453.265,78.596l7.281,11.077v-11.077h1.762v13.646h-2.053l-7.241-10.943v10.943h-1.743v-13.646h1.994Z"/>
    <path class="cls-2" d="M475.645,82.602c-.193-1.853-1.336-2.779-3.427-2.779-.994,0-1.763.198-2.305.594-.542.396-.813.952-.813,1.668,0,.255.039.479.116.671.078.191.21.36.397.508.188.146.364.271.532.373.168.103.433.205.794.307.361.103.652.176.871.221.22.045.562.118,1.026.221.568.114,1.039.22,1.414.316.374.096.819.252,1.336.469.517.218.926.457,1.229.719s.568.61.794,1.045.339.926.339,1.476c0,.958-.271,1.76-.813,2.405s-1.2,1.096-1.975,1.351c-.774.256-1.633.384-2.575.384-1.73,0-3.114-.405-4.154-1.217-1.039-.812-1.559-2.01-1.559-3.594h1.763c.038,1.163.432,2.009,1.181,2.539s1.724.796,2.924.796c.942,0,1.749-.195,2.421-.585.671-.39,1.007-1.025,1.007-1.906,0-.409-.091-.758-.271-1.045s-.465-.523-.852-.709c-.388-.186-.774-.335-1.162-.45-.387-.115-.897-.243-1.529-.384-.091-.013-.155-.025-.194-.038-1.42-.319-2.349-.575-2.788-.767-1.343-.575-2.014-1.565-2.014-2.971,0-1.303.487-2.277,1.462-2.923.975-.645,2.152-.968,3.534-.968,1.51,0,2.717.358,3.62,1.073.904.716,1.382,1.782,1.434,3.201h-1.763Z"/>
  </g>
</svg>