<?xml version="1.0" encoding="UTF-8" standalone="no"?>
<!DOCTYPE svg PUBLIC "-//W3C//DTD SVG 1.1//EN" "http://www.w3.org/Graphics/SVG/1.1/DTD/svg11.dtd">
<svg width="100%" height="100%" viewBox="0 0 1609 449" version="1.1" xmlns="http://www.w3.org/2000/svg" xmlns:xlink="http://www.w3.org/1999/xlink" xml:space="preserve" xmlns:serif="http://www.serif.com/" style="fill-rule:evenodd;clip-rule:evenodd;">
    <g transform="matrix(1,0,0,-1,3.12311,445.123)">
        <rect x="1" y="1" width="1586" height="440" style="fill:none;stroke:black;stroke-width:2px;"/>
    </g>
    <g transform="matrix(1,0,0,1,-295.877,-315.877)">
        <clipPath id="_clip1">
            <rect x="309.542" y="365.689" width="1223.09" height="372.314"/>
        </clipPath>
        <g clip-path="url(#_clip1)">
            <g>
                <g>
                    <clipPath id="_clip2">
                        <rect x="309.5" y="365.5" width="1223.25" height="372.75" clip-rule="nonzero"/>
                    </clipPath>
                    <g clip-path="url(#_clip2)">
                        <g transform="matrix(1,0,0,-1,257.389,888.651)">
                            <path d="M1274.68,332.328C1272.67,329.333 1261.74,311.088 1234.31,239.711C1232.56,235.164 1228.47,231.939 1223.66,231.288C1215.13,230.136 1202.05,229.813 1191.56,230.089C1191.19,230.099 1190.87,230.308 1190.71,230.631C1187.26,237.488 1152.92,309.12 1043.52,283.649C1025.51,279.456 1008.35,269.943 996.553,255.66C981.237,237.112 967.209,200.212 961.959,151.41C961.94,151.236 961.789,151.108 961.614,151.118L886.866,155.865C886.644,155.879 886.5,156.105 886.583,156.312C887.688,159.077 893.947,175.144 897.249,192.333C897.249,192.333 906.378,256.632 906.876,301.758C906.937,307.317 905.686,312.809 903.636,317.973C898.996,329.669 888.21,351 871.741,365.172C871.741,365.172 883.991,366.558 893.054,375.559C893.424,375.928 893.985,376.026 894.46,375.812C897.928,374.249 912.649,369.089 933.37,380.675C933.756,380.892 934.226,380.898 934.612,380.684C937.367,379.151 949.463,372.891 970.673,370.219C970.673,370.219 1214.86,351.292 1274.42,333.076C1274.74,332.979 1274.87,332.603 1274.68,332.328" style="fill:rgb(194,224,239);fill-rule:nonzero;"/>
                        </g>
                        <g transform="matrix(1,0,0,-1,257.389,888.651)">
                            <path d="M1274.68,332.328C1272.67,329.333 1261.74,311.088 1234.31,239.711C1232.56,235.164 1228.47,231.939 1223.66,231.288C1215.13,230.136 1202.05,229.813 1191.56,230.089C1191.19,230.099 1190.87,230.308 1190.71,230.631C1187.26,237.488 1152.92,309.12 1043.52,283.649C1025.51,279.456 1008.35,269.943 996.553,255.66C981.237,237.112 967.209,200.212 961.959,151.41C961.94,151.236 961.789,151.108 961.614,151.118L886.866,155.865C886.644,155.879 886.5,156.105 886.583,156.312C887.688,159.077 893.947,175.144 897.249,192.333C897.249,192.333 906.378,256.632 906.876,301.758C906.937,307.317 905.686,312.809 903.636,317.973C898.996,329.669 888.21,351 871.741,365.172C871.741,365.172 883.991,366.558 893.054,375.559C893.424,375.928 893.985,376.026 894.46,375.812C897.928,374.249 912.649,369.089 933.37,380.675C933.756,380.892 934.226,380.898 934.612,380.684C937.367,379.151 949.463,372.891 970.673,370.219C970.673,370.219 1214.86,351.292 1274.42,333.076C1274.74,332.979 1274.87,332.603 1274.68,332.328Z" style="fill:none;fill-rule:nonzero;stroke:rgb(0,154,219);stroke-width:1px;stroke-miterlimit:10;"/>
                        </g>
                        <g transform="matrix(1,0,0,-1,254.064,890.501)">
                            <path d="M931.203,274.621L931.095,273.324L936.326,272.886L936.432,274.154L940.53,273.811L940.168,269.482L935.677,269.858L935.743,270.645L930.861,271.054L930.795,270.266L927.307,270.558L927.672,274.917L931.203,274.621ZM942.04,272.98L941.689,268.781L953.024,267.832L953.36,271.856L942.04,272.98ZM954.549,267.705L957.034,267.497L957.884,268.218L958.683,267.27L962.214,266.975L963.472,267.31L963.678,266.632L967.514,266.311L967.847,270.291L964.36,270.582L961.621,268.808L959.434,270.995L954.857,271.379L954.549,267.705ZM969.722,270.134L969.389,266.154L973.661,265.797L973.994,269.777L969.722,270.134Z" style="fill:none;fill-rule:nonzero;stroke:rgb(0,154,219);stroke-width:1px;stroke-miterlimit:10;"/>
                        </g>
                        <g transform="matrix(1,0,0,-1,309.497,713.84)">
                            <path d="M836.271,222.809C835.19,221.357 829.223,214.473 812.021,212.372C811.91,212.359 811.798,212.383 811.702,212.441C808.01,214.729 735.646,258.02 687.714,279.576C674.247,285.633 659.822,290.525 645.296,293.169C613.428,298.97 544.149,308.122 447.513,304.655C436.355,304.255 425.458,301.168 415.74,295.673C401.278,287.495 379.873,270.318 351.96,246.003C351.348,245.471 351.618,244.459 352.405,244.263C360.048,242.358 390.018,234.595 412.343,224.656C412.343,224.656 452.61,208.772 464.88,205.757C465.225,205.672 465.418,205.304 465.287,204.974C462.799,198.683 443.834,143.99 470.254,-4.073L338.561,5.117C338.11,5.148 337.782,5.558 337.849,6.006C339.349,15.96 351.793,112.592 273.958,138.905C273.958,138.905 175.783,174.23 129.615,108.932C129.449,108.697 129.165,108.575 128.88,108.618C122.929,109.531 61.281,118.994 31.095,123.762C21.887,125.217 16.104,133.048 15.163,142.32C11.231,181.119 9.076,252.44 0.745,269.356C0.745,269.356 29.299,274.136 167.764,273.108C175.39,273.052 186.652,274.957 193.69,277.893C216.708,287.491 269.068,311.305 296.741,333.139C296.741,333.139 300.049,337.565 301.6,343.747C301.795,344.521 302.448,345.094 303.238,345.2C335.142,349.419 509.166,352.255 697.459,318.687C697.614,318.658 697.71,318.504 697.667,318.354C697.214,316.751 695.325,308.572 701.68,301.647C702.126,301.161 702.598,300.7 703.127,300.212C705.716,297.821 708.577,295.742 711.636,293.991L836.18,223.238C836.333,223.151 836.377,222.951 836.271,222.809" style="fill:rgb(194,224,239);fill-rule:nonzero;"/>
                        </g>
                        <g transform="matrix(1,0,0,-1,309.497,713.84)">
                            <path d="M836.271,222.809C835.19,221.357 829.223,214.473 812.021,212.372C811.91,212.359 811.798,212.383 811.702,212.441C808.01,214.729 735.646,258.02 687.714,279.576C674.247,285.633 659.822,290.525 645.296,293.169C613.428,298.97 544.149,308.122 447.513,304.655C436.355,304.255 425.458,301.168 415.74,295.673C401.278,287.495 379.873,270.318 351.96,246.003C351.348,245.471 351.618,244.459 352.405,244.263C360.048,242.358 390.018,234.595 412.343,224.656C412.343,224.656 452.61,208.772 464.88,205.757C465.225,205.672 465.418,205.304 465.287,204.974C462.799,198.683 443.834,143.99 470.254,-4.073L338.561,5.117C338.11,5.148 337.782,5.558 337.849,6.006C339.349,15.96 351.793,112.592 273.958,138.905C273.958,138.905 175.783,174.23 129.615,108.932C129.449,108.697 129.165,108.575 128.88,108.618C122.929,109.531 61.281,118.994 31.095,123.762C21.887,125.217 16.104,133.048 15.163,142.32C11.231,181.119 9.076,252.44 0.745,269.356C0.745,269.356 29.299,274.136 167.764,273.108C175.39,273.052 186.652,274.957 193.69,277.893C216.708,287.491 269.068,311.305 296.741,333.139C296.741,333.139 300.049,337.565 301.6,343.747C301.795,344.521 302.448,345.094 303.238,345.2C335.142,349.419 509.166,352.255 697.459,318.687C697.614,318.658 697.71,318.504 697.667,318.354C697.214,316.751 695.325,308.572 701.68,301.647C702.126,301.161 702.598,300.7 703.127,300.212C705.716,297.821 708.577,295.742 711.636,293.991L836.18,223.238C836.333,223.151 836.377,222.951 836.271,222.809Z" style="fill:none;fill-rule:nonzero;stroke:rgb(0,154,219);stroke-width:1px;stroke-miterlimit:10;"/>
                        </g>
                        <g transform="matrix(1,0,0,-1,279.705,885.566)">
                            <path d="M836.093,359.374C826.529,359.886 518.69,376.27 505.514,376.752C505.514,376.752 500.935,351.59 498.992,330.81C498.736,328.081 498.669,325.347 498.767,322.608C499.545,300.837 503.847,196.98 516.029,170.464C516.096,170.32 516.235,170.23 516.392,170.221L851.937,152.249C852.219,152.233 852.476,152.394 852.578,152.657C853.599,155.283 858.971,169.48 862.498,186.315C862.914,188.303 863.243,190.304 863.489,192.32C865.242,206.719 873.239,274.197 872.256,299.532C872.161,301.984 871.649,304.39 870.764,306.676C866.972,316.468 856.013,344.567 836.509,359.22C836.386,359.313 836.247,359.365 836.093,359.374" style="fill:rgb(194,224,239);fill-rule:nonzero;"/>
                        </g>
                        <g transform="matrix(1,0,0,-1,279.705,885.566)">
                            <path d="M836.093,359.374C826.529,359.886 518.69,376.27 505.514,376.752C505.514,376.752 500.935,351.59 498.992,330.81C498.736,328.081 498.669,325.347 498.767,322.608C499.545,300.837 503.847,196.98 516.029,170.464C516.096,170.32 516.235,170.23 516.392,170.221L851.937,152.249C852.219,152.233 852.476,152.394 852.578,152.657C853.599,155.283 858.971,169.48 862.498,186.315C862.914,188.303 863.243,190.304 863.489,192.32C865.242,206.719 873.239,274.197 872.256,299.532C872.161,301.984 871.649,304.39 870.764,306.676C866.972,316.468 856.013,344.567 836.509,359.22C836.386,359.313 836.247,359.365 836.093,359.374Z" style="fill:none;fill-rule:nonzero;stroke:rgb(0,154,219);stroke-width:1px;stroke-miterlimit:10;"/>
                        </g>
                        <g transform="matrix(1,0,0,-1,263.391,721.121)">
                            <path d="M803.776,179.801C804.397,180.665 804.348,181.842 803.742,182.716C801.698,185.665 796.737,192.121 786.757,192.744C786.757,192.744 777.84,193.772 771.842,184.565C771.435,183.941 771.31,183.169 771.487,182.445C772.007,180.313 773.961,176.015 781.304,173.249C783.943,172.256 786.806,172.011 789.584,172.498C793.877,173.25 800.43,175.134 803.776,179.801Z" style="fill:none;fill-rule:nonzero;stroke:rgb(0,154,219);stroke-width:1px;stroke-miterlimit:10;"/>
                        </g>
                        <g transform="matrix(0.0626866,-0.998033,0.998033,0.0626866,1047.49,525.549)">
                            <path d="M-2.657,2.829L3.012,2.829" style="fill:none;fill-rule:nonzero;stroke:rgb(0,154,219);stroke-width:1px;stroke-miterlimit:10;"/>
                        </g>
                        <g transform="matrix(1,0,0,-1,278.507,728.072)">
                            <path d="M561.656,180.295C561.656,180.295 534.618,183.163 519.052,182.971C519.052,182.971 518.672,184.841 518.754,186.962C518.834,189.015 520.014,190.868 521.795,191.884L522.106,192.062C523.052,192.601 524.121,192.876 525.209,192.853C530.225,192.752 545.586,192.329 557.477,190.845C558.586,190.706 559.638,190.269 560.494,189.551L560.538,189.515C561.718,188.517 562.443,187.074 562.578,185.532C562.707,184.038 562.61,182.066 561.656,180.295Z" style="fill:none;fill-rule:nonzero;stroke:rgb(0,154,219);stroke-width:1px;stroke-miterlimit:10;"/>
                        </g>
                    </g>
                </g>
            </g>
        </g>
    </g>
    <g transform="matrix(1,0,0,1,-295.877,-315.877)">
        <g opacity="0.81">
            <g>
                <clipPath id="_clip3">
                    <rect x="1496.51" y="357.689" width="402.549" height="348.623"/>
                </clipPath>
                <g clip-path="url(#_clip3)">
                    <g>
                        <g>
                            <clipPath id="_clip4">
                                <rect x="1496.5" y="357.5" width="402.75" height="349" clip-rule="nonzero"/>
                            </clipPath>
                            <g clip-path="url(#_clip4)">
                                <g transform="matrix(1,0,0,-1,1496.51,707.275)">
                                    <path d="M7.671,349.001C7.671,349.001 47.194,295.927 187.682,291.684C244.67,289.963 350.549,298.866 394.732,349.578C394.732,349.578 400.944,337.476 401.175,316.73C405.536,247.529 398.356,61.944 395.331,24.162C395.316,23.984 395.194,23.834 395.023,23.784C389.732,22.24 312.694,3.006 200.051,1.046C140.395,0.009 76.894,9.245 8.255,23.744C7.911,23.816 7.659,24.112 7.642,24.464C7.003,37.816 -4.07,271.52 1.631,323.242C1.631,323.242 4.506,344.795 7.671,349.001Z" style="fill:rgb(239,194,194);fill-rule:nonzero;stroke:rgb(255,0,0);stroke-width:1px;stroke-miterlimit:10;"/>
                                </g>
                                <g transform="matrix(1,0,0,-1,1480.09,952.506)">
                                    <path d="M170.658,323.392L266.906,322.872C268.13,322.87 268.922,321.577 268.367,320.486C267.355,318.492 265.251,315.878 263.028,313.153C259.433,308.744 253.641,306.165 248.028,305.239C236.897,303.404 213.514,300.88 186.037,305.674C182.089,306.363 178.377,308.039 175.261,310.561C172.584,312.729 169.65,315.69 168.005,319.209C167.093,321.159 168.505,323.397 170.658,323.392Z" style="fill:rgb(239,194,194);fill-rule:nonzero;stroke:rgb(255,0,0);stroke-width:1px;stroke-miterlimit:10;"/>
                                </g>
                            </g>
                        </g>
                    </g>
                </g>
            </g>
        </g>
    </g>
</svg>
