<?xml version="1.0" encoding="UTF-8" standalone="no"?>
<!DOCTYPE svg PUBLIC "-//W3C//DTD SVG 1.1//EN" "http://www.w3.org/Graphics/SVG/1.1/DTD/svg11.dtd">
<svg width="100%" height="100%" viewBox="0 0 36 33" version="1.1" xmlns="http://www.w3.org/2000/svg" xmlns:xlink="http://www.w3.org/1999/xlink" xml:space="preserve" xmlns:serif="http://www.serif.com/" style="fill-rule:evenodd;clip-rule:evenodd;stroke-miterlimit:10;">
    <g transform="matrix(1,0,0,-1,-624.487,73.4072)">
        <path d="M629.47,43.897C628.109,43.898 627.004,44.948 627.003,46.236C626.999,51.73 626.999,57.224 627.002,62.718C627.003,64.035 628.109,65.077 629.517,65.081C631.33,65.087 633.143,65.086 634.955,65.085C635.713,65.084 636.47,65.084 637.227,65.084C639.492,65.084 641.757,65.087 644.023,65.079L642.734,63.594L632.762,63.594L632.762,45.372L649.345,45.372C651.294,45.372 653.243,45.37 655.191,45.373C655.875,45.374 656.272,45.723 656.272,46.344C656.275,51.775 656.275,57.206 656.272,62.637C656.272,63.25 655.883,63.605 655.227,63.611C654.971,63.614 654.714,63.613 654.457,63.612C654.093,63.611 653.729,63.609 653.366,63.617L654.666,65.123C655.123,65.087 655.543,65.096 655.942,65.015C657.026,64.795 657.836,63.835 657.837,62.787C657.842,57.263 657.842,51.738 657.837,46.213C657.836,44.946 656.723,43.898 655.378,43.897C651.06,43.896 646.742,43.895 642.425,43.895C638.106,43.895 633.788,43.896 629.47,43.897ZM628.567,51.532C628.567,49.818 628.565,48.105 628.568,46.391C628.568,45.819 628.866,45.429 629.404,45.392C629.985,45.352 630.571,45.383 631.164,45.383L631.164,53.741L628.567,53.741L628.567,51.532ZM629.741,63.612C628.915,63.611 628.567,63.286 628.567,62.513C628.566,60.194 628.567,57.875 628.567,55.555L628.567,55.244L631.161,55.244L631.161,63.613C630.875,63.613 630.595,63.613 630.319,63.613C630.125,63.613 629.933,63.613 629.741,63.612ZM646.787,53.25C646.421,53.252 646.183,53.451 646.183,53.743C646.184,54.036 646.421,54.231 646.788,54.234C647.152,54.236 647.517,54.234 647.881,54.234C648.246,54.234 648.61,54.236 648.975,54.233C649.34,54.23 649.579,54.034 649.579,53.742C649.579,53.451 649.34,53.252 648.974,53.25C648.61,53.249 648.245,53.248 647.881,53.248C647.516,53.248 647.152,53.249 646.787,53.25ZM635.961,53.249C635.511,53.249 635.267,53.42 635.262,53.736C635.257,54.059 635.505,54.234 635.97,54.234C637.292,54.234 638.613,54.234 639.935,54.234C641.286,54.234 642.638,54.235 643.989,54.234C644.343,54.233 644.56,54.083 644.598,53.821C644.638,53.546 644.486,53.334 644.196,53.272C644.105,53.253 644.009,53.25 643.914,53.25C642.232,53.249 640.549,53.249 638.867,53.249C637.898,53.249 636.93,53.249 635.961,53.249ZM639.751,55.808C639.776,55.935 639.866,56.059 639.953,56.165C641.412,57.933 642.875,59.698 644.336,61.463C644.948,62.202 645.559,62.941 646.173,63.678C646.222,63.737 646.291,63.782 646.364,63.844C646.008,64.106 645.698,64.333 645.389,64.562C645.018,64.836 644.986,65.087 645.279,65.442C646.222,66.583 647.167,67.724 648.113,68.864C648.171,68.933 648.236,69.001 648.311,69.055C648.496,69.19 648.761,69.18 648.94,69.04C649.111,68.907 649.175,68.674 649.082,68.482C649.041,68.395 648.98,68.315 648.918,68.239C648.11,67.26 647.3,66.283 646.489,65.306C646.44,65.248 646.373,65.203 646.329,65.164C647.605,64.223 648.841,63.311 650.06,62.413C651.312,63.925 652.577,65.454 653.867,67.014C653.788,67.063 653.673,67.125 653.57,67.201C652.33,68.111 651.089,69.02 649.857,69.94C649.724,70.039 649.595,70.196 649.559,70.347C649.472,70.708 649.878,71 650.243,70.858C650.342,70.82 650.433,70.756 650.519,70.694C651.949,69.643 653.378,68.593 654.804,67.537C654.927,67.446 655.02,67.32 655.127,67.21C655.136,67.141 655.145,67.073 655.154,67.005C655.073,66.868 655.008,66.719 654.907,66.596C653.507,64.899 652.103,63.205 650.699,61.511C650.36,61.101 650.127,61.075 649.689,61.397C648.911,61.97 648.133,62.542 647.355,63.114C647.293,63.16 647.228,63.203 647.181,63.236C645.475,61.176 643.778,59.126 642.08,57.074C642.712,57.351 643.352,57.632 643.992,57.912C645.149,58.419 646.304,58.929 647.463,59.431C647.589,59.486 647.652,59.551 647.678,59.682C647.759,60.101 647.853,60.518 647.948,60.934C647.996,61.147 648.127,61.296 648.362,61.339C648.566,61.377 648.759,61.325 648.86,61.158C648.933,61.036 648.979,60.867 648.956,60.732C648.859,60.183 648.731,59.639 648.615,59.093C648.567,58.864 648.394,58.752 648.186,58.661C646.281,57.829 644.377,56.994 642.472,56.16C641.811,55.871 641.153,55.576 640.486,55.297C640.404,55.262 640.321,55.246 640.242,55.246C639.934,55.246 639.688,55.49 639.751,55.808Z" style="fill:rgb(37,169,224);fill-rule:nonzero;stroke:rgb(47,170,225);stroke-width:0.5px;"/>
    </g>
</svg>
