<?xml version="1.0" encoding="UTF-8"?>
<svg id="Layer_2" data-name="Layer 2" xmlns="http://www.w3.org/2000/svg" viewBox="0 0 480.4 416.31">
  <g id="Layer_1-2" data-name="Layer 1">
    <g>
      <path d="M84.93,400.36l-20.78-58.75.23-5.31,88.54-89.45c-4.8-4.89-11.18-8.94-6.44-16.46L358.91,17.85c61.3-51.59,148.94,18.05,113.19,89.19-6.75,13.43-40.18,47.09-52.65,57.35-21.43,17.62-44.83,3.08-61.02,14.98l-131,131c-3.26,2.79-6.92,2.68-10.46.45-2.14-1.35-4.61-6.26-7.04-5.01l-110.26,109.8-93.19.7c-10.29-1.61-6.54-15.94-1.06-15.94h79.5ZM438.34,122.78c8.74-9.39,17.14-16.02,22.07-28.43,18.44-46.5-26.4-92.64-73.18-75.18-12.58,4.7-22.49,15.34-31.96,24.54-60.85,59.15-119.08,121.34-179.82,180.68-2.24,2.19-11.05,7.83-10.37,11.33l57.21,56.57,128.7-127.36c15.52-12.34,38.08-1.63,53.99-10.01,9.31-4.91,25.56-23.75,33.36-32.14ZM184.94,307.36c2.2-1.8,14.2-12.73,13.92-14.36l-26.92-26.64,13,41ZM155.92,268.37c-1.52-.41-1.66.4-2.51.98-1.93,1.33-14.31,14.08-14.3,15.32l16.82,51.7,16.65-16.48-16.67-51.52ZM126.92,297.37c-1.52-.41-1.66.4-2.51.98-1.52,1.05-14.04,13.48-14.15,14.49l17.17,51.53,16.15-15.49-16.67-51.52ZM98.94,393.36c2.61-2.37,15.83-14.1,15.8-16.3l-17.3-51.69-16.17,16.47,17.67,51.52Z"/>
      <path d="M392.64,31.58c1.46-.34,3.29-.48,4.75-.21,4.51.86,22.07,22.75,27.59,26.44,1.8,2.85,1.31,6.86-.6,9.51l-47.46,47.54c-4.06,18.87-14.29,28.79-33.05,32.95l-104.44,104.56c-3.41,2.87-7.84,2.72-11.46.45-1.89-1.19-23.13-22.54-23.92-24.08-1.5-2.92-1.92-7.01-.18-9.93l106.1-105.9c2.86-18.54,14.3-29.08,32.46-32.54,15.69-12.64,30.82-34.93,46.47-46.53,1.25-.93,2.04-1.88,3.73-2.27ZM395.43,50.38l-8.16,8.46,6.16,16.5,13.48-13.48-11.48-11.48ZM374.92,71.37l-14.97,14.5c4.53,3.36,8.12,6.96,11.48,11.48l8.35-8.69-4.86-17.3ZM359.7,113.94c0-9.1-7.38-16.48-16.48-16.48s-16.48,7.38-16.48,16.48,7.38,16.48,16.48,16.48,16.48-7.38,16.48-16.48ZM326.93,141.38c-4.92-1.83-9.19-6.11-11.02-11.02-.45-.31-7.65,6.79-8.04,7.45-2.6,4.41,3.62,13.49,4.07,18.55l14.99-14.98ZM282.94,185.36l15.84-15.72-4.87-17.27-15.84,15.72,4.87,17.27ZM253.94,214.36l16.65-16.47-5.67-16.52-15.84,15.72c-.97,3.59,4.54,12.99,4.87,17.27ZM235.43,210.38l-13.48,13.48,11.48,11.48,8.16-8.46-6.16-16.5Z"/>
    </g>
  </g>
</svg>