<?xml version="1.0" encoding="UTF-8"?>
<svg id="Layer_1" data-name="Layer 1" xmlns="http://www.w3.org/2000/svg" width="128.918mm" height="229.124mm" viewBox="0 0 365.435 649.485">
  <defs>
    <style>
      .cls-1 {
        stroke: #ced4da;
        stroke-dasharray: 8 10;
        stroke-width: 3px;
      }

      .cls-1, .cls-2, .cls-3 {
        fill: none;
        stroke-linecap: round;
      }

      .cls-4 {
        fill: #1e1e1e;
      }

      .cls-2 {
        stroke-width: 10px;
      }

      .cls-2, .cls-3 {
        stroke: #1e1e1e;
      }

      .cls-5 {
        fill: #ced4da;
      }

      .cls-6, .cls-7, .cls-8 {
        isolation: isolate;
      }

      .cls-3 {
        stroke-width: 2.5px;
      }

      .cls-7 {
        font-size: 12.073px;
      }

      .cls-7, .cls-8 {
        fill: #25a9e0;
        font-family: MyriadPro-Regular, 'Myriad Pro';
      }

      .cls-8 {
        font-size: 51.766px;
      }
    </style>
  </defs>
  <g>
    <path class="cls-5" d="M2.97,81.909l317.01-.61.68,479.87-319.59,1.09"/>
    <path class="cls-1" d="M1.5,81.329c109.08-2.67,219.29-3.61,320,0M321.5,81.329c-.63,189.61-1.77,378.43,0,480M321.5,561.329c-101.25-1.01-202.84-2.57-320,0M1.5,561.329c.25-117.09,2.05-299.63,0-480"/>
  </g>
  <g>
    <path class="cls-4" d="M233.5,1.329c25.65-2.96,48.61.45,96,0,17.6-1.9,34.36,13.56,34,40-4.03,171.69-4.55,339.59,0,566.5,2.65,28.31-10.27,41.69-34,40-29.69-.98-51.06,2.66-96,0-27.82,2.28-43.96-10.64-40-40,1.53-176.95,1.54-357.14,0-566.5-3.58-30.3,16.79-39.95,40-40"/>
    <path class="cls-3" d="M233.5,1.329c36.19.38,67.91,2.09,96,0M233.5,1.329c23.8.24,44,.21,96,0M329.5,1.329C348.41,0,363.89,15.519,363.5,41.329M329.5,1.329c17.83,1.36,32.19,13.2,34,40M363.5,41.329c1.85,199.03-.71,396.43,0,566.5M363.5,41.329c.1,198.73-.01,397.85,0,566.5M363.5,607.829c-.84,24.81-13.58,38.73-34,40M363.5,607.829c-3.12,28.5-15.83,42.01-34,40M329.5,647.829c-32.61-2.24-58.95,1.61-96,0M329.5,647.829c-41.39-.59-74.06-1.51-96,0M233.5,647.829c-28.04.2-41.88-11.51-40-40M233.5,647.829c-27.32.38-41.76-10.84-40-40M193.5,607.829c-1-128.8-1.29-257.32,0-566.5M193.5,607.829c1.03-123.2,2.08-246.76,0-566.5M193.5,41.329c1.09-28.72,15.34-40.91,40-40M193.5,41.329c-.68-27.3,11.44-38.67,40-40"/>
  </g>
  <g class="cls-6">
    <g class="cls-6">
      <text class="cls-7" transform="translate(15.682 557.067)"><tspan x="0" y="0">(0 , 0)</tspan></text>
    </g>
  </g>
  <g class="cls-6">
    <g class="cls-6">
      <text class="cls-8" transform="translate(5.946 427.608)"><tspan x="0" y="0">Y</tspan></text>
    </g>
  </g>
  <g class="cls-6">
    <text class="cls-8" transform="translate(154.541 557.067)"><tspan x="0" y="0">X</tspan></text>
  </g>
  <g>
    <polyline class="cls-2" points="19.21 447.347 19.21 542.458 144.247 542.458"/>
    <polygon class="cls-2" points="19.209 441.079 13.099 450.284 25.321 450.284 19.209 441.079"/>
    <polygon class="cls-2" points="150.896 542.457 141.691 536.348 141.691 548.569 150.896 542.457"/>
  </g>
</svg>