<?xml version="1.0" encoding="UTF-8" standalone="no"?>
<!DOCTYPE svg PUBLIC "-//W3C//DTD SVG 1.1//EN" "http://www.w3.org/Graphics/SVG/1.1/DTD/svg11.dtd">
<svg width="100%" height="100%" viewBox="0 0 179 29" version="1.1" xmlns="http://www.w3.org/2000/svg" xmlns:xlink="http://www.w3.org/1999/xlink" xml:space="preserve" xmlns:serif="http://www.serif.com/" style="fill-rule:evenodd;clip-rule:evenodd;stroke-linejoin:round;stroke-miterlimit:2;">
    <g transform="matrix(1,0,0,-1,0,29)">
        <path d="M0,7L0,22C0,22.46 0.045,22.915 0.135,23.366C0.224,23.816 0.357,24.254 0.533,24.679C0.709,25.103 0.924,25.507 1.18,25.889C1.435,26.271 1.725,26.625 2.05,26.95C2.375,27.275 2.729,27.565 3.111,27.82C3.493,28.076 3.897,28.291 4.321,28.467C4.746,28.643 5.184,28.776 5.634,28.865C6.085,28.955 6.54,29 7,29L172,29C172.46,29 172.915,28.955 173.366,28.865C173.816,28.776 174.254,28.643 174.679,28.467C175.103,28.291 175.507,28.076 175.889,27.82C176.271,27.565 176.625,27.275 176.95,26.95C177.275,26.625 177.565,26.271 177.82,25.889C178.076,25.507 178.291,25.103 178.467,24.679C178.643,24.254 178.776,23.816 178.865,23.366C178.955,22.915 179,22.46 179,22L179,7C179,6.54 178.955,6.085 178.865,5.634C178.776,5.184 178.643,4.746 178.467,4.321C178.291,3.897 178.076,3.493 177.82,3.111C177.565,2.729 177.275,2.375 176.95,2.05C176.625,1.725 176.271,1.435 175.889,1.18C175.507,0.924 175.103,0.709 174.679,0.533C174.254,0.357 173.816,0.224 173.366,0.135C172.915,0.045 172.46,0 172,0L7,0C6.54,0 6.085,0.045 5.634,0.135C5.184,0.224 4.746,0.357 4.321,0.533C3.897,0.709 3.493,0.924 3.111,1.18C2.729,1.435 2.375,1.725 2.05,2.05C1.725,2.375 1.435,2.729 1.18,3.111C0.924,3.493 0.709,3.897 0.533,4.321C0.357,4.746 0.224,5.184 0.135,5.634C0.045,6.085 0,6.54 0,7Z" style="fill:white;fill-rule:nonzero;"/>
    </g>
</svg>
