<?xml version="1.0" encoding="UTF-8" standalone="no"?>
<!DOCTYPE svg PUBLIC "-//W3C//DTD SVG 1.1//EN" "http://www.w3.org/Graphics/SVG/1.1/DTD/svg11.dtd">
<svg width="100%" height="100%" viewBox="0 0 35 28" version="1.1" xmlns="http://www.w3.org/2000/svg" xmlns:xlink="http://www.w3.org/1999/xlink" xml:space="preserve" xmlns:serif="http://www.serif.com/" style="fill-rule:evenodd;clip-rule:evenodd;stroke-linejoin:round;stroke-miterlimit:2;">
    <g transform="matrix(1,0,0,1,-57,-39.9994)">
        <g>
            <g transform="matrix(1,0,0,-1,57,45.8561)">
                <path d="M3.424,5.823C1.949,6.046 0.563,5.153 0.126,3.709L0,3.334L0,2.483L0.136,1.944C0.536,0.669 1.707,-0.19 2.966,-0.19C3.105,-0.19 3.246,-0.18 3.386,-0.158C4.884,0.073 5.976,1.33 5.982,2.831C5.989,4.317 4.889,5.603 3.424,5.823" style="fill:rgb(37,169,224);fill-rule:nonzero;"/>
            </g>
            <g transform="matrix(1,0,0,-1,57,94.4999)">
                <path d="M4.321,33.23C3.061,33.868 1.578,33.549 0.714,32.46C0.479,32.162 0.34,31.829 0.217,31.535C0.171,31.426 0.127,31.318 0.076,31.213L0,31.057L0,30.03L0.112,29.699C0.486,28.408 1.675,27.5 2.969,27.5C3.008,27.5 3.048,27.502 3.088,27.503C4.47,27.563 5.631,28.542 5.913,29.884C6.197,31.238 5.542,32.614 4.321,33.23" style="fill:rgb(37,169,224);fill-rule:nonzero;"/>
            </g>
            <g transform="matrix(1,0,0,-1,57,70.2248)">
                <path d="M3.484,19.712C2.003,19.953 0.594,19.078 0.134,17.625C0.12,17.578 0.102,17.533 0.084,17.488L0,17.263L0,16.197L0.086,15.965C0.104,15.922 0.121,15.878 0.136,15.833C0.543,14.543 1.7,13.707 2.992,13.707C3.155,13.707 3.319,13.72 3.484,13.747C4.89,13.977 5.964,15.249 5.981,16.704C5.998,18.184 4.925,19.477 3.484,19.712" style="fill:rgb(37,169,224);fill-rule:nonzero;"/>
            </g>
            <g transform="matrix(1,0,0,-1,54.3427,70.6171)">
                <path d="M35.029,19.566L13.05,19.566C12.879,19.566 12.707,19.559 12.539,19.538C11.544,19.42 10.745,18.722 10.504,17.761C10.26,16.789 10.539,15.896 11.287,15.248C11.875,14.737 12.554,14.676 13.015,14.676L13.023,14.676L34.937,14.679C35.142,14.679 35.383,14.682 35.634,14.72C36.264,14.815 36.842,15.183 37.218,15.728C37.596,16.275 37.738,16.955 37.606,17.59C37.35,18.828 36.386,19.566 35.029,19.566" style="fill:rgb(37,169,224);fill-rule:nonzero;"/>
            </g>
            <g transform="matrix(1,0,0,-1,54.3411,45.9108)">
                <path d="M12.93,0.586C15.627,0.583 18.326,0.585 21.019,0.585L28.992,0.585C29.668,0.584 30.344,0.584 31.02,0.584C32.427,0.584 33.834,0.585 35.241,0.589C36.459,0.592 37.441,1.447 37.631,2.669C37.812,3.845 37.104,4.992 35.983,5.339C35.613,5.452 35.242,5.467 34.961,5.467C28.133,5.472 21.303,5.471 14.477,5.471L13.04,5.471C12.927,5.472 12.817,5.471 12.706,5.465C11.504,5.39 10.55,4.474 10.437,3.286C10.369,2.567 10.579,1.894 11.03,1.392C11.496,0.873 12.17,0.587 12.93,0.586" style="fill:rgb(37,169,224);fill-rule:nonzero;"/>
            </g>
            <g transform="matrix(1,0,0,-1,54.3419,95.3199)">
                <path d="M35.12,33.654L24.064,33.656L24.064,33.654L20.948,33.655C18.246,33.655 15.545,33.656 12.843,33.652C11.651,33.65 10.647,32.811 10.457,31.657C10.254,30.428 10.931,29.272 12.068,28.908C12.35,28.818 12.677,28.774 13.064,28.774C19.568,28.77 26.071,28.768 32.574,28.77L35.117,28.77C35.209,28.77 35.303,28.771 35.394,28.777C36.136,28.833 36.803,29.215 37.222,29.827C37.64,30.436 37.761,31.195 37.554,31.912C37.242,32.986 36.31,33.654 35.12,33.654" style="fill:rgb(37,169,224);fill-rule:nonzero;"/>
            </g>
        </g>
    </g>
</svg>
