<?xml version="1.0" encoding="UTF-8" standalone="no"?>
<!DOCTYPE svg PUBLIC "-//W3C//DTD SVG 1.1//EN" "http://www.w3.org/Graphics/SVG/1.1/DTD/svg11.dtd">
<svg width="100%" height="100%" viewBox="0 0 34 35" version="1.1" xmlns="http://www.w3.org/2000/svg" xmlns:xlink="http://www.w3.org/1999/xlink" xml:space="preserve" xmlns:serif="http://www.serif.com/" style="fill-rule:evenodd;clip-rule:evenodd;stroke-linejoin:round;stroke-miterlimit:2;">
    <g transform="matrix(1,0,0,-1,-1105.14,33.436)">
        <path d="M1136.2,-1.564C1135.61,-1.348 1135.21,-0.903 1134.79,-0.46C1132.3,2.18 1129.79,4.81 1127.31,7.451C1127.11,7.663 1126.98,7.684 1126.73,7.518C1123.64,5.461 1120.26,4.745 1116.62,5.403C1110.92,6.432 1106.46,10.924 1105.38,16.675C1104.02,23.963 1108.54,31.178 1115.61,32.998C1123.38,34.999 1131.29,29.934 1132.74,21.969C1133.51,17.734 1132.55,13.888 1129.94,10.482C1129.88,10.401 1129.81,10.32 1129.74,10.219C1130.01,9.924 1130.29,9.627 1130.57,9.333C1132.97,6.796 1135.35,4.233 1137.79,1.735C1138.91,0.589 1138.43,-1.185 1137.05,-1.517C1137.04,-1.522 1137.02,-1.548 1137.01,-1.564L1136.2,-1.564ZM1119.07,8.873C1124.74,8.871 1129.33,13.522 1129.34,19.281C1129.35,25.047 1124.75,29.74 1119.07,29.741C1113.41,29.742 1108.8,25.064 1108.79,19.323C1108.79,13.55 1113.38,8.875 1119.07,8.873" style="fill:#000000;fill-rule:nonzero;"/>
    </g>
</svg>
