<?xml version="1.0" encoding="UTF-8" standalone="no"?>
<!DOCTYPE svg PUBLIC "-//W3C//DTD SVG 1.1//EN" "http://www.w3.org/Graphics/SVG/1.1/DTD/svg11.dtd">
<svg width="100%" height="100%" viewBox="0 0 90 90" version="1.1" xmlns="http://www.w3.org/2000/svg" xmlns:xlink="http://www.w3.org/1999/xlink" xml:space="preserve" xmlns:serif="http://www.serif.com/" style="fill-rule:evenodd;clip-rule:evenodd;stroke-linejoin:round;stroke-miterlimit:2;">
    <g transform="matrix(1,0,0,-1,0,90)">
        <path d="M76.82,76.82C68.321,85.319 57.02,90 45,90C32.98,90 21.679,85.319 13.18,76.82C4.681,68.32 0,57.02 0,45C0,32.98 4.681,21.679 13.18,13.18C21.679,4.681 32.98,0 45,0C57.02,0 68.321,4.681 76.82,13.18C85.319,21.679 90,32.98 90,45C90,57.02 85.319,68.32 76.82,76.82M45,3.684C22.218,3.684 3.684,22.218 3.684,45C3.684,67.782 22.218,86.316 45,86.316C67.782,86.316 86.316,67.782 86.316,45C86.316,22.218 67.782,3.684 45,3.684" style="fill:rgb(37,169,224);fill-rule:nonzero;"/>
    </g>
    <g transform="matrix(1,0,0,-1,-65.8596,187.198)">
        <path d="M90.833,149.569L90.833,147.992C90.833,139.781 90.817,131.567 90.856,123.356C90.862,122.419 90.61,122.18 89.692,122.216C87.679,122.287 85.659,122.261 83.643,122.222C82.997,122.209 82.809,122.381 82.809,123.039C82.829,135.81 82.829,148.58 82.809,161.35C82.809,161.973 82.951,162.193 83.617,162.18C85.882,162.138 88.147,162.145 90.412,162.18C90.9,162.215 91.37,161.991 91.649,161.589C97.014,154.727 102.39,147.874 107.775,141.031C108.176,140.675 108.212,140.062 107.856,139.662C107.831,139.633 107.804,139.606 107.775,139.581C106.507,138.017 105.239,136.453 104.05,134.83C103.465,134.026 103.171,133.971 102.525,134.801C99.074,139.244 95.559,143.642 92.062,148.053C91.736,148.467 91.396,148.874 90.831,149.569" style="fill:white;fill-rule:nonzero;"/>
    </g>
    <g transform="matrix(1,0,0,-1,-155.699,183.618)">
        <path d="M228.731,152.629C228.731,150.984 228.689,149.339 228.747,147.698C228.777,146.845 228.514,146.537 227.637,146.563C225.825,146.621 224.009,146.54 222.199,146.602C221.502,146.654 220.831,146.324 220.447,145.74C214.677,138.349 208.891,130.971 203.091,123.605C201.879,122.27 199.813,122.17 198.478,123.383C198.429,123.427 198.382,123.473 198.335,123.521C197.595,124.454 196.913,125.436 196.126,126.332C195.609,126.92 195.686,127.308 196.152,127.893C202.281,135.628 208.395,143.375 214.492,151.133C216.25,153.363 218.015,155.586 219.74,157.835C220.077,158.35 220.666,158.642 221.28,158.6C223.465,158.554 225.65,158.558 227.834,158.6C228.542,158.612 228.761,158.38 228.746,157.685C228.7,155.999 228.731,154.311 228.731,152.629" style="fill:rgb(37,169,224);fill-rule:nonzero;"/>
    </g>
    <g transform="matrix(1,0,0,-1,-252.3,265.203)">
        <path d="M317.254,212.254C317.254,215.866 317.277,219.482 317.235,223.095C317.226,223.909 317.365,224.251 318.289,224.219C320.305,224.145 322.325,224.168 324.341,224.213C325.071,224.229 325.337,224.054 325.334,223.267C325.302,215.915 325.299,208.565 325.328,201.216C325.328,200.499 325.201,200.195 324.39,200.221C322.377,200.279 320.354,200.282 318.341,200.221C317.495,200.194 317.22,200.401 317.232,201.29C317.286,204.945 317.254,208.6 317.254,212.254" style="fill:white;fill-rule:nonzero;"/>
    </g>
</svg>
