<?xml version="1.0" encoding="UTF-8" standalone="no"?>
<!DOCTYPE svg PUBLIC "-//W3C//DTD SVG 1.1//EN" "http://www.w3.org/Graphics/SVG/1.1/DTD/svg11.dtd">
<svg width="100%" height="100%" viewBox="0 0 30 36" version="1.1" xmlns="http://www.w3.org/2000/svg" xmlns:xlink="http://www.w3.org/1999/xlink" xml:space="preserve" xmlns:serif="http://www.serif.com/" style="fill-rule:evenodd;clip-rule:evenodd;stroke-linejoin:round;stroke-miterlimit:2;">
    <g transform="matrix(1,0,0,-1,-623.458,738.776)">
        <path d="M638.05,716.399C637.887,716.175 637.805,716.024 637.688,715.907C633.841,712.062 629.988,708.223 626.143,704.375C625.651,703.882 625.112,703.631 624.423,703.878C623.855,704.083 623.496,704.595 623.476,705.197C623.472,705.319 623.475,705.44 623.475,705.562C623.475,716.05 623.486,726.538 623.458,737.026C623.455,738.055 624.108,738.78 625.222,738.776C633.815,738.744 642.407,738.758 650.999,738.758C652.125,738.758 652.674,738.211 652.674,737.087C652.674,726.553 652.671,716.02 652.681,705.486C652.681,704.762 652.468,704.191 651.783,703.901C651.075,703.601 650.505,703.871 649.985,704.392C646.165,708.221 642.333,712.039 638.507,715.862C638.378,715.99 638.27,716.139 638.05,716.399" style="fill:rgb(37,169,224);fill-rule:nonzero;"/>
    </g>
</svg>
