<?xml version="1.0" encoding="UTF-8"?>
<svg id="Layer_1" xmlns="http://www.w3.org/2000/svg" version="1.1" viewBox="0 0 2765.5 1232">
  <!-- Generator: Adobe Illustrator 29.4.0, SVG Export Plug-In . SVG Version: 2.1.0 Build 152)  -->
  <defs>
    <style>
      .st0 {
        fill: #1e1e1e;
      }

      .st1 {
        fill: #25a9e0;
        font-family: ArialMT, Arial;
        font-size: 30px;
      }

      .st1, .st2 {
        isolation: isolate;
      }

      .st3 {
        fill: none;
        stroke: #1e1e1e;
        stroke-width: 10px;
      }
    </style>
  </defs>
  <g class="st2">
    <g class="st2">
      <g class="st2">
        <text class="st1" transform="translate(2442.5 1213.9) rotate(1.5) scale(1.7 1) skewX(.1)"><tspan x="0" y="0">(0 , 0)</tspan></text>
      </g>
    </g>
  </g>
  <g class="st2">
    <g class="st2">
      <g class="st2">
        <text class="st1" transform="translate(180.6 1183.5) rotate(-2.1) scale(1.7 1) skewX(-1.9)"><tspan x="0" y="0">Y</tspan></text>
      </g>
    </g>
  </g>
  <g class="st2">
    <g class="st2">
      <g class="st2">
        <g class="st2">
          <text class="st1" transform="translate(2555.7 321.1) rotate(-2.1) scale(1.7 1) skewX(-1.9)"><tspan x="0" y="0">x</tspan></text>
        </g>
      </g>
    </g>
  </g>
  <g>
    <line class="st3" x1="224.3" y1="1173.1" x2="2567.9" y2="1173.1"/>
    <polygon class="st0" points="244.2 1190.1 227.2 1173.1 244.2 1156.2 229.8 1156.2 212.8 1173.1 229.8 1190.1 244.2 1190.1"/>
  </g>
  <g>
    <line class="st3" x1="2567.9" y1="332.5" x2="2567.9" y2="1173.1"/>
    <polygon class="st0" points="2551 352.5 2567.9 335.5 2584.9 352.5 2584.9 338.1 2567.9 321.1 2551 338.1 2551 352.5"/>
  </g>
  <path class="st0" d="M2674.9,155.1H90.6c-39.1,0-70.8,26.2-70.8,65.3v6.1c0,36.2,27.2,66,62.2,70.2h-.3s0,864.5,0,864.5c0,18.6,15,33.6,33.6,33.6s17.7-3.8,23.8-9.8c6.1-6.1,9.8-14.5,9.8-23.8V297.3h2461.7v864c0,18.6,15,33.6,33.6,33.6s17.7-3.8,23.8-9.8c6.1-6.1,9.8-14.5,9.8-23.8V297.2c37.7-1.5,67.9-32.6,67.9-70.7v-.6c0-39.1-31.7-70.8-70.8-70.8ZM2543.4,168.4c11.8,0,21.3,9.6,21.3,21.3s-9.6,21.3-21.3,21.3-21.3-9.6-21.3-21.3,9.5-21.3,21.3-21.3ZM2458.1,168.4c11.8,0,21.3,9.6,21.3,21.3s-9.6,21.3-21.3,21.3-21.3-9.6-21.3-21.3,9.6-21.3,21.3-21.3ZM2372.8,168.4c11.8,0,21.3,9.6,21.3,21.3s-9.6,21.3-21.3,21.3-21.3-9.6-21.3-21.3,9.6-21.3,21.3-21.3ZM1848.1,265.6H185.4v-25.7h1662.7v25.7ZM2614.1,265.6h-697.3v-25.7h697.3v25.7Z"/>
</svg>