<?xml version="1.0" encoding="UTF-8" standalone="no"?>
<!DOCTYPE svg PUBLIC "-//W3C//DTD SVG 1.1//EN" "http://www.w3.org/Graphics/SVG/1.1/DTD/svg11.dtd">
<svg width="100%" height="100%" viewBox="0 0 145 119" version="1.1" xmlns="http://www.w3.org/2000/svg" xmlns:xlink="http://www.w3.org/1999/xlink" xml:space="preserve" xmlns:serif="http://www.serif.com/" style="fill-rule:evenodd;clip-rule:evenodd;stroke-linejoin:round;stroke-miterlimit:2;">
    <g transform="matrix(1,0,0,-1,0,119)">
        <path d="M0,10L0,109C0,109.657 0.064,110.307 0.192,110.951C0.32,111.595 0.51,112.22 0.761,112.827C1.012,113.433 1.321,114.01 1.685,114.556C2.05,115.102 2.465,115.607 2.929,116.071C3.393,116.535 3.898,116.95 4.444,117.315C4.99,117.679 5.567,117.988 6.173,118.239C6.78,118.49 7.405,118.68 8.049,118.808C8.693,118.936 9.343,119 10,119L135,119C135.657,119 136.307,118.936 136.951,118.808C137.595,118.68 138.22,118.49 138.827,118.239C139.433,117.988 140.01,117.679 140.556,117.315C141.102,116.95 141.607,116.535 142.071,116.071C142.535,115.607 142.95,115.102 143.315,114.556C143.679,114.01 143.988,113.433 144.239,112.827C144.49,112.22 144.68,111.595 144.808,110.951C144.936,110.307 145,109.657 145,109L145,10C145,9.343 144.936,8.693 144.808,8.049C144.68,7.405 144.49,6.78 144.239,6.173C143.988,5.567 143.679,4.99 143.315,4.444C142.95,3.898 142.535,3.393 142.071,2.929C141.607,2.465 141.102,2.05 140.556,1.685C140.01,1.321 139.433,1.012 138.827,0.761C138.22,0.51 137.595,0.32 136.951,0.192C136.307,0.064 135.657,0 135,0L10,0C9.343,0 8.693,0.064 8.049,0.192C7.405,0.32 6.78,0.51 6.173,0.761C5.567,1.013 4.99,1.321 4.444,1.685C3.898,2.05 3.393,2.465 2.929,2.929C2.465,3.393 2.05,3.898 1.685,4.444C1.321,4.99 1.012,5.567 0.761,6.173C0.51,6.78 0.32,7.405 0.192,8.049C0.064,8.693 0,9.343 0,10Z" style="fill:rgb(10,78,107);fill-rule:nonzero;"/>
    </g>
</svg>
