<?xml version="1.0" encoding="UTF-8" standalone="no"?>
<!DOCTYPE svg PUBLIC "-//W3C//DTD SVG 1.1//EN" "http://www.w3.org/Graphics/SVG/1.1/DTD/svg11.dtd">
<svg width="100%" height="100%" viewBox="0 0 37 19" version="1.1" xmlns="http://www.w3.org/2000/svg" xmlns:xlink="http://www.w3.org/1999/xlink" xml:space="preserve" xmlns:serif="http://www.serif.com/" style="fill-rule:evenodd;clip-rule:evenodd;stroke-linejoin:round;stroke-miterlimit:2;">
    <g transform="matrix(1,0,0,1,-224.919,-1041.15)">
        <g>
            <g transform="matrix(1,0,0,-1,224.92,1060.11)">
                <path d="M18.321,0.005C15.412,0.005 12.503,0.001 9.594,0.005C5.019,0.012 1.247,3.026 0.225,7.486C-0.87,12.266 2.133,17.279 6.864,18.587C7.784,18.842 8.714,18.965 9.666,18.964C15.444,18.961 21.223,18.964 27.001,18.962C31.868,18.961 35.788,15.703 36.55,10.902C37.33,5.994 34.134,1.374 29.316,0.248C28.545,0.068 27.762,-0.001 26.969,0.002C24.086,0.009 21.203,0.005 18.321,0.005M27.159,3.165C30.655,3.158 33.499,5.985 33.503,9.469C33.507,12.946 30.688,15.792 27.229,15.803C23.723,15.814 20.874,13.001 20.865,9.52C20.856,6.02 23.678,3.171 27.159,3.165" style="fill:rgb(26,135,203);fill-rule:nonzero;"/>
            </g>
            <g transform="matrix(-0.999985,-0.00551023,0.00551023,-0.999985,455.864,1088.02)">
                <path d="M203.953,29.944C207.435,29.931 210.272,32.765 210.282,36.265C210.293,39.745 207.458,42.574 203.953,42.582C200.493,42.59 197.659,39.76 197.644,36.283C197.629,32.799 200.458,29.957 203.953,29.944" style="fill:rgb(231,236,237);fill-rule:nonzero;"/>
            </g>
        </g>
    </g>
</svg>
