<?xml version="1.0" encoding="UTF-8"?>
<svg id="Layer_2" data-name="Layer 2" xmlns="http://www.w3.org/2000/svg" viewBox="0 0 465.28 480">
  <g id="Layer_1-2" data-name="Layer 1">
    <g>
      <path d="M92.14,80.06c-13.76-2.15-22.19-19.08-19.49-32.01l-64.53.03c-4.52-.33-6.99-3.07-7.5-7.5C-.15,33.99-.29,12.91.7,6.62,1.36,2.36,4.88-.17,9.09,0l449.83.26c3.66,1.1,5.31,3.57,5.74,7.26.83,7.14.83,25.9,0,33.04-.51,4.43-2.98,7.17-7.5,7.5l-64.53-.03c.95,10.81-.81,20.76-10.08,27.42-1.59,1.15-8.02,4.59-9.41,4.59h-36.5v42.5l-55.22,78.78c-2.64,9.89,1.06,23.08-1.21,32.79-.96,4.11-15.84,28.16-19.16,32.84-5.75,8.13-10.22,11.36-20.28,13.22l-.09,96.41c-1.18,9.67-14.91,9.67-16.09,0l-.09-96.41c-6.51-1.53-11.63-3.19-16.4-8.1-3.29-3.39-22.12-34.03-23.04-37.96-2.27-9.72,1.43-22.91-1.21-32.79l-55.22-78.78v-42.5c-11.14-1.24-25.81,1.67-36.5,0ZM16.64,16.06v16h432v-16H16.64ZM88.59,48.06v16.05h288.1v-16.05H88.59ZM320.64,80.06h-176v32h176v-32ZM312.64,128.06h-160l43.99,63.51,71.32.3,44.69-63.81ZM264.64,208.06h-64v22.5c7.08,7.45,12.55,24.62,19.34,31.16,3.41,3.28,18.16,3.13,22.63,1.77,5.5-1.67,16.8-27.74,22.03-32.93v-22.5Z"/>
      <path d="M185.64,432.06l-94.69-35.31c-4.33-5.81-1.84-12.45,5.29-13.68l117.4,40.98-36.34-61.17c-2.88-8.51,7.81-14.83,13.8-7.77,14.32,20.57,25.25,46.16,39.72,66.28.48.66,2.21,3.15,2.81,2.68l40.56-68.95c6.2-7.26,17.06-1.06,14,8l-36.55,60.94,114.75-40.77c10.17-2.23,14.58,10.86,5.26,15.29l-92.01,33.49h155.5c2.09,0,5.09,4.32,5.44,6.56.99,6.31.85,27.37.08,33.96-.4,3.44-1.77,5.7-4.97,7.03l-404.49.39c-4.84-.97-6.2-3.85-6.61-8.39-.64-7.14-.94-26.3.11-32.99.35-2.24,3.35-6.56,5.44-6.56h155.5ZM424.64,448.06H40.64v16h384v-16Z"/>
      <path d="M78.36,320.25c4.39-.96,5.7.59,9,2.58,24.93,15.09,48.67,38.64,73.77,54.23,8.2,6.78,1.13,18.87-8.86,13.85l-77.13-56.86c-4.57-4.02-2.81-12.48,3.22-13.8Z"/>
      <path d="M382.36,320.25c9.08-2.04,13.93,8.11,7.17,14.2l-76.52,56.47c-8.84,4.7-16.76-5.45-9.86-12.85l79.22-57.81Z"/>
      <path d="M430.39,360.27c10.37-1.58,13.91,10.1,6.62,14.65-3.23,2.01-29.14,11.25-33.1,11.89-11.22,1.8-15.28-8.9-7.18-14.17,2.67-1.73,30.4-11.87,33.67-12.37Z"/>
      <path d="M30.37,360.25c2.04-.44,3.38-.16,5.33.24,4.03.84,29.88,10.22,32.86,12.15,5.55,3.61,5.17,12.48-.62,14.2-8.2,2.44-30.51-10.02-39.66-11.92-5.8-3.45-4.52-13.25,2.1-14.68Z"/>
    </g>
  </g>
</svg>