<?xml version="1.0" encoding="UTF-8" standalone="no"?>
<!DOCTYPE svg PUBLIC "-//W3C//DTD SVG 1.1//EN" "http://www.w3.org/Graphics/SVG/1.1/DTD/svg11.dtd">
<svg width="100%" height="100%" viewBox="0 0 25 24" version="1.1" xmlns="http://www.w3.org/2000/svg" xmlns:xlink="http://www.w3.org/1999/xlink" xml:space="preserve" xmlns:serif="http://www.serif.com/" style="fill-rule:evenodd;clip-rule:evenodd;">
    <g transform="matrix(1,0,0,-1,3355.06,65.579)">
        <path d="M-3347.4,44.002C-3349.69,44.082 -3351.49,46.01 -3351.41,48.3L-3351.38,49.078L-3350.86,49.06L-3350.89,48.281C-3350.96,46.277 -3349.39,44.591 -3347.39,44.521C-3346.93,44.505 -3346.49,44.578 -3346.08,44.719L-3346.1,44.168C-3346.47,44.059 -3346.86,44 -3347.26,44C-3347.31,44 -3347.36,44.001 -3347.4,44.002ZM-3346.76,49.078L-3346.76,57.388L-3338.45,57.388L-3338.45,49.078L-3346.76,49.078ZM-3346.24,49.598L-3338.97,49.598L-3338.97,56.869L-3346.24,56.869L-3346.24,49.598ZM-3353,49.206L-3351.08,52.072L-3349.36,49.078L-3353,49.206ZM-3333.76,56.241C-3333.61,56.644 -3333.52,57.081 -3333.52,57.54C-3333.52,59.544 -3335.15,61.175 -3337.15,61.175L-3337.93,61.175L-3337.93,61.694L-3337.15,61.694C-3334.86,61.694 -3333,59.831 -3333,57.54C-3333,57.086 -3333.08,56.65 -3333.21,56.241L-3333.76,56.241ZM-3341.38,61.694L-3338.45,63.517L-3338.45,59.871L-3341.38,61.694Z" style="fill:rgb(37,169,224);fill-rule:nonzero;stroke:rgb(37,169,224);stroke-width:1px;"/>
    </g>
</svg>
