<?xml version="1.0" encoding="UTF-8"?>
<svg id="Layer_2" data-name="Layer 2" xmlns="http://www.w3.org/2000/svg" viewBox="0 0 2212.12 3000">
  <defs>
    <style>
      .cls-1 {
        fill: #25A9E0;
      }
    </style>
  </defs>
  <g id="Layer_1-2" data-name="Layer 1">
    <g>
      <path class="cls-1" d="M1722.3,334.94v898.79c-71.57,10.11-146.48,15.97-224.43,17.49-208.16-4.03-417.23-36.66-609.56-81.3V334.94c21.6,14.6,47.23,28.52,77.57,41.37,92.56,39.24,213.1,60.84,339.42,60.84s246.87-21.6,339.35-60.84c30.34-12.85,55.97-26.85,77.65-41.37Z"/>
      <path class="cls-1" d="M1428.13,176.75c0,28.75-54.99,52.09-122.83,52.09s-122.9-23.35-122.9-52.09,54.99-52.1,122.9-52.1,122.83,23.35,122.83,52.1Z"/>
      <path class="cls-1" d="M1428.13,176.75c0,28.75-54.99,52.09-122.83,52.09s-122.9-23.35-122.9-52.09,54.99-52.1,122.9-52.1,122.83,23.35,122.83,52.1Z"/>
      <path class="cls-1" d="M1428.13,176.75c0,28.75-54.99,52.09-122.83,52.09s-122.9-23.35-122.9-52.09,54.99-52.1,122.9-52.1,122.83,23.35,122.83,52.1Z"/>
      <path class="cls-1" d="M774.23,162.37v979.25c-258.96-68.07-478.22-152.94-609.41-208.61-55.52-23.5-101.91-65.48-127.69-119.94-55.29-116.74-46.47-261.39,43.65-372.81C218.06,270.75,774.23,162.37,774.23,162.37Z"/>
      <path class="cls-1" d="M0,980.42s1274.18,631.65,2162.57,277.53c24.42-9.74,49.11,13.04,41.44,38.19-164.87,540.51-182.19,1057.5,5.96,1541.74,7.25,18.67-4.64,39.23-24.43,42.28-141.58,21.82-647.33,95.69-1145.36,118.76C473.88,3025.14,0,2574.14,0,2007.24V980.42Z"/>
      <path class="cls-1" d="M1305.31,0c-230.36,0-417,79.17-417,176.75s186.63,176.75,417,176.75,417-79.1,417-176.75S1535.59,0,1305.31,0ZM1009.77,218.08c-6.49-8.87-11.39-19.31-14.83-30.56-3.27-11.35-4.1-23.88-2.3-36.1,1.91-12.22,6.57-23.89,13.12-33.76,6.54-9.89,14.68-18.12,23.57-24.7,17.86-12.98,38.27-20.72,59.58-21.25-14.85,14.87-28.28,28.53-38.91,42.71-10.67,14.14-17.69,28.37-19.78,42.74-2.35,14.35.26,30.1,6.01,46.99,5.5,17.01,14.31,34.25,22.26,53.88-19.3-8.65-36.02-21.97-48.72-39.97ZM1305.31,269.45c-120.77,0-218.73-41.52-218.73-92.71s97.96-92.71,218.73-92.71,218.65,41.52,218.65,92.71-97.88,92.71-218.65,92.71ZM1635.04,187.52c-3.44,11.24-8.34,21.69-14.83,30.56-12.7,17.99-29.42,31.32-48.72,39.97,7.95-19.63,16.76-36.88,22.26-53.88,5.75-16.89,8.36-32.64,6.01-46.99-2.09-14.37-9.11-28.61-19.78-42.74-10.63-14.19-24.05-27.84-38.91-42.71,21.31.53,41.72,8.27,59.58,21.25,8.89,6.57,17.03,14.8,23.57,24.7,6.54,9.86,11.2,21.54,13.12,33.76,1.8,12.22.97,24.75-2.3,36.1Z"/>
    </g>
  </g>
</svg>