<?xml version="1.0" encoding="UTF-8" standalone="no"?> <svg width="100" height="96" viewBox="0 0 25 24" fill="none" xmlns="http://www.w3.org/2000/svg">
<path d="M6.66946 7.58192C6.5909 7.38424 6.57195 7.16789 6.61495 6.95957C6.65795 6.75124 6.76101 6.56008 6.91143 6.40966C7.06184 6.25925 7.25301 6.15618 7.46133 6.11319C7.66965 6.07019 7.886 6.08914 8.08368 6.1677L21.9317 11.587C22.1004 11.6529 22.25 11.7599 22.367 11.8982C22.4839 12.0366 22.5645 12.2019 22.6015 12.3793C22.6384 12.5567 22.6305 12.7404 22.5785 12.914C22.5265 13.0875 22.432 13.2453 22.3036 13.3731L15.7784 15.2767L13.8749 21.8047C13.7471 21.9331 13.5893 22.0275 13.4157 22.0796C13.2422 22.1316 13.0584 22.1395 12.8811 22.1025C12.7037 22.0656 12.5383 21.985 12.4 21.8681C12.2616 21.7511 12.1547 21.6015 12.0887 21.4327L6.66946 7.58192Z" fill="#25A9E0"/>
</svg>