<?xml version="1.0" encoding="UTF-8" standalone="no"?>
<!DOCTYPE svg PUBLIC "-//W3C//DTD SVG 1.1//EN" "http://www.w3.org/Graphics/SVG/1.1/DTD/svg11.dtd">
<svg width="100%" height="100%" viewBox="0 0 42 42" version="1.1" xmlns="http://www.w3.org/2000/svg" xmlns:xlink="http://www.w3.org/1999/xlink" xml:space="preserve" xmlns:serif="http://www.serif.com/" style="fill-rule:evenodd;clip-rule:evenodd;stroke-linejoin:round;stroke-miterlimit:2;">
    <g transform="matrix(1,0,0,-1,-973.312,51.8226)">
        <path d="M1014.72,34.567C1014.5,37.141 1014.09,39.676 1013.15,42.1C1011.55,46.274 1008.58,49.015 1004.35,50.425C1002.1,51.173 999.793,51.595 997.441,51.713C995.526,51.809 993.602,51.864 991.688,51.784C988.697,51.658 985.748,51.197 982.941,50.088C978.757,48.436 976.071,45.391 974.706,41.147C974.009,38.98 973.651,36.748 973.475,34.484C973.43,33.91 973.367,33.336 973.312,32.762L973.312,29.601C973.368,28.974 973.425,28.346 973.479,27.719C973.704,25.078 974.134,22.479 975.118,20.001C976.82,15.718 979.977,13.032 984.345,11.701C986.445,11.061 988.601,10.719 990.787,10.553C991.378,10.509 991.967,10.446 992.557,10.392L995.643,10.392C996.273,10.447 996.903,10.505 997.534,10.558C1000.12,10.779 1002.67,11.197 1005.11,12.138C1009.49,13.826 1012.24,17.002 1013.59,21.446C1014.22,23.532 1014.56,25.669 1014.73,27.837C1014.77,28.426 1014.83,29.013 1014.89,29.601L1014.89,32.681C1014.83,33.31 1014.77,33.938 1014.72,34.567" style="fill:rgb(37,169,224);fill-rule:nonzero;"/>
    </g>
    <g transform="matrix(1,0,0,-1,-1155.48,96.2245)">
        <path d="M1180.77,76.963C1180.97,76.917 1181.18,76.863 1181.39,76.863C1183.05,76.87 1184.71,76.813 1186.36,76.926C1188.11,77.046 1189.7,78.754 1189.76,80.512C1189.82,82.114 1189.82,83.722 1189.76,85.324C1189.69,87.248 1188.01,88.898 1186.1,89.003C1185.31,89.046 1184.52,89.01 1183.72,89.01L1183.72,89.033C1183.06,89.033 1182.39,89.042 1181.73,89.032C1179.44,88.999 1177.65,87.27 1177.62,85.045C1177.6,83.641 1177.6,82.236 1177.62,80.832C1177.64,78.977 1178.96,77.376 1180.77,76.963M1180.33,84.847C1180.33,85.753 1180.87,86.305 1181.78,86.317C1182.42,86.325 1183.07,86.318 1183.71,86.318C1184.34,86.319 1184.98,86.324 1185.61,86.317C1186.55,86.308 1187.08,85.779 1187.08,84.838C1187.09,83.572 1187.09,82.306 1187.08,81.04C1187.07,80.109 1186.52,79.565 1185.6,79.563C1184.33,79.561 1183.07,79.56 1181.8,79.563C1180.89,79.566 1180.33,80.131 1180.33,81.049C1180.32,82.315 1180.32,83.581 1180.33,84.847" style="fill:white;fill-rule:nonzero;"/>
    </g>
    <g transform="matrix(1,0,0,-1,-1033.06,248.358)">
        <path d="M1049.32,226.175C1048.66,226.31 1047.96,226.291 1047.28,226.294C1046.12,226.299 1044.95,226.332 1043.8,226.231C1041.99,226.073 1040.42,224.422 1040.36,222.617C1040.3,221.014 1040.3,219.407 1040.36,217.805C1040.43,215.907 1042.11,214.249 1044.01,214.146C1044.8,214.103 1045.59,214.139 1046.38,214.139L1046.38,214.114C1047.05,214.114 1047.71,214.107 1048.38,214.116C1050.75,214.148 1052.5,215.911 1052.51,218.283C1052.51,219.603 1052.51,220.923 1052.5,222.242C1052.49,224.151 1051.19,225.795 1049.32,226.175M1049.79,218.271C1049.78,217.417 1049.25,216.846 1048.4,216.835C1047.07,216.817 1045.74,216.817 1044.41,216.835C1043.58,216.846 1043.05,217.385 1043.04,218.214C1043.02,219.533 1043.03,220.852 1043.04,222.171C1043.05,223.039 1043.61,223.581 1044.48,223.584C1045.77,223.588 1047.06,223.589 1048.34,223.584C1049.22,223.581 1049.78,223.008 1049.79,222.132C1049.79,221.489 1049.79,220.845 1049.79,220.202C1049.79,219.558 1049.79,218.915 1049.79,218.271" style="fill:white;fill-rule:nonzero;"/>
    </g>
    <g transform="matrix(1,0,0,-1,-1033.15,96.1745)">
        <path d="M1040.44,80.566C1040.57,78.493 1042.29,76.845 1044.38,76.804C1045.79,76.777 1047.2,76.781 1048.62,76.803C1050.48,76.833 1052.08,78.149 1052.49,79.959C1052.53,80.164 1052.59,80.374 1052.59,80.582C1052.58,82.228 1052.64,83.879 1052.53,85.518C1052.4,87.301 1050.71,88.881 1048.93,88.945C1047.32,89.003 1045.7,89.005 1044.09,88.946C1042.22,88.877 1040.55,87.186 1040.45,85.316C1040.4,84.516 1040.44,83.712 1040.44,82.909L1040.43,82.909C1040.43,82.128 1040.39,81.345 1040.44,80.566M1043.14,84.897C1043.15,85.712 1043.68,86.249 1044.49,86.261C1045.83,86.281 1047.17,86.28 1048.51,86.262C1049.34,86.251 1049.88,85.678 1049.88,84.846C1049.89,84.192 1049.89,83.538 1049.89,82.883C1049.89,82.24 1049.89,81.596 1049.88,80.953C1049.88,80.096 1049.31,79.519 1048.46,79.514C1047.16,79.508 1045.86,79.509 1044.57,79.514C1043.71,79.517 1043.14,80.059 1043.13,80.909C1043.12,82.238 1043.12,83.568 1043.14,84.897" style="fill:white;fill-rule:nonzero;"/>
    </g>
    <g transform="matrix(1,0,0,-1,-1155.64,248.504)">
        <path d="M1188.55,221.7C1187.91,221.702 1187.28,221.701 1186.64,221.701L1185.23,221.701L1185.23,222.076C1185.23,223.069 1185.24,224.062 1185.23,225.054C1185.22,225.846 1184.6,226.462 1183.84,226.445C1183.09,226.428 1182.52,225.828 1182.52,225.038C1182.52,224.046 1182.52,223.053 1182.52,222.06L1182.52,221.701L1182.14,221.701C1181.12,221.701 1180.11,221.708 1179.1,221.698C1178.24,221.69 1177.62,220.875 1177.82,220.04C1177.98,219.395 1178.51,218.99 1179.22,218.987C1180.3,218.983 1181.39,218.986 1182.49,218.986C1182.5,218.921 1182.51,218.901 1182.51,218.881C1182.52,217.804 1182.5,216.726 1182.53,215.65C1182.54,215.371 1182.64,215.064 1182.78,214.827C1183.1,214.335 1183.72,214.151 1184.27,214.32C1184.83,214.495 1185.22,215.007 1185.23,215.631C1185.24,216.634 1185.23,217.637 1185.23,218.64L1185.23,218.973C1185.34,218.979 1185.39,218.985 1185.44,218.985C1186.48,218.986 1187.51,218.98 1188.55,218.988C1189.35,218.994 1189.95,219.583 1189.95,220.35C1189.95,221.125 1189.36,221.698 1188.55,221.7" style="fill:white;fill-rule:nonzero;"/>
    </g>
</svg>
