<?xml version="1.0" encoding="UTF-8" standalone="no"?>
<!DOCTYPE svg PUBLIC "-//W3C//DTD SVG 1.1//EN" "http://www.w3.org/Graphics/SVG/1.1/DTD/svg11.dtd">
<svg width="100%" height="100%" viewBox="0 0 42 42" version="1.1" xmlns="http://www.w3.org/2000/svg" xmlns:xlink="http://www.w3.org/1999/xlink" xml:space="preserve" xmlns:serif="http://www.serif.com/" style="fill-rule:evenodd;clip-rule:evenodd;stroke-linejoin:round;stroke-miterlimit:2;">
    <g transform="matrix(1,0,0,-1,-1459.97,41.3896)">
        <path d="M1501.38,24.134C1501.16,26.708 1500.74,29.243 1499.81,31.667C1498.2,35.841 1495.23,38.582 1491,39.992C1488.76,40.74 1486.45,41.162 1484.1,41.28C1482.18,41.376 1480.26,41.431 1478.34,41.351C1475.35,41.225 1472.4,40.764 1469.6,39.655C1465.41,38.002 1462.73,34.958 1461.36,30.714C1460.67,28.547 1460.31,26.315 1460.13,24.051C1460.09,23.477 1460.02,22.903 1459.97,22.329L1459.97,19.168C1460.02,18.541 1460.08,17.913 1460.13,17.286C1460.36,14.645 1460.79,12.046 1461.77,9.568C1463.48,5.284 1466.63,2.599 1471,1.268C1473.1,0.628 1475.26,0.286 1477.44,0.12C1478.03,0.076 1478.62,0.013 1479.21,-0.041L1482.3,-0.041C1482.93,0.014 1483.56,0.072 1484.19,0.125C1486.78,0.346 1489.33,0.764 1491.77,1.704C1496.15,3.393 1498.9,6.569 1500.24,11.013C1500.88,13.099 1501.22,15.236 1501.38,17.404C1501.43,17.993 1501.49,18.58 1501.54,19.168L1501.54,22.248C1501.49,22.877 1501.43,23.505 1501.38,24.134" style="fill:rgb(37,169,224);fill-rule:nonzero;"/>
    </g>
    <g transform="matrix(1,0,0,-1,-1642.14,85.7927)">
        <path d="M1667.42,66.531C1667.63,66.485 1667.84,66.431 1668.05,66.431C1669.7,66.438 1671.37,66.381 1673.02,66.494C1674.77,66.614 1676.35,68.322 1676.41,70.08C1676.47,71.682 1676.48,73.29 1676.42,74.892C1676.34,76.816 1674.67,78.466 1672.75,78.571C1671.97,78.614 1671.17,78.578 1670.38,78.578L1670.38,78.601C1669.71,78.601 1669.05,78.61 1668.38,78.6C1666.09,78.567 1664.3,76.838 1664.27,74.613C1664.25,73.209 1664.25,71.804 1664.27,70.4C1664.3,68.545 1665.62,66.944 1667.42,66.531M1666.98,74.415C1666.98,75.321 1667.53,75.873 1668.44,75.885C1669.08,75.893 1669.72,75.886 1670.37,75.886C1671,75.887 1671.63,75.892 1672.27,75.885C1673.2,75.876 1673.73,75.347 1673.74,74.406C1673.74,73.14 1673.74,71.874 1673.74,70.608C1673.73,69.677 1673.18,69.133 1672.26,69.131C1670.99,69.129 1669.72,69.128 1668.46,69.131C1667.55,69.134 1666.98,69.699 1666.98,70.617C1666.98,71.883 1666.98,73.149 1666.98,74.415" style="fill:white;fill-rule:nonzero;"/>
    </g>
    <g transform="matrix(1,0,0,-1,-1519.71,237.926)">
        <path d="M1535.98,215.743C1535.32,215.878 1534.62,215.86 1533.93,215.862C1532.77,215.867 1531.61,215.9 1530.45,215.799C1528.65,215.641 1527.08,213.99 1527.01,212.185C1526.95,210.583 1526.95,208.975 1527.01,207.372C1527.08,205.475 1528.77,203.817 1530.66,203.714C1531.45,203.671 1532.24,203.707 1533.04,203.707L1533.04,203.682C1533.7,203.682 1534.37,203.675 1535.03,203.684C1537.41,203.716 1539.16,205.479 1539.16,207.851C1539.16,209.171 1539.17,210.491 1539.16,211.811C1539.14,213.719 1537.84,215.363 1535.98,215.743M1536.44,207.839C1536.44,206.985 1535.91,206.414 1535.06,206.403C1533.73,206.385 1532.4,206.385 1531.07,206.403C1530.24,206.414 1529.7,206.953 1529.69,207.783C1529.68,209.101 1529.68,210.42 1529.69,211.739C1529.7,212.607 1530.27,213.149 1531.14,213.152C1532.43,213.156 1533.71,213.157 1535,213.152C1535.87,213.149 1536.44,212.576 1536.44,211.7C1536.45,211.057 1536.45,210.413 1536.45,209.77C1536.45,209.126 1536.45,208.483 1536.44,207.839" style="fill:white;fill-rule:nonzero;"/>
    </g>
    <g transform="matrix(1,0,0,-1,-1642.18,237.926)">
        <path d="M1673.32,215.743C1672.65,215.878 1671.95,215.86 1671.27,215.862C1670.11,215.867 1668.94,215.9 1667.79,215.799C1665.98,215.641 1664.41,213.99 1664.35,212.185C1664.29,210.583 1664.29,208.975 1664.35,207.372C1664.42,205.475 1666.11,203.817 1668,203.714C1668.79,203.671 1669.58,203.707 1670.37,203.707L1670.37,203.682C1671.04,203.682 1671.7,203.675 1672.37,203.684C1674.75,203.716 1676.49,205.479 1676.5,207.851C1676.5,209.171 1676.51,210.491 1676.5,211.811C1676.48,213.719 1675.18,215.363 1673.32,215.743M1673.78,207.839C1673.78,206.985 1673.24,206.414 1672.39,206.403C1671.06,206.385 1669.73,206.385 1668.4,206.403C1667.58,206.414 1667.04,206.953 1667.03,207.783C1667.02,209.101 1667.02,210.42 1667.03,211.739C1667.04,212.607 1667.61,213.149 1668.48,213.152C1669.76,213.156 1671.05,213.157 1672.34,213.152C1673.21,213.149 1673.78,212.576 1673.78,211.7C1673.79,211.057 1673.78,210.413 1673.78,209.77C1673.78,209.126 1673.79,208.483 1673.78,207.839" style="fill:white;fill-rule:nonzero;"/>
    </g>
    <g transform="matrix(1,0,0,-1,-1519.81,85.7415)">
        <path d="M1527.1,70.133C1527.22,68.06 1528.94,66.412 1531.03,66.372C1532.44,66.344 1533.86,66.348 1535.27,66.37C1537.13,66.4 1538.73,67.716 1539.14,69.526C1539.19,69.731 1539.24,69.941 1539.24,70.149C1539.23,71.795 1539.29,73.446 1539.18,75.085C1539.06,76.869 1537.37,78.449 1535.59,78.512C1533.98,78.57 1532.36,78.572 1530.75,78.513C1528.87,78.444 1527.2,76.753 1527.1,74.883C1527.06,74.083 1527.1,73.279 1527.1,72.476L1527.09,72.476C1527.09,71.695 1527.05,70.912 1527.1,70.133M1529.79,74.464C1529.8,75.279 1530.33,75.816 1531.14,75.828C1532.48,75.848 1533.82,75.847 1535.16,75.829C1536,75.818 1536.53,75.245 1536.54,74.413C1536.55,73.759 1536.54,73.105 1536.54,72.45C1536.54,71.807 1536.55,71.163 1536.54,70.52C1536.53,69.663 1535.97,69.086 1535.11,69.081C1533.82,69.075 1532.52,69.076 1531.22,69.081C1530.37,69.084 1529.8,69.627 1529.79,70.476C1529.77,71.806 1529.77,73.135 1529.79,74.464" style="fill:white;fill-rule:nonzero;"/>
    </g>
</svg>
