<?xml version="1.0" encoding="UTF-8" standalone="no"?>
<!DOCTYPE svg PUBLIC "-//W3C//DTD SVG 1.1//EN" "http://www.w3.org/Graphics/SVG/1.1/DTD/svg11.dtd">
<svg width="100%" height="100%" viewBox="0 0 75 38" version="1.1" xmlns="http://www.w3.org/2000/svg" xmlns:xlink="http://www.w3.org/1999/xlink" xml:space="preserve" xmlns:serif="http://www.serif.com/" style="fill-rule:evenodd;clip-rule:evenodd;stroke-linejoin:round;stroke-miterlimit:2;">
    <g transform="matrix(1,0,0,-1,0,38)">
        <path d="M0,9L0,29C0,29.591 0.058,30.176 0.173,30.756C0.288,31.335 0.459,31.898 0.685,32.444C0.911,32.99 1.188,33.509 1.517,34C1.845,34.491 2.218,34.946 2.636,35.364C3.054,35.782 3.509,36.155 4,36.483C4.491,36.812 5.01,37.089 5.556,37.315C6.102,37.541 6.665,37.712 7.244,37.827C7.824,37.942 8.409,38 9,38L66,38C66.591,38 67.176,37.942 67.756,37.827C68.335,37.712 68.898,37.541 69.444,37.315C69.99,37.089 70.509,36.812 71,36.483C71.491,36.155 71.946,35.782 72.364,35.364C72.782,34.946 73.155,34.491 73.483,34C73.812,33.509 74.089,32.99 74.315,32.444C74.541,31.898 74.712,31.335 74.827,30.756C74.942,30.176 75,29.591 75,29L75,9C75,8.409 74.942,7.824 74.827,7.244C74.712,6.665 74.541,6.102 74.315,5.556C74.089,5.01 73.812,4.491 73.483,4C73.155,3.509 72.782,3.054 72.364,2.636C71.946,2.218 71.491,1.845 71,1.517C70.509,1.188 69.99,0.911 69.444,0.685C68.898,0.459 68.335,0.288 67.756,0.173C67.176,0.058 66.591,0 66,0L9,0C8.409,0 7.824,0.058 7.244,0.173C6.665,0.288 6.102,0.459 5.556,0.685C5.01,0.911 4.491,1.188 4,1.517C3.509,1.845 3.054,2.218 2.636,2.636C2.218,3.054 1.845,3.509 1.517,4C1.188,4.491 0.911,5.01 0.685,5.556C0.459,6.102 0.288,6.665 0.173,7.244C0.058,7.824 0,8.409 0,9Z" style="fill:rgb(37,169,224);fill-rule:nonzero;"/>
    </g>
</svg>
