<?xml version="1.0" encoding="UTF-8" standalone="no"?>
<!DOCTYPE svg PUBLIC "-//W3C//DTD SVG 1.1//EN" "http://www.w3.org/Graphics/SVG/1.1/DTD/svg11.dtd">
<svg width="100%" height="100%" viewBox="0 0 33 31" version="1.1" xmlns="http://www.w3.org/2000/svg" xmlns:xlink="http://www.w3.org/1999/xlink" xml:space="preserve" xmlns:serif="http://www.serif.com/" style="fill-rule:evenodd;clip-rule:evenodd;stroke-linejoin:round;stroke-miterlimit:2;">
    <g transform="matrix(1,0,0,-1,0,31)">
        <path d="M0,9L0,22C0,22.591 0.058,23.176 0.173,23.756C0.288,24.335 0.459,24.898 0.685,25.444C0.911,25.99 1.188,26.509 1.517,27C1.845,27.491 2.218,27.946 2.636,28.364C3.054,28.782 3.509,29.155 4,29.483C4.491,29.812 5.01,30.089 5.556,30.315C6.102,30.541 6.665,30.712 7.244,30.827C7.824,30.942 8.409,31 9,31L24,31C24.591,31 25.176,30.942 25.756,30.827C26.335,30.712 26.898,30.541 27.444,30.315C27.99,30.089 28.509,29.812 29,29.483C29.491,29.155 29.946,28.782 30.364,28.364C30.782,27.946 31.155,27.491 31.483,27C31.812,26.509 32.089,25.99 32.315,25.444C32.541,24.898 32.712,24.335 32.827,23.756C32.942,23.176 33,22.591 33,22L33,9C33,8.409 32.942,7.824 32.827,7.244C32.712,6.665 32.541,6.102 32.315,5.556C32.089,5.01 31.812,4.491 31.483,4C31.155,3.509 30.782,3.054 30.364,2.636C29.946,2.218 29.491,1.845 29,1.517C28.509,1.188 27.99,0.911 27.444,0.685C26.898,0.459 26.335,0.288 25.756,0.173C25.176,0.058 24.591,0 24,0L9,0C8.409,0 7.824,0.058 7.244,0.173C6.665,0.288 6.102,0.459 5.556,0.685C5.01,0.911 4.491,1.188 4,1.517C3.509,1.845 3.054,2.218 2.636,2.636C2.218,3.054 1.845,3.509 1.517,4C1.188,4.491 0.911,5.01 0.685,5.556C0.459,6.102 0.288,6.665 0.173,7.244C0.058,7.824 0,8.409 0,9Z" style="fill:white;fill-rule:nonzero;"/>
    </g>
</svg>
