<svg version="1.1" xmlns="http://www.w3.org/2000/svg" viewBox="0 0 335 537.5" width="335" height="537.5">
<rect x="0" y="0" width="335" height="537.5" fill="transparent"></rect><g stroke-linecap="round" transform="translate(10 72.5) rotate(0 120 205)"><path d="M1.47 0.58 L239.48 -0.03 L240.16 410.84 L-0.43 411.93" stroke="none" stroke-width="0" fill="#ced4da"></path><path d="M0 0 C81.81 -2, 164.47 -2.71, 240 0 M240 0 C239.53 142.21, 238.67 283.82, 240 410 M240 410 C164.06 409.24, 87.87 408.07, 0 410 M0 410 C0.19 272.18, 1.54 135.28, 0 0" stroke="#ced4da" stroke-width="2.5" fill="none" stroke-dasharray="8 10"></path></g><g stroke-linecap="round" transform="translate(190 10) rotate(0 67.5 258.75)"><path d="M32 0 C52.24 -2.37, 70.49 0.36, 103 0 C122.4 -1.52, 135.28 10.85, 135 32 C131.78 169.35, 131.36 303.67, 135 485.5 C137.12 507.85, 126.98 518.55, 103 517.5 C85.05 516.82, 67.55 519.33, 32 517.5 C9.74 519.02, -3.17 508.69, 0 485.5 C1.22 343.64, 1.23 199.49, 0 32 C-2.86 7.76, 13.43 0.04, 32 0" stroke="none" stroke-width="0" fill="#1e1e1e"></path><path d="M32 0 C60.75 0.3, 85.53 1.67, 103 0 M32 0 C50.84 0.19, 67 0.17, 103 0 M103 0 C123.43 -1.06, 135.29 11.35, 135 32 M103 0 C122.87 1.09, 134.15 10.56, 135 32 M135 32 C136.68 191.22, 135.43 349.14, 135 485.5 M135 32 C135.08 190.98, 134.99 350.28, 135 485.5 M135 485.5 C134.33 505.05, 124.74 516.18, 103 517.5 M135 485.5 C132.7 508, 123.34 518.81, 103 517.5 M103 517.5 C82.71 515.41, 61.64 518.49, 32 517.5 M103 517.5 C75.69 517.13, 49.35 515.99, 32 517.5 M32 517.5 C9.57 517.36, -1.5 507.99, 0 485.5 M32 517.5 C10.14 517.5, -1.41 508.53, 0 485.5 M0 485.5 C-0.8 382.16, -1.03 279.34, 0 32 M0 485.5 C0.82 386.64, 1.66 287.79, 0 32 M0 32 C0.87 9.02, 12.27 -0.73, 32 0 M0 32 C-0.54 10.16, 9.15 1.06, 32 0" stroke="#1e1e1e" stroke-width="2" fill="none"></path></g><g stroke-linecap="round"><g transform="translate(21.395549253962855 91.96739664218649) rotate(0 52.7744475952408 -0.9836983210932431)"><path d="M-1.07 -0.55 C16.56 -0.99, 86.76 -1.21, 104.73 -1.49 M0.57 1.78 C18.67 1.48, 89.33 -2.89, 107 -3.36" stroke="#1e1e1e" stroke-width="2" fill="none"></path></g><g transform="translate(21.395549253962855 91.96739664218649) rotate(0 52.7744475952408 -0.9836983210932431)"><path d="M83.93 6.26 C87.8 3.06, 94.38 4.39, 107 -3.36 M83.93 6.26 C90.62 4.08, 95.91 1.05, 107 -3.36" stroke="#1e1e1e" stroke-width="2" fill="none"></path></g><g transform="translate(21.395549253962855 91.96739664218649) rotate(0 52.7744475952408 -0.9836983210932431)"><path d="M83.14 -10.82 C87.34 -10.41, 94.1 -5.47, 107 -3.36 M83.14 -10.82 C89.95 -8.25, 95.46 -6.51, 107 -3.36" stroke="#1e1e1e" stroke-width="2" fill="none"></path></g></g><mask></mask><g stroke-linecap="round"><g transform="translate(25.13509608438079 91.69050715214553) rotate(0 -0.06754804219039556 36.654746423927236)"><path d="M-0.9 -0.08 C-0.98 12.11, 0 60.34, 0.23 72.43 M0.83 -1.17 C0.56 11.21, -0.39 61.09, -0.53 73.5" stroke="#1e1e1e" stroke-width="2" fill="none"></path></g><g transform="translate(25.13509608438079 91.69050715214553) rotate(0 -0.06754804219039556 36.654746423927236)"><path d="M-8.71 49.88 C-6.05 59.04, -4.44 67.94, -0.53 73.5 M-8.71 49.88 C-6.04 54.27, -4.06 60.48, -0.53 73.5" stroke="#1e1e1e" stroke-width="2" fill="none"></path></g><g transform="translate(25.13509608438079 91.69050715214553) rotate(0 -0.06754804219039556 36.654746423927236)"><path d="M8.39 50.14 C4.91 59.08, 0.36 67.89, -0.53 73.5 M8.39 50.14 C7.17 54.52, 5.27 60.67, -0.53 73.5" stroke="#1e1e1e" stroke-width="2" fill="none"></path></g></g><mask></mask></svg>