<?xml version="1.0" encoding="UTF-8" standalone="no"?>
<!DOCTYPE svg PUBLIC "-//W3C//DTD SVG 1.1//EN" "http://www.w3.org/Graphics/SVG/1.1/DTD/svg11.dtd">
<svg width="100%" height="100%" viewBox="0 0 106 37" version="1.1" xmlns="http://www.w3.org/2000/svg" xmlns:xlink="http://www.w3.org/1999/xlink" xml:space="preserve" xmlns:serif="http://www.serif.com/" style="fill-rule:evenodd;clip-rule:evenodd;stroke-linejoin:round;stroke-miterlimit:2;">
    <g transform="matrix(1,0,0,-1,0,37)">
        <path d="M0,9L0,28C0,28.591 0.058,29.176 0.173,29.756C0.288,30.335 0.459,30.898 0.685,31.444C0.911,31.99 1.188,32.509 1.517,33C1.845,33.491 2.218,33.946 2.636,34.364C3.054,34.782 3.509,35.155 4,35.483C4.491,35.812 5.01,36.089 5.556,36.315C6.102,36.541 6.665,36.712 7.244,36.827C7.824,36.942 8.409,37 9,37L97,37C97.591,37 98.176,36.942 98.756,36.827C99.335,36.712 99.898,36.541 100.444,36.315C100.99,36.089 101.509,35.812 102,35.483C102.491,35.155 102.946,34.782 103.364,34.364C103.782,33.946 104.155,33.491 104.483,33C104.812,32.509 105.089,31.99 105.315,31.444C105.541,30.898 105.712,30.335 105.827,29.756C105.942,29.176 106,28.591 106,28L106,9C106,8.409 105.942,7.824 105.827,7.244C105.712,6.665 105.541,6.102 105.315,5.556C105.089,5.01 104.812,4.491 104.483,4C104.155,3.509 103.782,3.054 103.364,2.636C102.946,2.218 102.491,1.845 102,1.517C101.509,1.188 100.99,0.911 100.444,0.685C99.898,0.459 99.335,0.288 98.756,0.173C98.176,0.058 97.591,0 97,0L9,0C8.409,0 7.824,0.058 7.244,0.173C6.665,0.288 6.102,0.459 5.556,0.685C5.01,0.911 4.491,1.188 4,1.517C3.509,1.845 3.054,2.218 2.636,2.636C2.218,3.054 1.845,3.509 1.517,4C1.188,4.491 0.911,5.01 0.685,5.556C0.459,6.102 0.288,6.665 0.173,7.244C0.058,7.824 0,8.409 0,9Z" style="fill-rule:nonzero;"/>
    </g>
</svg>
