<?xml version="1.0" encoding="UTF-8" standalone="no"?>
<!DOCTYPE svg PUBLIC "-//W3C//DTD SVG 1.1//EN" "http://www.w3.org/Graphics/SVG/1.1/DTD/svg11.dtd">
<svg width="100%" height="100%" viewBox="0 0 20 20" version="1.1" xmlns="http://www.w3.org/2000/svg" xmlns:xlink="http://www.w3.org/1999/xlink" xml:space="preserve" xmlns:serif="http://www.serif.com/" style="fill-rule:evenodd;clip-rule:evenodd;stroke-linejoin:round;stroke-miterlimit:2;">
    <g transform="matrix(1,0,0,-1,-766.619,305.012)">
        <path d="M776.421,305.008C778.866,305.008 781.311,305.022 783.756,305.001C784.759,304.992 785.51,304.497 785.941,303.591C786.392,302.641 786.251,301.731 785.59,300.925C784.887,300.069 784.152,299.238 783.43,298.396C782.242,297.011 781.055,295.626 779.865,294.242C779.609,293.945 779.481,293.612 779.482,293.215C779.489,291.556 779.482,289.897 779.486,288.238C779.489,287.327 779.097,286.67 778.274,286.269C777.585,285.933 776.904,285.582 776.215,285.246C774.79,284.552 773.318,285.476 773.316,287.064C773.313,289.081 773.309,291.098 773.32,293.115C773.322,293.568 773.185,293.945 772.892,294.285C771.059,296.416 769.232,298.553 767.397,300.682C767.044,301.092 766.745,301.525 766.656,302.07C766.397,303.647 767.531,304.995 769.138,305.002C771.303,305.011 773.469,305.004 775.635,305.004L776.421,305.004L776.421,305.008ZM776.403,303.313C774.01,303.313 771.617,303.311 769.224,303.315C768.843,303.315 768.531,303.206 768.371,302.835C768.217,302.479 768.338,302.182 768.579,301.901C770.402,299.783 772.208,297.651 774.045,295.546C774.714,294.781 775.03,293.937 775.015,292.922C774.987,290.993 775.006,289.063 775.007,287.133C775.008,286.689 775.159,286.598 775.559,286.797C776.19,287.112 776.816,287.439 777.456,287.737C777.718,287.86 777.801,288.025 777.799,288.306C777.787,289.904 777.8,291.502 777.791,293.1C777.786,293.917 778.002,294.65 778.538,295.276C779.901,296.867 781.266,298.458 782.63,300.048C783.175,300.685 783.725,301.317 784.266,301.958C784.66,302.425 784.528,303.058 783.993,303.251C783.842,303.305 783.668,303.31 783.504,303.31C781.137,303.314 778.77,303.313 776.403,303.313" style="fill:rgb(37,169,224);fill-rule:nonzero;"/>
    </g>
</svg>
