<?xml version="1.0" encoding="UTF-8" standalone="no"?>
<!DOCTYPE svg PUBLIC "-//W3C//DTD SVG 1.1//EN" "http://www.w3.org/Graphics/SVG/1.1/DTD/svg11.dtd">
<svg width="100%" height="100%" viewBox="0 0 36 36" version="1.1" xmlns="http://www.w3.org/2000/svg" xmlns:xlink="http://www.w3.org/1999/xlink" xml:space="preserve" xmlns:serif="http://www.serif.com/" style="fill-rule:evenodd;clip-rule:evenodd;stroke-linejoin:round;stroke-miterlimit:2;">
    <g transform="matrix(1,0,0,1,-56,-610.316)">
        <g>
            <g transform="matrix(1,0,0,-1,2.43262,699.144)">
                <path d="M59.812,71.303C59.811,77.523 64.832,82.558 71.038,82.559C77.296,82.56 82.317,77.535 82.316,71.27C82.315,65.072 77.272,60.052 71.048,60.054C64.836,60.057 59.813,65.086 59.812,71.303M69.812,74.43C69.812,73.441 69.817,72.452 69.81,71.464C69.807,70.911 70.022,70.497 70.491,70.19C71.665,69.421 72.827,68.635 73.997,67.859C74.684,67.403 75.441,67.52 75.842,68.136C76.241,68.749 76.064,69.462 75.388,69.917C74.461,70.541 73.534,71.165 72.596,71.772C72.385,71.909 72.308,72.051 72.31,72.303C72.322,73.981 72.317,75.659 72.316,77.338C72.315,78.222 71.802,78.817 71.053,78.808C70.31,78.8 69.814,78.221 69.813,77.357C69.811,76.381 69.812,75.405 69.812,74.43" style="fill:rgb(37,169,224);fill-rule:nonzero;"/>
            </g>
            <g transform="matrix(1,0,0,-1,56.0003,644.994)">
                <path d="M7.492,31.529C8.796,32.417 10.107,33.095 11.504,33.609C21.436,37.265 32.428,31.192 34.613,20.839C36.499,11.902 31.32,3.08 22.621,0.41C12.858,-2.586 2.547,3.436 0.404,13.422C0.147,14.621 0.094,15.868 0.003,17.097C-0.052,17.857 0.514,18.404 1.237,18.405C1.959,18.407 2.465,17.869 2.492,17.102C2.708,11.111 5.384,6.583 10.694,3.779C19.106,-0.662 29.622,4.061 32.035,13.284C34.178,21.47 29.253,29.755 21.022,31.732C16.973,32.705 13.15,32.046 9.588,29.887C9.511,29.84 9.439,29.784 9.258,29.659C9.573,29.659 9.783,29.662 9.992,29.659C10.713,29.646 11.249,29.102 11.243,28.392C11.236,27.704 10.702,27.167 9.995,27.163C8.745,27.156 7.495,27.156 6.245,27.163C5.517,27.168 4.999,27.694 4.995,28.427C4.99,29.665 4.99,30.902 4.995,32.139C4.998,32.873 5.529,33.409 6.238,33.41C6.947,33.412 7.48,32.875 7.491,32.146C7.494,31.967 7.492,31.788 7.492,31.529" style="fill:rgb(37,169,224);fill-rule:nonzero;"/>
            </g>
        </g>
    </g>
</svg>
