<?xml version="1.0" encoding="UTF-8" standalone="no"?>
<!DOCTYPE svg PUBLIC "-//W3C//DTD SVG 1.1//EN" "http://www.w3.org/Graphics/SVG/1.1/DTD/svg11.dtd">
<svg width="100%" height="100%" viewBox="0 0 17 20" version="1.1" xmlns="http://www.w3.org/2000/svg" xmlns:xlink="http://www.w3.org/1999/xlink" xml:space="preserve" xmlns:serif="http://www.serif.com/" style="fill-rule:evenodd;clip-rule:evenodd;stroke-linejoin:round;stroke-miterlimit:2;">
    <g transform="matrix(1,0,0,-1,-0.000225231,19.3515)">
        <path d="M11.753,19.352C11.798,19.333 11.844,19.313 11.89,19.295C12.307,19.134 12.54,18.727 12.468,18.283C12.402,17.868 12.03,17.546 11.592,17.54C11.025,17.533 10.458,17.538 9.891,17.538C7.643,17.538 5.395,17.538 3.146,17.538C2.313,17.538 1.815,17.043 1.815,16.215C1.814,11.857 1.814,7.5 1.815,3.143C1.815,2.314 2.313,1.819 3.146,1.818C5.942,1.818 8.738,1.819 11.534,1.818C12.194,1.817 12.635,1.229 12.435,0.626C12.314,0.262 11.985,0.014 11.595,0.007C11.249,0 10.902,0.005 10.556,0.005C8.056,0.005 5.556,0.002 3.055,0.005C1.567,0.008 0.352,1.004 0.059,2.463C0.016,2.678 0.003,2.901 0.003,3.12C-0,7.49 0,11.86 0.001,16.23C0.001,17.843 1.024,19.051 2.616,19.322C2.639,19.326 2.66,19.341 2.682,19.352L11.753,19.352Z" style="fill:rgb(37,169,224);fill-rule:nonzero;"/>
    </g>
    <g transform="matrix(1,0,0,-1,-107.358,103.099)">
        <path d="M121.103,94.332C121.025,94.415 120.98,94.464 120.932,94.512C120.078,95.367 119.219,96.218 118.369,97.077C117.848,97.604 118.062,98.44 118.761,98.618C119.091,98.702 119.386,98.618 119.629,98.377C119.978,98.032 120.325,97.683 120.672,97.336C121.732,96.277 122.791,95.217 123.851,94.157C124.332,93.677 124.332,93.174 123.852,92.694C122.459,91.301 121.066,89.907 119.67,88.515C119.261,88.106 118.675,88.107 118.315,88.509C117.985,88.878 118.007,89.41 118.378,89.783C119.034,90.445 119.695,91.102 120.354,91.761C120.594,92 120.834,92.239 121.115,92.519L120.87,92.519C118.591,92.519 116.311,92.518 114.032,92.519C113.577,92.519 113.227,92.761 113.105,93.153C112.926,93.73 113.344,94.318 113.951,94.33C114.442,94.339 114.933,94.332 115.424,94.332C117.232,94.332 119.039,94.332 120.846,94.332L121.103,94.332Z" style="fill:rgb(37,169,224);fill-rule:nonzero;"/>
    </g>
</svg>
