<?xml version="1.0" encoding="UTF-8" standalone="no"?>
<!DOCTYPE svg PUBLIC "-//W3C//DTD SVG 1.1//EN" "http://www.w3.org/Graphics/SVG/1.1/DTD/svg11.dtd">
<svg width="100%" height="100%" viewBox="0 0 26 25" version="1.1" xmlns="http://www.w3.org/2000/svg" xmlns:xlink="http://www.w3.org/1999/xlink" xml:space="preserve" xmlns:serif="http://www.serif.com/" style="fill-rule:evenodd;clip-rule:evenodd;stroke-linejoin:round;stroke-miterlimit:2;">
    <g transform="matrix(1,0,0,1,-175.541,-134.5)">
        <g>
            <g transform="matrix(1,0,0,-1,175.541,159.504)">
                <path d="M25.003,17.185L25.003,17.504L24.684,17.504C23.147,17.504 21.611,17.5 20.075,17.504C18.135,17.51 16.673,18.977 16.669,20.919C16.667,22.178 16.669,23.436 16.669,24.695L16.669,25.004L16.448,25.004C13.141,25.004 9.834,25.004 6.526,25C6.241,25 5.953,24.981 5.672,24.937C2.393,24.43 0.005,21.646 0.002,18.33C-0.001,14.451 -0.001,10.572 0.006,6.693C0.007,6.297 0.044,5.896 0.108,5.504C0.616,2.405 3.406,0.017 6.54,0.009C10.515,-0.001 14.491,0.004 18.466,0.011C18.801,0.011 19.141,0.05 19.473,0.107C22.69,0.669 24.999,3.408 25.002,6.668C25.006,10.173 25.003,13.679 25.003,17.185M16.187,11.672C15.251,11.668 14.314,11.671 13.337,11.671L13.337,11.388C13.337,10.52 13.341,9.653 13.335,8.785C13.332,8.426 13.167,8.152 12.834,8C12.517,7.856 12.222,7.917 11.962,8.134C11.747,8.312 11.667,8.554 11.668,8.828C11.669,9.669 11.668,10.511 11.668,11.352L11.668,11.671L11.378,11.671C10.519,11.671 9.66,11.665 8.801,11.673C8.164,11.678 7.759,12.25 7.981,12.812C8.111,13.142 8.419,13.337 8.831,13.338C9.672,13.341 10.514,13.339 11.355,13.339L11.668,13.339C11.668,14.313 11.666,15.249 11.669,16.185C11.67,16.593 11.871,16.902 12.204,17.028C12.771,17.244 13.329,16.838 13.335,16.197C13.342,15.346 13.337,14.496 13.337,13.646L13.337,13.339L14.029,13.339C14.749,13.339 15.469,13.342 16.189,13.338C16.7,13.334 17.077,12.985 17.086,12.517C17.094,12.043 16.71,11.675 16.187,11.672" style="fill:rgb(37,169,224);fill-rule:nonzero;"/>
            </g>
            <g transform="matrix(1,0,0,-1,168.355,140.755)">
                <path d="M27.213,0.424C28.583,0.422 29.954,0.423 31.324,0.424C31.396,0.424 31.468,0.434 31.592,0.443C31.417,0.633 31.286,0.794 31.136,0.934C29.547,2.423 27.958,3.909 26.36,5.387C26.128,5.601 25.849,5.765 25.591,5.951C25.569,5.937 25.546,5.922 25.523,5.908L25.523,5.681C25.523,4.493 25.521,3.306 25.524,2.117C25.526,1.145 26.243,0.425 27.213,0.424" style="fill:rgb(37,169,224);fill-rule:nonzero;"/>
            </g>
        </g>
    </g>
</svg>
