<?xml version="1.0" encoding="UTF-8" standalone="no"?>
<!DOCTYPE svg PUBLIC "-//W3C//DTD SVG 1.1//EN" "http://www.w3.org/Graphics/SVG/1.1/DTD/svg11.dtd">
<svg width="100%" height="100%" viewBox="0 0 36 30" version="1.1" xmlns="http://www.w3.org/2000/svg" xmlns:xlink="http://www.w3.org/1999/xlink" xml:space="preserve" xmlns:serif="http://www.serif.com/" style="fill-rule:evenodd;clip-rule:evenodd;stroke-linejoin:round;stroke-miterlimit:2;">
    <g transform="matrix(1,0,0,-1,0,29.5874)">
        <g>
            <path d="M0,1.436L0,19.793C0.027,19.842 0.057,19.89 0.08,19.94C0.466,20.774 1.109,21.225 2.034,21.249C2.354,21.257 2.674,21.251 2.993,21.251C3.354,21.252 3.716,21.251 4.102,21.251C4.102,21.668 4.098,22.032 4.103,22.395C4.109,22.84 4.069,23.294 4.143,23.728C4.309,24.701 5.153,25.39 6.147,25.411C6.84,25.425 7.532,25.414 8.267,25.414C8.267,25.579 8.267,25.701 8.267,25.823C8.268,26.383 8.254,26.943 8.273,27.501C8.314,28.733 9.201,29.585 10.431,29.586C12.817,29.588 15.203,29.585 17.588,29.587C18.515,29.588 19.176,29.165 19.589,28.348C19.939,27.657 20.288,26.965 20.612,26.262C20.742,25.981 20.896,25.869 21.224,25.871C25.082,25.884 28.94,25.882 32.798,25.878C34.094,25.876 34.999,24.969 34.999,23.684C35.001,19.3 35,14.917 34.998,10.534C34.998,10.364 34.994,10.189 34.958,10.025C34.734,9.02 33.938,8.368 32.907,8.35C32.226,8.339 31.545,8.348 30.826,8.348C30.826,7.598 30.834,6.892 30.823,6.188C30.813,5.543 30.527,5.026 30.028,4.627C29.651,4.326 29.218,4.174 28.731,4.177C28.052,4.181 27.372,4.178 26.655,4.178C26.655,3.41 26.682,2.692 26.649,1.976C26.597,0.866 25.697,0.006 24.587,0.006C17.065,-0 9.543,-0.001 2.02,0.007C1.171,0.007 0.551,0.434 0.147,1.176C0.099,1.264 0.049,1.35 0,1.436M2.003,2.101L24.571,2.101L24.571,15.465L24.144,15.465C20.321,15.465 16.497,15.471 12.673,15.461C11.663,15.458 10.957,15.888 10.524,16.799C10.187,17.509 9.82,18.205 9.488,18.917C9.39,19.127 9.271,19.186 9.047,19.185C6.81,19.177 4.573,19.18 2.336,19.18C2.227,19.179 2.119,19.169 2.003,19.163L2.003,2.101ZM6.177,21.251C7.232,21.251 8.246,21.253 9.26,21.251C10.183,21.249 10.847,20.831 11.256,20.005C11.614,19.281 11.981,18.56 12.324,17.828C12.431,17.599 12.558,17.524 12.813,17.524C16.681,17.534 20.55,17.531 24.418,17.529C24.6,17.529 24.786,17.528 24.962,17.491C26.027,17.264 26.662,16.449 26.664,15.287C26.669,12.423 26.666,9.559 26.666,6.694L26.666,6.269L28.744,6.269L28.744,19.627L28.177,19.627C24.411,19.628 20.645,19.634 16.88,19.623C15.844,19.621 15.118,20.057 14.676,20.993C14.351,21.683 13.995,22.359 13.674,23.05C13.568,23.276 13.446,23.364 13.188,23.363C10.963,23.351 8.738,23.356 6.512,23.355C6.403,23.355 6.294,23.345 6.177,23.339L6.177,21.251ZM10.355,25.417L10.751,25.417C11.642,25.417 12.532,25.416 13.422,25.417C14.346,25.419 15.011,25.004 15.421,24.179C15.781,23.454 16.151,22.734 16.492,22.001C16.6,21.766 16.734,21.7 16.984,21.7C20.807,21.708 24.631,21.678 28.455,21.721C29.777,21.737 30.872,20.822 30.846,19.347C30.794,16.505 30.831,13.663 30.831,10.821L30.831,10.437L32.91,10.437L32.91,23.788L32.439,23.788C28.638,23.788 24.838,23.79 21.037,23.787C20.04,23.786 19.308,24.195 18.872,25.111C18.534,25.82 18.167,26.516 17.837,27.229C17.729,27.462 17.594,27.532 17.344,27.531C15.13,27.522 12.915,27.526 10.701,27.525C10.59,27.525 10.48,27.515 10.355,27.509L10.355,25.417Z" style="fill:rgb(37,169,224);fill-rule:nonzero;"/>
        </g>
    </g>
</svg>
