<?xml version="1.0" encoding="UTF-8" standalone="no"?>
<!DOCTYPE svg PUBLIC "-//W3C//DTD SVG 1.1//EN" "http://www.w3.org/Graphics/SVG/1.1/DTD/svg11.dtd">
<svg width="100%" height="100%" viewBox="0 0 23 20" version="1.1" xmlns="http://www.w3.org/2000/svg" xmlns:xlink="http://www.w3.org/1999/xlink" xml:space="preserve" xmlns:serif="http://www.serif.com/" style="fill-rule:evenodd;clip-rule:evenodd;stroke-linejoin:round;stroke-miterlimit:2;">
    <g transform="matrix(1,0,0,-1,5343,64.0002)">
        <path d="M-5325.12,44.553C-5325.16,44.59 -5325.21,44.629 -5325.26,44.677C-5325.62,44.345 -5326.02,44.115 -5326.5,44.036C-5326.64,44.012 -5326.79,43.999 -5326.94,44.003C-5327.29,44.011 -5327.56,44.285 -5327.59,44.629C-5327.59,44.644 -5327.59,44.658 -5327.59,44.673C-5327.59,44.971 -5327.36,45.246 -5327.06,45.315C-5326.98,45.333 -5326.9,45.339 -5326.82,45.347C-5326.34,45.394 -5325.96,45.772 -5325.94,46.244C-5325.94,46.369 -5325.93,46.495 -5325.93,46.622C-5325.93,46.834 -5325.94,47.051 -5325.94,47.281L-5326.23,47.281C-5330.99,47.281 -5335.75,47.28 -5340.51,47.281C-5341.64,47.282 -5342.54,47.9 -5342.88,48.917C-5342.92,49.057 -5342.96,49.2 -5343,49.342L-5343,58.658C-5342.9,58.936 -5342.84,59.235 -5342.69,59.488C-5342.23,60.309 -5341.5,60.716 -5340.56,60.717C-5338.22,60.721 -5335.89,60.719 -5333.55,60.719L-5325.95,60.719C-5325.95,60.958 -5325.94,61.194 -5325.94,61.425C-5325.94,61.573 -5325.94,61.72 -5325.96,61.866C-5326.01,62.321 -5326.39,62.61 -5326.88,62.657C-5327.31,62.698 -5327.58,62.969 -5327.58,63.313C-5327.59,63.381 -5327.57,63.451 -5327.55,63.523C-5327.46,63.818 -5327.22,64 -5326.9,64C-5326.35,64.001 -5325.86,63.817 -5325.44,63.471C-5325.38,63.425 -5325.32,63.377 -5325.26,63.323C-5324.91,63.654 -5324.51,63.881 -5324.04,63.961C-5323.89,63.987 -5323.73,64.001 -5323.57,63.996C-5323.24,63.986 -5322.97,63.722 -5322.94,63.385C-5322.94,63.368 -5322.94,63.351 -5322.94,63.334C-5322.94,63.037 -5323.15,62.76 -5323.45,62.688C-5323.53,62.669 -5323.61,62.662 -5323.69,62.654C-5324.16,62.609 -5324.54,62.262 -5324.58,61.793C-5324.59,61.658 -5324.6,61.521 -5324.59,61.383C-5324.59,61.168 -5324.59,60.948 -5324.59,60.719C-5324.4,60.719 -5324.22,60.721 -5324.05,60.718C-5323.85,60.715 -5323.65,60.717 -5323.44,60.719C-5322.99,60.723 -5322.53,60.727 -5322.08,60.671C-5320.92,60.528 -5320.08,59.537 -5320.07,58.367C-5320.07,57.785 -5320.07,57.203 -5320.07,56.621C-5320.07,55.77 -5320.07,54.919 -5320.07,54.068L-5320.07,51.395C-5320.07,50.86 -5320.07,50.326 -5320.07,49.791C-5320.07,48.293 -5321.09,47.283 -5322.59,47.281C-5323.24,47.28 -5323.9,47.281 -5324.61,47.281C-5324.59,46.857 -5324.6,46.439 -5324.54,46.035C-5324.47,45.654 -5324.11,45.388 -5323.72,45.348C-5323.64,45.34 -5323.57,45.337 -5323.5,45.322C-5323.17,45.258 -5322.94,44.982 -5322.94,44.67C-5322.94,44.652 -5322.94,44.634 -5322.94,44.616C-5322.97,44.262 -5323.25,44.002 -5323.62,44C-5323.62,44 -5323.62,44 -5323.63,44C-5324.19,44 -5324.69,44.193 -5325.12,44.553ZM-5322.59,48.625C-5321.82,48.625 -5321.41,49.032 -5321.41,49.795C-5321.41,50.847 -5321.41,51.899 -5321.41,52.951C-5321.41,54.704 -5321.41,56.457 -5321.41,58.211C-5321.41,58.237 -5321.41,58.263 -5321.41,58.289C-5321.41,58.323 -5321.41,58.356 -5321.42,58.39C-5321.44,58.903 -5321.84,59.347 -5322.35,59.364C-5323.09,59.389 -5323.82,59.371 -5324.57,59.371L-5324.57,48.625C-5323.9,48.625 -5323.25,48.624 -5322.59,48.625ZM-5341.66,49.813C-5341.66,49.031 -5341.25,48.625 -5340.47,48.625C-5335.71,48.625 -5330.95,48.625 -5326.19,48.625L-5325.94,48.625L-5325.94,59.375L-5340.47,59.375C-5341.25,59.375 -5341.66,58.97 -5341.66,58.188L-5341.66,49.813ZM-5332.92,49.527C-5333.24,49.574 -5333.48,49.832 -5333.5,50.151C-5333.5,50.184 -5333.51,50.218 -5333.51,50.251C-5333.51,50.285 -5333.5,50.319 -5333.5,50.352C-5333.5,52.785 -5333.5,55.217 -5333.5,57.65C-5333.5,57.683 -5333.5,57.717 -5333.5,57.751C-5333.5,57.807 -5333.5,57.863 -5333.49,57.917C-5333.43,58.258 -5333.12,58.5 -5332.79,58.477C-5332.44,58.453 -5332.17,58.173 -5332.16,57.81C-5332.16,57.485 -5332.16,57.161 -5332.16,56.835C-5332.16,56.359 -5332.16,55.878 -5332.16,55.388C-5330.26,56.584 -5328.46,55.717 -5327.69,54.677C-5327.27,54.099 -5327.06,53.417 -5327.06,52.738C-5327.06,51.981 -5327.32,51.227 -5327.85,50.626C-5328.8,49.54 -5330.55,49.06 -5332.14,50.106C-5332.17,50.052 -5332.19,50.001 -5332.21,49.949C-5332.32,49.688 -5332.57,49.52 -5332.83,49.52C-5332.86,49.52 -5332.89,49.522 -5332.92,49.527ZM-5330.28,50.866C-5329.25,50.865 -5328.4,51.709 -5328.4,52.744C-5328.4,53.781 -5329.24,54.625 -5330.28,54.627C-5331.31,54.628 -5332.16,53.781 -5332.16,52.748C-5332.16,51.716 -5331.31,50.866 -5330.28,50.866ZM-5335.96,50.077C-5335.97,50.14 -5335.97,50.205 -5335.98,50.272C-5337.67,49.549 -5338.99,49.785 -5339.91,50.968C-5340.33,51.507 -5340.54,52.151 -5340.54,52.794C-5340.54,53.417 -5340.34,54.039 -5339.94,54.563C-5339.47,55.175 -5338.85,55.557 -5338.09,55.693C-5337.35,55.828 -5336.65,55.674 -5335.99,55.275C-5335.97,55.375 -5335.96,55.455 -5335.94,55.532C-5335.86,55.856 -5335.56,56.07 -5335.24,56.04C-5334.9,56.007 -5334.63,55.738 -5334.63,55.387C-5334.62,54.518 -5334.62,53.649 -5334.62,52.78C-5334.62,51.911 -5334.62,51.042 -5334.63,50.173C-5334.63,49.823 -5334.91,49.549 -5335.25,49.523C-5335.26,49.522 -5335.28,49.521 -5335.3,49.521C-5335.61,49.521 -5335.89,49.752 -5335.96,50.077ZM-5339.19,52.775C-5339.19,51.889 -5338.47,51.172 -5337.58,51.173C-5336.69,51.174 -5335.97,51.891 -5335.97,52.779C-5335.97,53.664 -5336.69,54.391 -5337.57,54.397C-5338.46,54.402 -5339.19,53.673 -5339.19,52.785L-5339.19,52.775Z" style="fill:rgb(37,168,224);fill-rule:nonzero;"/>
    </g>
</svg>
