<?xml version="1.0" encoding="UTF-8" standalone="no"?>
<!DOCTYPE svg PUBLIC "-//W3C//DTD SVG 1.1//EN" "http://www.w3.org/Graphics/SVG/1.1/DTD/svg11.dtd">
<svg width="100%" height="100%" viewBox="0 0 35 36" version="1.1" xmlns="http://www.w3.org/2000/svg" xmlns:xlink="http://www.w3.org/1999/xlink" xml:space="preserve" xmlns:serif="http://www.serif.com/" style="fill-rule:evenodd;clip-rule:evenodd;stroke-linejoin:round;stroke-miterlimit:2;">
    <g transform="matrix(1,0,0,-1,0,35.0002)">
        <path d="M29.094,23.625L31.5,28.219L28.438,31.281L23.844,28.875C23.188,29.313 22.313,29.531 21.438,29.75L19.688,35L15.312,35L13.562,29.969C12.906,29.75 12.031,29.531 11.375,29.094L6.781,31.5L3.5,28.219L5.906,23.625C5.469,22.969 5.25,22.094 5.031,21.438L0,19.688L0,15.313L5.031,13.563C5.25,12.688 5.687,12.031 5.906,11.156L3.5,6.563L6.562,3.5L11.156,5.906C11.813,5.469 12.687,5.25 13.562,5.031L15.312,0L19.688,0L21.438,5.031C22.312,5.25 22.969,5.688 23.844,5.906L28.438,3.5L31.5,6.563L29.094,11.156C29.531,11.813 29.75,12.688 29.969,13.563L35,15.313L35,19.688L29.969,21.438C29.75,22.094 29.531,22.969 29.094,23.625ZM17.5,10.938C13.781,10.938 10.937,13.781 10.937,17.5C10.937,21.219 13.781,24.063 17.5,24.063C21.219,24.063 24.062,21.219 24.062,17.5C24.062,13.781 21.219,10.938 17.5,10.938Z" style="fill:rgb(37,169,224);fill-rule:nonzero;"/>
    </g>
</svg>
