<?xml version="1.0" encoding="UTF-8" standalone="no"?>
<!DOCTYPE svg PUBLIC "-//W3C//DTD SVG 1.1//EN" "http://www.w3.org/Graphics/SVG/1.1/DTD/svg11.dtd">
<svg width="100%" height="100%" viewBox="0 0 13 21" version="1.1" xmlns="http://www.w3.org/2000/svg" xmlns:xlink="http://www.w3.org/1999/xlink" xml:space="preserve" xmlns:serif="http://www.serif.com/" style="fill-rule:evenodd;clip-rule:evenodd;stroke-linejoin:round;stroke-miterlimit:2;">
    <g transform="matrix(1,0,0,-1,-0.0783352,7.49512)">
        <path d="M6.32,4.541C6.208,4.393 6.153,4.298 6.077,4.223C4.803,2.946 3.527,1.67 2.251,0.395C1.87,0.014 1.417,-0.104 0.91,0.073C0.425,0.244 0.154,0.611 0.094,1.119C0.049,1.498 0.168,1.836 0.438,2.107C2.111,3.785 3.783,5.464 5.466,7.132C5.962,7.623 6.705,7.613 7.204,7.118C8.873,5.462 10.534,3.8 12.191,2.133C12.703,1.618 12.692,0.837 12.193,0.349C11.704,-0.128 10.935,-0.128 10.43,0.372C9.142,1.65 7.863,2.935 6.582,4.219C6.506,4.295 6.446,4.386 6.32,4.541" style="fill:rgb(37,169,224);fill-rule:nonzero;"/>
    </g>
    <g transform="matrix(1,0,0,-1,-0.000210195,179.825)">
        <path d="M6.234,162.83C6.715,163.312 7.154,163.754 7.594,164.194C8.511,165.112 9.427,166.03 10.346,166.945C10.721,167.318 11.171,167.421 11.665,167.248C12.151,167.078 12.421,166.712 12.482,166.203C12.527,165.824 12.408,165.484 12.139,165.215C10.467,163.536 8.794,161.857 7.11,160.189C6.623,159.706 5.881,159.703 5.394,160.184C3.704,161.859 2.021,163.541 0.347,165.233C-0.139,165.725 -0.103,166.494 0.383,166.971C0.871,167.45 1.637,167.453 2.145,166.95C3.434,165.674 4.713,164.387 5.995,163.104C6.071,163.028 6.136,162.943 6.234,162.83" style="fill:rgb(37,169,224);fill-rule:nonzero;"/>
    </g>
</svg>
