<?xml version="1.0" encoding="UTF-8" standalone="no"?>
<!DOCTYPE svg PUBLIC "-//W3C//DTD SVG 1.1//EN" "http://www.w3.org/Graphics/SVG/1.1/DTD/svg11.dtd">
<svg width="100%" height="100%" viewBox="0 0 20 23" version="1.1" xmlns="http://www.w3.org/2000/svg" xmlns:xlink="http://www.w3.org/1999/xlink" xml:space="preserve" xmlns:serif="http://www.serif.com/" style="fill-rule:evenodd;clip-rule:evenodd;stroke-linejoin:round;stroke-miterlimit:2;">
    <g transform="matrix(1,0,0,-1,3353,65.3751)">
        <path d="M-3342.45,43.232L-3342.45,44.494L-3333,44.494L-3333,43.232L-3342.45,43.232ZM-3345.14,43.232L-3345.14,44.494L-3343.98,44.494L-3343.98,43.232L-3345.14,43.232ZM-3347.76,43.232L-3347.76,44.494L-3346.6,44.494L-3346.6,43.232L-3347.76,43.232ZM-3350.38,43.232L-3350.38,44.494L-3349.22,44.494L-3349.22,43.232L-3350.38,43.232ZM-3353,43.232L-3353,44.494L-3351.84,44.494L-3351.84,43.232L-3353,43.232ZM-3353,44.51C-3353,46.097 -3353,47.684 -3353,49.27C-3353,49.407 -3352.96,49.501 -3352.86,49.595C-3352.13,50.292 -3351.4,50.996 -3350.67,51.697C-3350.62,51.744 -3350.57,51.789 -3350.54,51.821C-3349.73,51.011 -3348.92,50.209 -3348.11,49.394C-3348.14,49.362 -3348.19,49.306 -3348.24,49.254C-3349.77,47.729 -3351.29,46.206 -3352.81,44.681C-3352.87,44.628 -3352.91,44.568 -3352.96,44.51L-3353,44.51ZM-3351.5,53.471C-3351.47,53.505 -3351.43,53.551 -3351.39,53.594C-3347.8,57.181 -3344.22,60.771 -3340.63,64.353C-3338.84,66.143 -3335.85,65.488 -3335.04,63.119C-3334.61,61.86 -3334.87,60.718 -3335.75,59.719C-3335.83,59.63 -3335.91,59.549 -3336,59.466C-3339.53,55.932 -3343.06,52.399 -3346.59,48.865C-3346.64,48.817 -3346.68,48.757 -3346.73,48.698C-3348.34,50.307 -3349.91,51.884 -3351.5,53.471ZM-3346.06,55.003L-3345.23,54.17C-3343.24,56.164 -3341.24,58.166 -3339.28,60.129C-3339.55,60.403 -3339.83,60.69 -3340.1,60.964C-3342.08,58.985 -3344.08,56.988 -3346.06,55.003Z" style="fill:rgb(37,169,224);fill-rule:nonzero;"/>
    </g>
</svg>
