<?xml version="1.0" encoding="UTF-8" standalone="no"?>
<!DOCTYPE svg PUBLIC "-//W3C//DTD SVG 1.1//EN" "http://www.w3.org/Graphics/SVG/1.1/DTD/svg11.dtd">
<svg width="100%" height="100%" viewBox="0 0 20 20" version="1.1" xmlns="http://www.w3.org/2000/svg" xmlns:xlink="http://www.w3.org/1999/xlink" xml:space="preserve" xmlns:serif="http://www.serif.com/" style="fill-rule:evenodd;clip-rule:evenodd;stroke-linejoin:round;stroke-miterlimit:2;">
    <g transform="matrix(1,0,0,-1,3353,63.8773)">
        <path d="M-3344.79,44.361C-3344.84,44.482 -3344.88,44.606 -3344.91,44.727C-3344.97,44.897 -3345.02,45.057 -3345.09,45.209C-3346.55,48.442 -3348.92,50.718 -3352.12,51.974C-3352.18,51.998 -3352.24,52.018 -3352.31,52.038C-3352.39,52.062 -3352.48,52.087 -3352.56,52.121C-3352.88,52.255 -3353.06,52.602 -3352.98,52.93C-3352.89,53.286 -3352.58,53.489 -3352.15,53.47L-3352.13,53.469L-3352.1,53.46C-3352.02,53.432 -3351.93,53.401 -3351.83,53.368C-3351.59,53.288 -3351.32,53.198 -3351.06,53.087C-3349.26,52.336 -3347.66,51.16 -3346.17,49.492C-3344.92,48.099 -3344.07,46.686 -3343.57,45.173L-3343.56,45.134C-3343.52,45.021 -3343.48,44.903 -3343.45,44.782C-3343.36,44.404 -3343.56,44.056 -3343.93,43.937C-3344,43.915 -3344.07,43.904 -3344.14,43.904C-3344.42,43.904 -3344.68,44.077 -3344.79,44.361ZM-3334.3,47.615C-3334.34,47.68 -3334.38,47.756 -3334.41,47.848C-3335.27,50.111 -3336.59,52.293 -3338.44,54.519C-3340.58,57.091 -3343.04,59.229 -3345.76,60.873C-3346.85,61.534 -3347.88,62.047 -3348.92,62.439C-3348.98,62.462 -3349.04,62.487 -3349.09,62.508C-3349.51,62.691 -3349.68,63.057 -3349.53,63.441C-3349.39,63.815 -3348.98,63.973 -3348.57,63.818C-3347.24,63.315 -3345.97,62.683 -3344.79,61.942C-3340.24,59.061 -3336.67,55.299 -3334.2,50.761C-3333.9,50.222 -3333.66,49.649 -3333.42,49.095C-3333.32,48.859 -3333.21,48.615 -3333.11,48.377C-3333.07,48.297 -3333.05,48.216 -3333.03,48.15C-3333.02,48.126 -3333.02,48.104 -3333.01,48.085L-3333,48.048L-3333.01,48.009C-3333.05,47.654 -3333.22,47.435 -3333.51,47.338C-3333.58,47.315 -3333.65,47.304 -3333.72,47.304C-3333.95,47.304 -3334.17,47.418 -3334.3,47.615ZM-3343.36,47.702C-3345.31,49.661 -3347.28,51.627 -3349.2,53.549C-3349.5,53.844 -3349.49,54.136 -3349.42,54.329C-3349.34,54.589 -3349.14,54.747 -3348.81,54.813C-3347.07,55.159 -3345.29,55.515 -3343.58,55.86C-3342.9,55.997 -3342.22,56.133 -3341.54,56.269C-3341.49,56.281 -3341.43,56.286 -3341.39,56.289C-3341.39,56.29 -3341.38,56.291 -3341.38,56.291L-3341.36,56.293L-3341.35,56.292C-3341.11,56.289 -3340.9,56.198 -3340.76,56.034C-3340.63,55.865 -3340.58,55.634 -3340.63,55.381C-3340.69,55.058 -3340.76,54.735 -3340.82,54.412L-3341.17,52.668C-3341.47,51.168 -3341.79,49.617 -3342.09,48.091C-3342.15,47.768 -3342.32,47.562 -3342.58,47.478C-3342.65,47.454 -3342.73,47.442 -3342.8,47.442C-3343,47.442 -3343.18,47.529 -3343.36,47.702ZM-3347.21,53.692L-3343.21,49.688L-3342.21,54.691L-3347.21,53.692Z" style="fill:rgb(37,169,224);fill-rule:nonzero;"/>
    </g>
</svg>
