<?xml version="1.0" encoding="UTF-8" standalone="no"?>
<!DOCTYPE svg PUBLIC "-//W3C//DTD SVG 1.1//EN" "http://www.w3.org/Graphics/SVG/1.1/DTD/svg11.dtd">
<svg width="100%" height="100%" viewBox="0 0 32 20" version="1.1" xmlns="http://www.w3.org/2000/svg" xmlns:xlink="http://www.w3.org/1999/xlink" xml:space="preserve" xmlns:serif="http://www.serif.com/" style="fill-rule:evenodd;clip-rule:evenodd;stroke-linejoin:round;stroke-miterlimit:2;">
    <g transform="matrix(1,0,0,-1,0,19.5249)">
        <g>
            <path d="M0,17.162C0.164,17.865 0.467,18.48 1.05,18.944C2.393,20.013 4.459,19.539 5.176,17.974C5.271,17.767 5.372,17.699 5.598,17.7C7.909,17.709 10.221,17.706 12.533,17.706L12.844,17.706C12.844,18.001 12.842,18.279 12.844,18.557C12.849,19.15 13.215,19.521 13.806,19.522C14.987,19.525 16.168,19.526 17.349,19.522C17.919,19.52 18.287,19.144 18.293,18.569C18.296,18.297 18.293,18.025 18.293,17.706L18.592,17.706C20.874,17.706 23.155,17.709 25.437,17.7C25.654,17.699 25.747,17.774 25.833,17.964C26.306,19.011 27.467,19.65 28.603,19.504C29.784,19.353 30.743,18.474 30.959,17.343C31.186,16.152 30.647,14.987 29.607,14.421C28.185,13.648 26.492,14.21 25.805,15.677C25.765,15.762 25.668,15.88 25.596,15.881C24.561,15.894 23.525,15.89 22.414,15.89C26.49,13.333 28.732,9.715 29.189,4.984C29.51,4.984 29.812,4.989 30.114,4.983C30.63,4.972 31.01,4.596 31.013,4.078C31.019,2.867 31.019,1.655 31.013,0.444C31.01,-0.075 30.632,-0.46 30.117,-0.463C28.896,-0.47 27.674,-0.47 26.453,-0.462C25.954,-0.459 25.571,-0.076 25.568,0.424C25.561,1.645 25.561,2.867 25.568,4.088C25.571,4.603 25.956,4.973 26.476,4.983C26.747,4.988 27.018,4.984 27.333,4.984C27.118,7.526 26.199,9.75 24.579,11.672C22.92,13.64 20.832,14.937 18.293,15.56C18.293,15.331 18.298,15.141 18.292,14.951C18.274,14.467 17.906,14.081 17.424,14.077C16.193,14.068 14.961,14.069 13.729,14.076C13.231,14.08 12.86,14.464 12.845,14.964C12.84,15.145 12.844,15.326 12.844,15.556C10.628,15.028 8.747,13.958 7.181,12.356C5.187,10.317 4.063,7.867 3.801,4.984C4.094,4.984 4.354,4.986 4.614,4.984C5.191,4.978 5.569,4.612 5.571,4.044C5.575,2.853 5.575,1.662 5.571,0.47C5.569,-0.084 5.193,-0.462 4.64,-0.464C3.489,-0.469 2.338,-0.445 1.188,-0.474C0.63,-0.489 0.23,-0.318 0,0.2L0,4.319C0.23,4.837 0.63,5.041 1.188,4.988C1.435,4.965 1.687,4.984 1.95,4.984C2.407,9.724 4.653,13.337 8.724,15.891C7.628,15.891 6.612,15.883 5.595,15.897C5.367,15.9 5.269,15.824 5.175,15.62C4.457,14.056 2.392,13.583 1.049,14.653C0.466,15.117 0.164,15.731 0,16.435L0,17.162ZM1.835,1.371L3.733,1.371L3.733,3.163L1.835,3.163L1.835,1.371ZM16.463,17.69L14.679,17.69L14.679,15.911L16.463,15.911L16.463,17.69ZM29.185,3.148L27.404,3.148L27.404,1.365L29.185,1.365L29.185,3.148ZM2.719,17.704C2.235,17.699 1.815,17.271 1.82,16.791C1.826,16.307 2.253,15.887 2.734,15.892C3.217,15.898 3.638,16.325 3.632,16.806C3.626,17.289 3.199,17.71 2.719,17.704M29.196,16.806C29.19,17.29 28.763,17.71 28.282,17.704C27.799,17.698 27.378,17.271 27.384,16.79C27.39,16.307 27.817,15.887 28.298,15.892C28.781,15.898 29.202,16.325 29.196,16.806" style="fill:rgb(37,169,224);fill-rule:nonzero;"/>
        </g>
    </g>
</svg>
