<?xml version="1.0" encoding="UTF-8" standalone="no"?>
<!DOCTYPE svg PUBLIC "-//W3C//DTD SVG 1.1//EN" "http://www.w3.org/Graphics/SVG/1.1/DTD/svg11.dtd">
<svg width="100%" height="100%" viewBox="0 0 20 19" version="1.1" xmlns="http://www.w3.org/2000/svg" xmlns:xlink="http://www.w3.org/1999/xlink" xml:space="preserve" xmlns:serif="http://www.serif.com/" style="fill-rule:evenodd;clip-rule:evenodd;stroke-linejoin:round;stroke-miterlimit:2;">
    <g transform="matrix(1,0,0,1,-501,-13.5231)">
        <g>
            <g transform="matrix(1,0,0,-1,221.265,85.4229)">
                <path d="M295.579,65.312C295.609,65.309 295.641,65.311 295.673,65.319C295.784,65.344 295.86,65.423 295.898,65.555C296.08,66.177 296.266,66.808 296.447,67.42L296.656,68.13C296.695,68.262 296.734,68.393 296.772,68.525C296.801,68.628 296.79,68.726 296.739,68.801C296.69,68.874 296.607,68.92 296.505,68.93L296.5,68.93C296.5,68.93 296.491,68.93 296.487,68.93C296.473,68.93 296.449,68.93 296.425,68.927C296.139,68.895 295.852,68.864 295.566,68.832C294.842,68.752 294.094,68.669 293.358,68.589C293.219,68.574 293.13,68.516 293.085,68.411C293.052,68.334 293.036,68.213 293.147,68.08C293.876,67.212 294.62,66.324 295.358,65.44C295.424,65.362 295.498,65.319 295.579,65.312M296.09,68.297L295.492,66.258L293.979,68.066L296.09,68.297Z" style="fill:rgb(37,169,224);fill-rule:nonzero;"/>
            </g>
            <g transform="matrix(1,0,0,-1,500.946,354.456)">
                <path d="M1.073,322.625L1.058,322.633C1.047,322.638 1.036,322.644 1.026,322.65C1.006,322.662 0.985,322.674 0.967,322.689C0.928,322.717 0.893,322.749 0.864,322.786C0.804,322.86 0.768,322.952 0.752,323.045C0.734,323.139 0.738,323.234 0.738,323.329L0.739,324.469L0.74,326.29L0.058,326.291L0.056,324.197C0.055,323.732 0.078,323.279 0.108,322.845C0.116,322.737 0.121,322.629 0.148,322.522C0.173,322.415 0.22,322.311 0.293,322.223C0.329,322.179 0.371,322.14 0.416,322.106C0.438,322.089 0.462,322.074 0.486,322.058C0.497,322.051 0.51,322.044 0.522,322.037L0.54,322.027C0.547,322.024 0.554,322.025 0.56,322.024L0.881,321.999L1.376,322.624L1.091,322.624C1.085,322.624 1.079,322.623 1.073,322.625" style="fill:rgb(37,169,224);fill-rule:nonzero;"/>
            </g>
            <g transform="matrix(-1,-0.000410529,0.000410529,-1,501.565,314.832)">
                <rect x="0" y="287.345" width="0.682" height="0.898" style="fill:rgb(37,169,224);"/>
            </g>
            <g transform="matrix(1,0,0,-1,468.889,435.3)">
                <path d="M33.641,402.801L34.123,402.783C34.203,402.779 34.287,402.782 34.369,402.781L34.616,402.781L34.843,403.463L34.033,403.463L33.641,402.801Z" style="fill:rgb(37,169,224);fill-rule:nonzero;"/>
            </g>
            <g transform="matrix(1,0,0,-1,505.897,32.5143)">
                <rect x="0" y="0" width="4.493" height="0.682" style="fill:rgb(37,169,224);"/>
            </g>
            <g transform="matrix(1,0,0,-1,432.197,435.298)">
                <path d="M72.08,402.779L73.022,402.779L73.022,403.461L72.166,403.461L72.08,402.779Z" style="fill:rgb(37,169,224);fill-rule:nonzero;"/>
            </g>
            <g transform="matrix(0,1,-1,0,914.664,-189.563)">
                <path d="M221.401,403.604L222.083,403.604L222.083,402.636L221.401,402.773L221.401,403.604Z" style="fill:rgb(37,169,224);fill-rule:nonzero;"/>
            </g>
            <g transform="matrix(1,0,0,-1,229.373,348.663)">
                <path d="M284.966,320.76L284.969,317.643C284.968,317.559 284.969,317.475 284.968,317.391C284.965,317.307 284.954,317.222 284.925,317.143C284.897,317.063 284.849,316.991 284.786,316.935C284.755,316.907 284.721,316.882 284.685,316.86C284.667,316.85 284.648,316.839 284.629,316.831L284.566,316.831L285.091,316.227L285.162,316.233C285.183,316.244 285.205,316.256 285.226,316.27C285.269,316.296 285.309,316.327 285.346,316.36C285.42,316.428 285.479,316.513 285.517,316.604C285.555,316.695 285.575,316.791 285.585,316.886C285.594,316.982 285.599,317.078 285.606,317.175C285.631,317.563 285.65,317.965 285.65,318.377L285.648,320.761L284.966,320.76Z" style="fill:rgb(37,169,224);fill-rule:nonzero;"/>
            </g>
            <g transform="matrix(1,0,0,-1,259.091,435.298)">
                <path d="M253.433,403.461L253.711,402.779L253.834,402.779C253.876,402.779 253.915,402.782 253.955,402.783L254.196,402.792L254.678,402.81L254.243,403.461L253.433,403.461Z" style="fill:rgb(37,169,224);fill-rule:nonzero;"/>
            </g>
            <g transform="matrix(0.000912205,1,-1,0.000912205,796.602,-267.253)">
                <rect x="293.329" y="281.845" width="0.899" height="0.682" style="fill:rgb(37,169,224);"/>
            </g>
            <g transform="matrix(1,0,0,-1,232.32,159.077)">
                <path d="M281.479,138.799C281.563,138.798 281.648,138.79 281.727,138.761C281.806,138.732 281.879,138.682 281.926,138.612C281.975,138.543 282,138.46 282.01,138.376C282.021,138.293 282.016,138.208 282.017,138.124L282.017,137.114L282.018,135.022L282.7,135.022L282.699,137.421C282.694,137.83 282.673,138.23 282.645,138.613C282.637,138.71 282.635,138.805 282.616,138.9C282.598,138.994 282.562,139.089 282.503,139.17C282.445,139.252 282.36,139.313 282.269,139.352C282.178,139.391 282.082,139.407 281.987,139.415L281.479,138.799Z" style="fill:rgb(37,169,224);fill-rule:nonzero;"/>
            </g>
            <g transform="matrix(1,0,0,-1,514.342,25.6316)">
                <rect x="0" y="0" width="0.682" height="0.899" style="fill:rgb(37,169,224);"/>
            </g>
            <g transform="matrix(0.474894,0.880043,-0.880043,0.474894,511.503,-264.588)">
                <path d="M251.111,133.107C250.946,133.379 250.785,133.665 250.629,133.956L251.111,134.499L251.496,133.786L251.111,133.107Z" style="fill:rgb(37,169,224);fill-rule:nonzero;"/>
            </g>
            <g transform="matrix(1,0,0,-1,505.741,20.2787)">
                <rect x="0" y="0" width="4.493" height="0.682" style="fill:rgb(37,169,224);"/>
            </g>
            <g transform="matrix(-1,0,0,-1,729.861,153.736)">
                <path d="M217.995,134.144L218.948,134.144L218.948,133.462L218.103,133.462L217.995,134.144Z" style="fill:rgb(37,169,224);fill-rule:nonzero;"/>
            </g>
            <g transform="matrix(-1,0,0,-1,573.554,153.736)">
                <path d="M68.483,134.144L69.441,134.144L69.324,133.462L68.483,133.462L68.483,134.144Z" style="fill:rgb(37,169,224);fill-rule:nonzero;"/>
            </g>
            <g transform="matrix(1,0,0,-1,500.868,159.24)">
                <path d="M0.82,137.233L0.82,138.243C0.821,138.327 0.818,138.412 0.823,138.496C0.829,138.579 0.848,138.663 0.888,138.737C0.927,138.813 0.993,138.871 1.069,138.907C1.145,138.943 1.23,138.957 1.314,138.961L0.8,139.573C0.705,139.562 0.609,139.539 0.521,139.493C0.434,139.447 0.355,139.377 0.306,139.29C0.255,139.204 0.227,139.108 0.213,139.013C0.201,138.918 0.196,138.823 0.189,138.726C0.162,138.341 0.141,137.941 0.139,137.53L0.138,135.136L0.82,135.136L0.82,137.233Z" style="fill:rgb(37,169,224);fill-rule:nonzero;"/>
            </g>
            <g transform="matrix(1,0,0,-1,472.3,153.736)">
                <path d="M30.488,133.462L31.298,133.462L31.041,134.144L30.904,134.144C30.62,134.144 30.34,134.135 30.067,134.12L30.488,133.462Z" style="fill:rgb(37,169,224);fill-rule:nonzero;"/>
            </g>
            <g transform="matrix(1,0,0,-1,501.001,25.6733)">
                <rect x="0" y="0" width="0.682" height="0.899" style="fill:rgb(37,169,224);"/>
            </g>
            <g transform="matrix(1,0,0,-1,272.908,22.4992)">
                <path d="M248.09,4.809C248.081,5.63 248.038,6.431 247.982,7.2C247.967,7.393 247.962,7.583 247.924,7.774C247.887,7.964 247.817,8.153 247.697,8.316C247.581,8.481 247.41,8.603 247.229,8.68C247.047,8.758 246.853,8.791 246.663,8.806L246.654,8.795C246.49,8.814 246.327,8.823 246.16,8.836C245.388,8.894 244.587,8.941 243.764,8.95L238.964,8.976L238.957,7.609L239.18,7.608L238.957,7.608L238.957,3.921L240.318,3.921L240.318,7.602L243.16,7.587L245.186,7.577C245.354,7.574 245.523,7.579 245.692,7.569L245.716,7.569C245.861,7.564 246.006,7.545 246.143,7.495C246.3,7.437 246.447,7.338 246.541,7.196C246.638,7.058 246.69,6.892 246.71,6.725C246.731,6.557 246.722,6.387 246.724,6.219L246.724,4.194L246.724,1.361L243.087,1.361L243.087,0L246.774,0L248.092,0L248.09,4.809Z" style="fill:rgb(37,169,224);fill-rule:nonzero;"/>
            </g>
        </g>
    </g>
</svg>
