<?xml version="1.0" encoding="UTF-8" standalone="no"?>
<!DOCTYPE svg PUBLIC "-//W3C//DTD SVG 1.1//EN" "http://www.w3.org/Graphics/SVG/1.1/DTD/svg11.dtd">
<svg width="100%" height="100%" viewBox="0 0 21 24" version="1.1" xmlns="http://www.w3.org/2000/svg" xmlns:xlink="http://www.w3.org/1999/xlink" xml:space="preserve" xmlns:serif="http://www.serif.com/" style="fill-rule:evenodd;clip-rule:evenodd;stroke-linejoin:round;stroke-miterlimit:2;">
    <g transform="matrix(1,0,0,-1,-623.458,727.676)">
        <path d="M633.445,712.361C633.333,712.208 633.277,712.104 633.197,712.024C630.564,709.393 627.927,706.765 625.296,704.132C624.959,703.795 624.59,703.623 624.119,703.792C623.73,703.932 623.484,704.282 623.47,704.695C623.468,704.778 623.469,704.861 623.469,704.944C623.469,712.122 623.477,719.3 623.458,726.478C623.456,727.183 623.903,727.678 624.665,727.676C630.546,727.654 636.427,727.664 642.307,727.663C643.077,727.663 643.453,727.289 643.453,726.52C643.453,719.311 643.451,712.102 643.458,704.892C643.458,704.397 643.313,704.006 642.844,703.807C642.359,703.602 641.969,703.787 641.613,704.144C638.998,706.764 636.376,709.377 633.757,711.993C633.669,712.081 633.595,712.183 633.445,712.361" style="fill:rgb(37,169,224);fill-rule:nonzero;"/>
    </g>
</svg>
