<?xml version="1.0" encoding="UTF-8" standalone="no"?>
<!DOCTYPE svg PUBLIC "-//W3C//DTD SVG 1.1//EN" "http://www.w3.org/Graphics/SVG/1.1/DTD/svg11.dtd">
<svg width="100%" height="100%" viewBox="0 0 21 20" version="1.1" xmlns="http://www.w3.org/2000/svg" xmlns:xlink="http://www.w3.org/1999/xlink" xml:space="preserve" xmlns:serif="http://www.serif.com/" style="fill-rule:evenodd;clip-rule:evenodd;stroke-linejoin:round;stroke-miterlimit:2;">
    <g transform="matrix(1,0,0,-1,3353,63.1967)">
        <path d="M-3335.89,43.731C-3337.22,45.053 -3338.54,46.38 -3339.86,47.706C-3339.93,47.773 -3339.98,47.852 -3340.04,47.93C-3342.18,46.584 -3344.43,46.191 -3346.83,46.826C-3348.81,47.351 -3350.39,48.495 -3351.56,50.185C-3353.82,53.453 -3353.38,57.956 -3350.55,60.767C-3347.66,63.63 -3343.2,63.995 -3339.87,61.69C-3336.72,59.507 -3334.93,54.576 -3337.72,50.225C-3337.66,50.179 -3337.57,50.134 -3337.5,50.068C-3336.18,48.745 -3334.85,47.423 -3333.53,46.094C-3332.74,45.301 -3332.85,44.083 -3333.75,43.481C-3334.03,43.294 -3334.34,43.201 -3334.66,43.201C-3335.09,43.201 -3335.53,43.38 -3335.89,43.731ZM-3350.5,54.862C-3350.49,51.664 -3347.86,49.038 -3344.67,49.038C-3341.47,49.038 -3338.84,51.665 -3338.83,54.864C-3338.83,58.062 -3341.45,60.692 -3344.65,60.7C-3344.66,60.7 -3344.66,60.7 -3344.67,60.7C-3347.87,60.7 -3350.5,58.064 -3350.5,54.862ZM-3344.67,50.706C-3345.15,50.708 -3345.5,51.074 -3345.5,51.582C-3345.5,52.388 -3345.5,53.194 -3345.5,54.037L-3345.79,54.037C-3346.51,54.037 -3347.24,54.035 -3347.97,54.038C-3348.47,54.04 -3348.84,54.397 -3348.83,54.882C-3348.83,55.352 -3348.47,55.699 -3347.97,55.7C-3347.16,55.703 -3346.35,55.701 -3345.5,55.701C-3345.5,56.535 -3345.5,57.331 -3345.5,58.129C-3345.5,58.663 -3345.16,59.03 -3344.68,59.033C-3344.17,59.036 -3343.84,58.668 -3343.83,58.119C-3343.83,57.323 -3343.83,56.527 -3343.83,55.701L-3343.07,55.701C-3342.49,55.701 -3341.9,55.705 -3341.32,55.699C-3340.86,55.695 -3340.5,55.33 -3340.5,54.871C-3340.5,54.409 -3340.85,54.042 -3341.32,54.039C-3342.14,54.033 -3342.97,54.038 -3343.83,54.038L-3343.83,53.757C-3343.83,53.028 -3343.83,52.3 -3343.84,51.571C-3343.84,51.068 -3344.19,50.706 -3344.67,50.706C-3344.67,50.706 -3344.67,50.706 -3344.67,50.706Z" style="fill:rgb(37,169,224);fill-rule:nonzero;"/>
    </g>
</svg>
