<?xml version="1.0" encoding="UTF-8" standalone="no"?>
<!DOCTYPE svg PUBLIC "-//W3C//DTD SVG 1.1//EN" "http://www.w3.org/Graphics/SVG/1.1/DTD/svg11.dtd">
<svg width="100%" height="100%" viewBox="0 0 20 20" version="1.1" xmlns="http://www.w3.org/2000/svg" xmlns:xlink="http://www.w3.org/1999/xlink" xml:space="preserve" xmlns:serif="http://www.serif.com/" style="fill-rule:evenodd;clip-rule:evenodd;stroke-linejoin:round;stroke-miterlimit:2;">
    <g transform="matrix(1,0,0,-1,3353,63.1968)">
        <path d="M-3335.89,43.731C-3337.22,45.053 -3338.54,46.38 -3339.86,47.706C-3339.93,47.772 -3339.98,47.853 -3340.04,47.929C-3342.18,46.584 -3344.43,46.191 -3346.83,46.826C-3348.81,47.351 -3350.39,48.494 -3351.55,50.185C-3353.81,53.453 -3353.38,57.956 -3350.55,60.768C-3347.66,63.63 -3343.2,63.995 -3339.87,61.691C-3336.72,59.507 -3334.93,54.576 -3337.72,50.224C-3337.66,50.178 -3337.57,50.134 -3337.5,50.067C-3336.18,48.744 -3334.85,47.423 -3333.53,46.094C-3332.74,45.301 -3332.85,44.083 -3333.75,43.481C-3334.03,43.294 -3334.34,43.202 -3334.66,43.202C-3335.1,43.202 -3335.53,43.38 -3335.89,43.731ZM-3350.5,54.862C-3350.49,51.664 -3347.86,49.038 -3344.67,49.038C-3341.47,49.038 -3338.84,51.665 -3338.83,54.864C-3338.83,58.061 -3341.45,60.691 -3344.65,60.7C-3344.66,60.7 -3344.66,60.7 -3344.67,60.7C-3347.87,60.7 -3350.5,58.064 -3350.5,54.862ZM-3343.83,54.037L-3345.79,54.037C-3346.51,54.037 -3347.24,54.035 -3347.97,54.038C-3348.47,54.04 -3348.84,54.397 -3348.83,54.882C-3348.83,55.352 -3348.47,55.699 -3347.97,55.701C-3347.16,55.703 -3346.35,55.701 -3345.5,55.701L-3343.07,55.701C-3342.49,55.701 -3341.9,55.705 -3341.32,55.7C-3340.86,55.695 -3340.5,55.33 -3340.5,54.871C-3340.5,54.409 -3340.85,54.042 -3341.32,54.039C-3341.67,54.037 -3342.03,54.036 -3342.38,54.036C-3342.86,54.036 -3343.34,54.037 -3343.83,54.037Z" style="fill:rgb(37,169,224);fill-rule:nonzero;"/>
    </g>
</svg>
