<?xml version="1.0" encoding="UTF-8" standalone="no"?>
<!DOCTYPE svg PUBLIC "-//W3C//DTD SVG 1.1//EN" "http://www.w3.org/Graphics/SVG/1.1/DTD/svg11.dtd">
<svg width="100%" height="100%" viewBox="0 0 25 25" version="1.1" xmlns="http://www.w3.org/2000/svg" xmlns:xlink="http://www.w3.org/1999/xlink" xml:space="preserve" xmlns:serif="http://www.serif.com/" style="fill-rule:evenodd;clip-rule:evenodd;stroke-linejoin:round;stroke-miterlimit:2;">
    <g transform="matrix(1,0,0,-1,-1061.26,154.783)">
        <path d="M1073.28,154.783C1079.9,154.796 1085.32,149.385 1085.32,142.755C1085.32,136.126 1079.9,130.712 1073.28,130.726C1066.66,130.74 1061.29,136.106 1061.26,142.737C1061.24,149.353 1066.64,154.769 1073.28,154.783M1073.28,140.622C1073.38,140.523 1073.48,140.441 1073.57,140.353C1074.19,139.732 1074.8,139.101 1075.44,138.49C1075.94,138.008 1076.65,137.932 1077.22,138.263C1077.79,138.585 1078.11,139.24 1077.93,139.882C1077.84,140.193 1077.64,140.5 1077.42,140.739C1076.78,141.421 1076.1,142.068 1075.41,142.753C1076.12,143.451 1076.79,144.117 1077.45,144.791C1078.13,145.476 1078.16,146.398 1077.53,147.015C1076.91,147.623 1076,147.585 1075.33,146.919C1074.73,146.324 1074.14,145.724 1073.54,145.128C1073.46,145.049 1073.37,144.975 1073.28,144.886C1072.57,145.598 1071.9,146.286 1071.21,146.96C1070.56,147.597 1069.64,147.606 1069.04,146.998C1068.44,146.391 1068.46,145.475 1069.1,144.826C1069.7,144.216 1070.31,143.614 1070.91,143.007C1070.99,142.927 1071.06,142.84 1071.19,142.696C1071.07,142.602 1070.95,142.537 1070.86,142.447C1070.25,141.845 1069.64,141.247 1069.05,140.629C1068.27,139.814 1068.56,138.522 1069.6,138.158C1070.22,137.943 1070.76,138.096 1071.21,138.551C1071.89,139.229 1072.57,139.913 1073.28,140.622" style="fill:rgb(37,169,224);fill-rule:nonzero;"/>
    </g>
</svg>
