<?xml version="1.0" encoding="UTF-8" standalone="no"?>
<!DOCTYPE svg PUBLIC "-//W3C//DTD SVG 1.1//EN" "http://www.w3.org/Graphics/SVG/1.1/DTD/svg11.dtd">
<svg width="100%" height="100%" viewBox="0 0 25 25" version="1.1" xmlns="http://www.w3.org/2000/svg" xmlns:xlink="http://www.w3.org/1999/xlink" xml:space="preserve" xmlns:serif="http://www.serif.com/" style="fill-rule:evenodd;clip-rule:evenodd;stroke-linejoin:round;stroke-miterlimit:2;">
    <g transform="matrix(1,0,0,-1,-531.13,112.68)">
        <path d="M543.169,112.68C549.811,112.676 555.194,107.277 555.187,100.628C555.179,93.991 549.777,88.615 543.122,88.623C536.481,88.631 531.119,94.041 531.13,100.724C531.14,107.309 536.552,112.684 543.169,112.68M543.135,99.439C543.84,99.439 544.546,99.439 545.252,99.439C546.719,99.44 548.187,99.434 549.654,99.443C550.48,99.448 551.037,100.214 550.805,101.006C550.686,101.416 550.281,101.871 549.535,101.869C545.285,101.858 541.035,101.864 536.785,101.864C536.729,101.864 536.673,101.863 536.617,101.861C535.978,101.836 535.47,101.316 535.461,100.677C535.45,99.975 535.981,99.442 536.712,99.441C538.853,99.437 540.994,99.44 543.135,99.439" style="fill:rgb(37,169,224);fill-rule:nonzero;"/>
    </g>
</svg>
