<?xml version="1.0" encoding="UTF-8" standalone="no"?>
<!DOCTYPE svg PUBLIC "-//W3C//DTD SVG 1.1//EN" "http://www.w3.org/Graphics/SVG/1.1/DTD/svg11.dtd">
<svg width="100%" height="100%" viewBox="0 0 25 25" version="1.1" xmlns="http://www.w3.org/2000/svg" xmlns:xlink="http://www.w3.org/1999/xlink" xml:space="preserve" xmlns:serif="http://www.serif.com/" style="fill-rule:evenodd;clip-rule:evenodd;stroke-linejoin:round;stroke-miterlimit:2;">
    <g transform="matrix(-1,0,0,1,24.0597,-0.00281012)">
        <g>
            <path d="M12.041,24.063C5.423,24.067 0.01,18.691 -0,12.105C-0.011,5.422 5.352,0.011 11.994,0.003C18.649,-0.005 24.052,5.372 24.06,12.01C24.067,18.66 18.683,24.059 12.041,24.063M18.733,6.118C18.733,5.6 18.461,5.33 17.938,5.33C13.999,5.33 10.059,5.33 6.12,5.33C5.596,5.33 5.325,5.599 5.325,6.118C5.325,10.062 5.325,14.005 5.325,17.948C5.325,18.46 5.598,18.735 6.107,18.735C7.918,18.735 9.728,18.736 11.539,18.735C12.036,18.734 12.371,18.291 12.228,17.833C12.136,17.537 11.869,17.349 11.534,17.349C10.556,17.348 9.578,17.348 8.601,17.348L6.719,17.348L6.719,6.727L17.346,6.727L17.346,6.894C17.346,8.444 17.345,9.995 17.347,11.545C17.348,12.035 17.782,12.368 18.237,12.234C18.51,12.154 18.711,11.906 18.731,11.622C18.735,11.574 18.733,11.525 18.733,11.477C18.733,9.691 18.733,7.905 18.733,6.118M18.731,14.326C18.729,13.949 18.415,13.652 18.042,13.651C17.662,13.65 17.351,13.951 17.348,14.336C17.343,14.948 17.346,15.559 17.346,16.171L17.346,16.362C17.287,16.305 17.247,16.268 17.209,16.229C15.063,14.085 12.917,11.941 10.773,9.794C10.565,9.585 10.335,9.467 10.035,9.544C9.546,9.671 9.353,10.259 9.673,10.65C9.715,10.702 9.765,10.748 9.812,10.796C11.951,12.934 14.089,15.073 16.229,17.21C16.266,17.247 16.313,17.273 16.356,17.303C16.346,17.318 16.336,17.334 16.326,17.349C15.667,17.349 15.008,17.346 14.349,17.35C13.947,17.352 13.641,17.666 13.648,18.057C13.655,18.429 13.956,18.733 14.336,18.734C15.574,18.737 16.812,18.735 18.049,18.735C18.054,18.735 18.059,18.735 18.064,18.735C18.428,18.72 18.729,18.432 18.73,18.067C18.736,16.82 18.736,15.573 18.731,14.326" style="fill:rgb(37,169,224);fill-rule:nonzero;"/>
        </g>
    </g>
</svg>
