<?xml version="1.0" encoding="UTF-8" standalone="no"?>
<!DOCTYPE svg PUBLIC "-//W3C//DTD SVG 1.1//EN" "http://www.w3.org/Graphics/SVG/1.1/DTD/svg11.dtd">
<svg width="100%" height="100%" viewBox="0 0 42 42" version="1.1" xmlns="http://www.w3.org/2000/svg" xmlns:xlink="http://www.w3.org/1999/xlink" xml:space="preserve" xmlns:serif="http://www.serif.com/" style="fill-rule:evenodd;clip-rule:evenodd;stroke-linejoin:round;stroke-miterlimit:2;">
    <g transform="matrix(1,0,0,-1,0,62.2736)">
        <path d="M41.409,45.018C41.189,47.592 40.773,50.127 39.841,52.551C38.236,56.725 35.263,59.466 31.033,60.876C28.792,61.624 26.481,62.046 24.129,62.164C22.214,62.26 20.29,62.315 18.376,62.235C15.385,62.109 12.436,61.648 9.629,60.539C5.445,58.886 2.759,55.842 1.394,51.598C0.697,49.431 0.339,47.199 0.163,44.935C0.118,44.361 0.055,43.787 0,43.213L0,40.052C0.056,39.425 0.113,38.797 0.167,38.17C0.392,35.529 0.822,32.93 1.806,30.452C3.508,26.168 6.665,23.483 11.033,22.152C13.133,21.512 15.289,21.17 17.475,21.004C18.066,20.96 18.655,20.897 19.245,20.843L22.331,20.843C22.961,20.898 23.591,20.956 24.222,21.009C26.812,21.23 29.362,21.648 31.801,22.588C36.182,24.277 38.929,27.453 40.276,31.897C40.908,33.983 41.248,36.12 41.413,38.288C41.458,38.877 41.521,39.464 41.576,40.052L41.576,43.132C41.52,43.761 41.463,44.389 41.409,45.018" style="fill:rgb(37,169,224);fill-rule:nonzero;"/>
    </g>
    <g transform="matrix(1,0,0,-1,-59.7186,120.612)">
        <path d="M93.329,90.277C91.542,92.077 89.744,93.866 87.947,95.657C87.857,95.747 87.738,95.807 87.648,95.869C91.436,101.76 89.01,108.435 84.741,111.391C80.236,114.511 74.193,114.016 70.287,110.142C66.45,106.335 65.867,100.24 68.927,95.816C70.509,93.528 72.64,91.98 75.328,91.268C78.572,90.409 81.624,90.942 84.508,92.763C84.592,92.659 84.664,92.55 84.754,92.46C86.546,90.665 88.338,88.869 90.136,87.08C90.956,86.264 92.124,86.135 93.029,86.74C94.247,87.556 94.395,89.205 93.329,90.277M78.251,94.263C73.922,94.263 70.363,97.818 70.356,102.148C70.35,106.489 73.927,110.063 78.268,110.051C82.601,110.039 86.151,106.479 86.146,102.15C86.141,97.82 82.581,94.264 78.251,94.263" style="fill:white;fill-rule:nonzero;"/>
    </g>
    <g transform="matrix(1,0,0,-1,-106.207,200.497)">
        <path d="M129.266,183.166C128.479,183.174 127.692,183.168 126.905,183.168C126.568,183.168 126.232,183.168 125.866,183.168L123.613,183.168C122.466,183.168 121.364,183.171 120.262,183.167C119.595,183.165 119.108,182.695 119.103,182.06C119.096,181.404 119.583,180.92 120.264,180.917C121.251,180.913 122.237,180.916 123.224,180.916L123.613,180.916L125.866,180.916C127.039,180.916 128.155,180.91 129.27,180.918C129.9,180.923 130.378,181.42 130.377,182.044C130.376,182.667 129.896,183.16 129.266,183.166" style="fill:white;fill-rule:nonzero;"/>
    </g>
</svg>
