<?xml version="1.0" encoding="UTF-8" standalone="no"?>
<!DOCTYPE svg PUBLIC "-//W3C//DTD SVG 1.1//EN" "http://www.w3.org/Graphics/SVG/1.1/DTD/svg11.dtd">
<svg width="100%" height="100%" viewBox="0 0 42 42" version="1.1" xmlns="http://www.w3.org/2000/svg" xmlns:xlink="http://www.w3.org/1999/xlink" xml:space="preserve" xmlns:serif="http://www.serif.com/" style="fill-rule:evenodd;clip-rule:evenodd;stroke-linejoin:round;stroke-miterlimit:2;">
    <g transform="matrix(1,0,0,-1,-486.656,51.8332)">
        <path d="M528.065,34.577C527.845,37.151 527.429,39.686 526.497,42.111C524.892,46.284 521.919,49.025 517.689,50.436C515.448,51.183 513.137,51.606 510.785,51.724C508.87,51.82 506.946,51.875 505.032,51.794C502.041,51.669 499.092,51.208 496.285,50.099C492.101,48.446 489.415,45.402 488.05,41.157C487.353,38.99 486.995,36.759 486.819,34.495C486.774,33.92 486.711,33.347 486.656,32.773L486.656,29.612C486.712,28.984 486.769,28.357 486.823,27.729C487.048,25.089 487.478,22.489 488.462,20.011C490.164,15.728 493.321,13.043 497.689,11.711C499.789,11.071 501.945,10.73 504.131,10.564C504.722,10.519 505.311,10.457 505.901,10.402L508.987,10.402C509.617,10.458 510.247,10.515 510.878,10.569C513.468,10.789 516.018,11.208 518.457,12.148C522.838,13.837 525.585,17.012 526.932,21.456C527.564,23.542 527.904,25.679 528.069,27.848C528.114,28.437 528.177,29.024 528.232,29.612L528.232,32.692C528.176,33.32 528.119,33.949 528.065,34.577" style="fill:rgb(37,169,224);fill-rule:nonzero;"/>
    </g>
    <g transform="matrix(1,0,0,-1,-546.402,110.198)">
        <path d="M580.009,79.866C578.222,81.665 576.425,83.454 574.629,85.244C574.539,85.334 574.419,85.394 574.329,85.457C578.117,91.346 575.691,98.019 571.423,100.975C566.919,104.094 560.878,103.599 556.973,99.726C553.136,95.92 552.554,89.826 555.612,85.403C557.194,83.116 559.325,81.568 562.013,80.857C565.256,79.998 568.306,80.531 571.19,82.351C571.274,82.247 571.346,82.138 571.437,82.048C573.228,80.254 575.019,78.458 576.816,76.669C577.637,75.853 578.804,75.725 579.709,76.33C580.927,77.145 581.074,78.794 580.009,79.866M564.935,83.851C560.607,83.851 557.048,87.405 557.042,91.734C557.035,96.074 560.612,99.647 564.951,99.635C569.284,99.623 572.833,96.064 572.828,91.736C572.822,87.407 569.264,83.851 564.935,83.851" style="fill:white;fill-rule:nonzero;"/>
    </g>
    <g transform="matrix(1,0,0,-1,-592.878,152.943)">
        <path d="M615.936,135.612C615.15,135.62 614.363,135.614 613.576,135.614C613.24,135.614 612.903,135.614 612.537,135.614C612.537,136.731 612.539,137.808 612.537,138.886C612.536,139.63 612.077,140.127 611.399,140.123C610.74,140.119 610.286,139.623 610.285,138.899C610.284,137.82 610.285,136.742 610.285,135.614C609.138,135.614 608.037,135.617 606.935,135.613C606.268,135.611 605.781,135.141 605.776,134.506C605.769,133.85 606.256,133.366 606.937,133.363C607.923,133.359 608.91,133.362 609.896,133.362C610.02,133.362 610.143,133.362 610.285,133.362C610.285,132.221 610.283,131.13 610.286,130.04C610.288,129.352 610.758,128.856 611.404,128.853C612.055,128.851 612.534,129.341 612.537,130.025C612.54,131.011 612.537,131.997 612.537,132.983L612.537,133.363C613.71,133.363 614.825,133.357 615.941,133.365C616.57,133.369 617.048,133.866 617.047,134.49C617.046,135.113 616.566,135.606 615.936,135.612" style="fill:white;fill-rule:nonzero;"/>
    </g>
</svg>
